<svg xmlns="http://www.w3.org/2000/svg" width="256.955" height="60.852" viewBox="0 0 256.955 60.852"><g transform="translate(-59.009 -84.583)"><path d="M136.221,114.812l-8.715-20.647-20.762-8.437L86.1,94.443,77.66,115.2l8.715,20.647,20.762,8.437,20.647-8.715Z" fill="#350000"/><path d="M107.141,144.83,86,136.237,77.12,115.208l8.592-21.145,21.029-8.875,21.145,8.592,8.876,21.029-8.593,21.145Zm-20.386-9.364,20.379,8.282,20.264-8.554,8.282-20.379-8.554-20.264L106.748,86.27,86.483,94.823,78.2,115.2Z" fill="#d83b05"/><path d="M107.145,145.435l-21.574-8.768-9.056-21.455,8.767-21.573,21.455-9.056,21.574,8.767,9.055,21.455L128.6,136.378ZM86.331,135.9l20.807,8.456,20.691-8.734,8.455-20.807L127.551,94.12l-20.807-8.455L86.052,94.4,77.6,115.206Z" fill="#291306"/><path d="M94.5,88.5l-19,3-16,22h15l9-21Z" fill="#ff7e27"/><path d="M74.665,113.75H59.009l16.35-22.481,19.1-3.016.124.482L83.687,92.7Zm-14.674-.5H74.335L83.313,92.3l8.664-3.151-16.336,2.58Z" fill="#291306"/><path d="M94.5,141.5l-19-3-16-22h15l9,21Z" fill="#ff7e27"/><path d="M94.461,141.747l-19.1-3.016L59.009,116.25H74.665L83.687,137.3l10.9,3.963Zm-18.82-3.478,16.336,2.58L83.313,137.7l-.043-.1L74.335,116.75H59.991Z" fill="#291306"/><path d="M119.5,141.5l19-3,16-22h-15l-9,21Z" fill="#ff7e27"/><path d="M119.539,141.747l-.124-.482,10.9-3.963,9.022-21.052h15.656l-16.35,22.481Zm20.126-25L130.687,137.7l-8.664,3.151,16.336-2.58,15.65-21.519Z" fill="#291306"/><path d="M119.5,88.5l19,3,16,22h-15l-9-21Z" fill="#ff7e27"/><path d="M154.991,113.75H139.335L130.313,92.7l-10.9-3.963.124-.482,19.1,3.016Zm-15.326-.5h14.344l-15.65-21.519-16.336-2.58,8.664,3.151.043.1Z" fill="#291306"/><path d="M68.5,102.5l-6,9h11l9-20-11,17-5,1Z" fill="#ff5b00"/><path d="M62,118l14,19,6,1-3-7v5l-2-1L63,118Z" fill="#ff5b00"/><path d="M133,137l5-3,11-16h2l-14,19-5,1Z" fill="#ff5b00"/><path d="M132,92l9,20h6Z" fill="#ff5b00"/><path d="M137,93l7,11-6-11Z" fill="#fff"/><path d="M139,104l4,8h7l-9-8h-2" fill="#fff"/><path d="M145,118l-2.665,11.759L151,118Z" fill="#fff"/><path d="M79.547,132.277,73,118H69l13,20Z" fill="#fff"/><path d="M68,111,79.8,97.493,73,111Z" fill="#fff"/><path d="M94.646,127.635l8.528-27.777h12.667l-1.833,6.028h-4.653l-1.362,4.514h3.752l-1.839,6.028h-3.792l-3.44,11.208Z" fill="#350000"/><path d="M106.451,127.635l8.492-27.777h12.668l-1.842,6.028h-4.641l-1.355,4.514h3.74l-1.844,6.028H117.9l-1.584,5.18H121l-1.888,6.028Z" fill="#350000"/><path d="M118.787,127.635l8.492-27.777H135.6L127.1,127.635Z" fill="#350000"/><path d="M135.46,127.635l-.213-.714a4.291,4.291,0,0,1-.144-.681l-.427,1.4h-7.842l8.491-27.777h10.267a3.221,3.221,0,0,1,3.556,3.521,7.006,7.006,0,0,1-.242,1.758c-.041.2-.246.946-1.38,4.566-.63,2.041-1.505,3.393-2.611,4.04a5.066,5.066,0,0,1,.416,2.141,9.959,9.959,0,0,1-.074,1.17l-.011.088-2.27,7.439a3.818,3.818,0,0,0,.125,1.836l.272,1.218Z" fill="#350000"/><path d="M153.342,127.635l1.19-8.756h-1.9l-4.133,8.756h-7.987L154.8,100.108l-1.192.7-1.256-3.838.64-.42A8.388,8.388,0,0,1,157.6,95.06a14.136,14.136,0,0,1,2.363.26,11.767,11.767,0,0,0,1.875.23,4.352,4.352,0,0,0,2.914-1.223l1.089-.954,1.388,3.722-.421.452a7.251,7.251,0,0,1-3.607,2.311h.47l-2.567,27.777Zm7.87-27.777c-.379-.069-.818-.172-1.33-.312a8.406,8.406,0,0,0-2.068-.35,5.759,5.759,0,0,0-2.545.662Z" fill="#350000"/><path d="M166.676,128.161c-4.475,0-6.744-1.28-6.744-3.8a5.847,5.847,0,0,1,.288-1.692l5.708-18.738a5.708,5.708,0,0,1,3.666-3.508,12.752,12.752,0,0,1,4.927-.948h.49a10.116,10.116,0,0,1,4.081.75,3.442,3.442,0,0,1,2.383,3.192,3.541,3.541,0,0,1-.193,1.123l-5.7,18.712a6.132,6.132,0,0,1-3.259,3.939A13.04,13.04,0,0,1,166.676,128.161Z" fill="#350000"/><path d="M188.092,127.635l1.85-27.777h7.715l-.707,10.361,5.626-10.361h8.016l-15.123,27.777Z" fill="#350000"/><path d="M209.1,127.635l1.19-8.756h-1.9l-4.133,8.756h-7.988l14.418-27.777h8.744l-2.567,27.777Z" fill="#350000"/><path d="M215.6,127.635l8.5-27.777h8.025l-6.654,21.75h4.618l-1.826,6.028Z" fill="#350000"/><path d="M227.279,127.635l8.492-27.777H248.44l-1.843,6.028h-4.64L240.6,110.4h3.74l-1.844,6.028h-3.768l-1.584,5.18h4.684l-1.889,6.028Z" fill="#350000"/><path d="M250.465,127.635l6.654-21.75h-3.792l1.888-6.028H270.8l-1.9,6.028h-3.757l-6.653,21.75Z" fill="#350000"/><path d="M269.765,128.164c-5.385,0-6.515-2.069-6.515-3.805a3.839,3.839,0,0,1,.232-1.281l7.1-23.22H286.3l-7.192,23.394a6.1,6.1,0,0,1-3.254,3.934,14.764,14.764,0,0,1-5.667.975Z" fill="#350000"/><path d="M285.859,128.161c-3.339,0-5.67-.411-7.122-1.257l-.684-.4,7.826-25.65.428-.183a19.929,19.929,0,0,1,7.713-1.2,10.1,10.1,0,0,1,4.082.751,3.439,3.439,0,0,1,2.381,3.191,4.361,4.361,0,0,1-.135,1.048l-5.9,19.243a5.706,5.706,0,0,1-3.664,3.507A12.588,12.588,0,0,1,285.859,128.161Z" fill="#350000"/><path d="M301.165,128.161c-4.475,0-6.744-1.28-6.744-3.8a5.881,5.881,0,0,1,.288-1.692l5.709-18.738a5.708,5.708,0,0,1,3.665-3.509,12.762,12.762,0,0,1,4.927-.947h.49a10.1,10.1,0,0,1,4.082.751,3.439,3.439,0,0,1,2.382,3.191,3.586,3.586,0,0,1-.191,1.12l-5.7,18.715a6.129,6.129,0,0,1-3.261,3.939A13.029,13.029,0,0,1,301.165,128.161Z" fill="#350000"/><path d="M113.268,104.886h-4.655l-1.967,6.514h3.749l-1.229,4.028h-3.791l-3.44,11.207H96l7.914-25.777h10.578Z" fill="#ff2a00"/><path d="M118.38,126.635H107.8l7.881-25.777H126.26l-1.231,4.028h-4.644L118.43,111.4h3.732l-1.232,4.028h-3.768l-2.195,7.179h4.674Z" fill="#ff2a00"/><path d="M126.364,126.635h-6.225l7.881-25.777h6.224Z" fill="#ff2a00"/><path d="M142.125,126.635h-5.92a4.1,4.1,0,0,1,.066-2.348l2.332-7.524c.012-.163.02-.315.02-.456q0-.911-1.251-.911l-3.436,11.239h-5.75l7.879-25.777h9.527a2.243,2.243,0,0,1,2.556,2.521,5.989,5.989,0,0,1-.21,1.507q-.1.49-1.366,4.518-1.189,3.852-3.4,3.783a3,3,0,0,1,1.155,2.7,8.787,8.787,0,0,1-.067,1.05l-2.244,7.355A4.828,4.828,0,0,0,142.125,126.635Zm-1.42-16.886,1.221-3.879a2.453,2.453,0,0,0,.058-.492q0-.982-1.227-1.053l-2.161,7.067A1.986,1.986,0,0,0,140.705,109.749Z" fill="#ff2a00"/><path d="M160.2,126.635h-5.709l1.191-8.756H152l-4.133,8.756h-5.708l13.379-25.777h7.04Zm-6.024-27.318-.631-1.926A7.365,7.365,0,0,1,157.6,96.06a13.342,13.342,0,0,1,2.189.245,13.092,13.092,0,0,0,2.049.245,5.345,5.345,0,0,0,3.572-1.471l.666,1.786a5.473,5.473,0,0,1-3.852,2.1,9.008,9.008,0,0,1-2.084-.385,9.281,9.281,0,0,0-2.33-.386A7.156,7.156,0,0,0,154.172,99.317Zm2.1,14.535.946-7.04-3.292,7.04Z" fill="#ff2a00"/><path d="M174.625,122.958a5.141,5.141,0,0,1-2.73,3.327,12.237,12.237,0,0,1-5.219.876q-5.745,0-5.744-2.8a4.93,4.93,0,0,1,.245-1.4l5.708-18.738a4.753,4.753,0,0,1,3.083-2.872,11.734,11.734,0,0,1,4.553-.875h.49a9.089,9.089,0,0,1,3.677.665,2.349,2.349,0,0,1,1.646,3.082Zm-5.572-1.053,4.865-15.971a1.04,1.04,0,0,0,.077-.35c0-.419-.2-.628-.591-.628q-.833,0-1.111.984l-4.9,15.972a.657.657,0,0,0-.05.233c0,.333.2.511.594.533A1.055,1.055,0,0,0,169.053,121.9Z" fill="#ff2a00"/><path d="M208.908,100.858l-14.034,25.777H189.16l1.717-25.777h5.709l-.946,13.869,7.53-13.869Z" fill="#ff2a00"/><path d="M215.953,126.635h-5.708l1.191-8.756h-3.678l-4.133,8.756h-5.709l13.38-25.777h7.04Zm-3.922-12.783.946-7.04-3.292,7.04Z" fill="#ff2a00"/><path d="M227.516,126.635H216.949l7.886-25.777h5.934l-6.655,21.749h4.622Z" fill="#ff2a00"/><path d="M239.208,126.635H228.631l7.881-25.777h10.577l-1.232,4.028h-4.643l-1.956,6.514h3.733l-1.232,4.028h-3.768l-2.195,7.179h4.674Z" fill="#ff2a00"/><path d="M268.167,104.886H264.4l-6.653,21.749h-5.934l6.655-21.749h-3.783l1.261-4.028h13.485Z" fill="#ff2a00"/><path d="M284.948,100.858l-6.794,22.1a5.123,5.123,0,0,1-2.732,3.327,14,14,0,0,1-5.253.876q-5.919.1-5.919-2.8a2.83,2.83,0,0,1,.175-.946l6.9-22.555h5.9l-6.558,21.436a.894.894,0,0,0-.04.245q0,.523.633.524a.981.981,0,0,0,1.055-.769l6.59-21.436Z" fill="#ff2a00"/><path d="M293.495,123.413a4.747,4.747,0,0,1-3.082,2.872,11.551,11.551,0,0,1-4.554.876q-4.693,0-6.619-1.121l7.459-24.447a19.185,19.185,0,0,1,7.321-1.12,9.092,9.092,0,0,1,3.677.665,2.513,2.513,0,0,1,1.786,2.277,3.316,3.316,0,0,1-.105.805Zm-5.52-1.232,5.055-16.493a1.263,1.263,0,0,0,.044-.313q0-.56-.828-.56a2.894,2.894,0,0,0-.621.077L286.1,123a2.631,2.631,0,0,0,.58.062A1.21,1.21,0,0,0,287.975,122.181Z" fill="#ff2a00"/><path d="M309.115,122.958a5.141,5.141,0,0,1-2.732,3.327,12.228,12.228,0,0,1-5.218.876q-5.745,0-5.744-2.8a4.93,4.93,0,0,1,.245-1.4l5.709-18.738a4.747,4.747,0,0,1,3.082-2.872,11.727,11.727,0,0,1,4.553-.875h.49a9.1,9.1,0,0,1,3.678.665,2.514,2.514,0,0,1,1.786,2.277,2.552,2.552,0,0,1-.14.805Zm-5.574-1.053,4.866-15.971a1.04,1.04,0,0,0,.077-.35c0-.419-.2-.628-.589-.628q-.835,0-1.113.984l-4.9,15.972a.679.679,0,0,0-.05.233c0,.333.2.511.594.533A1.053,1.053,0,0,0,303.541,121.9Z" fill="#ff2a00"/><path d="M102.618,121l2.018-6.572h3.79l.618-2.028H105.3l2.571-8.514h4.655l.616-2.028h-8.489L98.777,121Z" fill="#ff6700"/><path d="M114.412,121l2.009-6.572h3.768l.621-2.028h-3.725l2.555-8.514h4.648l.619-2.028h-8.484L110.571,121Z" fill="#ff6700"/><path d="M127.041,121l5.852-19.142H128.76L122.907,121Z" fill="#ff6700"/><path d="M134.613,121l2.019-6.6h.74c1.659,0,2.251.987,2.251,1.911,0,.165-.009.343-.023.534l-.009.111L138.336,121h3.642l1.3-4.271a7.736,7.736,0,0,0,.05-.845c0-1.391-.535-1.749-.711-1.866l-2.661-1.83h3.3c1.166,0,1.929-1.675,2.363-3.083,1.088-3.474,1.308-4.265,1.353-4.471a5.039,5.039,0,0,0,.177-1.255c0-1.123-.407-1.521-1.556-1.521h-8.786L130.954,121Zm5.417-17.719.784.045a2.034,2.034,0,0,1,2.17,2.052,3.561,3.561,0,0,1-.1.792l-1.218,3.868a2.969,2.969,0,0,1-2.941,2.357l-.17,0-1.289-.058Z" fill="#ff6700"/><path d="M157.814,97.2a10.113,10.113,0,0,1,2.591.421,7.893,7.893,0,0,0,1.823.35,3.923,3.923,0,0,0,2.519-1.192,5.9,5.9,0,0,1-2.9.775,13.868,13.868,0,0,1-2.223-.26,12.422,12.422,0,0,0-2.015-.23,6.042,6.042,0,0,0-2.864.779l.017.051A7.518,7.518,0,0,1,157.814,97.2Z" fill="#ff6700"/><path d="M156.146,101.858,146.21,121h3.211l1.945-4.121h5.457l-.56,4.121h3.45l1.768-19.142Zm-3.791,12.994,3.957-8.464,1.9.557-1.062,7.907Z" fill="#ff6700"/><path d="M166.624,121l4.707-15.332a2.113,2.113,0,0,1,2.073-1.712,1.524,1.524,0,0,1,1.591,1.628,1.884,1.884,0,0,1-.12.642L170.374,121h3.8l5.21-17.1a1.586,1.586,0,0,0,.089-.488c0-.226,0-.825-1.19-1.362a8.159,8.159,0,0,0-3.274-.58h-.49a10.8,10.8,0,0,0-4.179.8,3.8,3.8,0,0,0-2.5,2.237L162.819,121Z" fill="#ff6700"/><path d="M196.8,121l10.422-19.142h-3.461L196.519,115.2l-1.877-.545.874-12.8h-3.7L190.537,121Z" fill="#ff6700"/><path d="M205.179,121l1.945-4.121h5.457l-.56,4.121h3.448l1.77-19.142H211.9L201.968,121Zm6.891-14.612,1.9.557-1.062,7.907h-4.793Z" fill="#ff6700"/><path d="M223.56,121l5.857-19.142h-3.842L219.719,121Z" fill="#ff6700"/><path d="M235.241,121l2.01-6.572h3.768l.621-2.028h-3.727l2.557-8.514h4.647l.62-2.028h-8.485L231.4,121Z" fill="#ff6700"/><path d="M254.586,121h3.842l5.235-17.114h3.771l.638-2.028H256.684l-.634,2.028h3.772Z" fill="#ff6700"/><path d="M277.71,121l5.885-19.142h-3.954L273.755,121Z" fill="#ff6700"/><path d="M270.014,121l5.856-19.142h-3.8L266.208,121Z" fill="#ff6700"/><path d="M285.664,121l5.175-16.958.57-.126a3.824,3.824,0,0,1,.837-.1c1.35,0,1.828.84,1.828,1.56a2.378,2.378,0,0,1-.088.606L289.382,121h3.807l5.219-17.023a2.333,2.333,0,0,0,.075-.562c0-.226,0-.825-1.19-1.362a8.147,8.147,0,0,0-3.273-.58,19.627,19.627,0,0,0-6.5.873L281.823,121Z" fill="#ff6700"/><path d="M301.114,121l4.706-15.332a2.114,2.114,0,0,1,2.075-1.712,1.523,1.523,0,0,1,1.589,1.628,1.885,1.885,0,0,1-.12.642L304.862,121h3.8l5.209-17.094a1.579,1.579,0,0,0,.089-.491c0-.226,0-.825-1.191-1.362a8.144,8.144,0,0,0-3.273-.58h-.49a10.779,10.779,0,0,0-4.179.8,3.789,3.789,0,0,0-2.5,2.236L297.308,121Z" fill="#ff6700"/><path d="M110.979,119.666,109,126h5l-3-6" fill="#fff"/><path d="M281.979,119.666,280,126h5l-3-6" fill="#fff"/><path d="M98.979,119.666,97,126h5l-3-6" fill="#fff"/><path d="M123.188,120,122,125.666h3l-1.8-5.367" fill="#fff"/><path d="M131.188,121,130,126h3l-1.8-4.736" fill="#fff"/><path d="M144,125l4.148-7.734L146,125Z" fill="#fff"/><path d="M156.538,118.978,156,126h2Z" fill="#fff"/><path d="M164.186,116.513,162,123a2.938,2.938,0,0,0,3,3h3l-3-1Z" fill="#fff"/><path d="M268.186,116.513,266,123a2.938,2.938,0,0,0,3,3h3l-3-1Z" fill="#fff"/><path d="M299.186,116.513,297,123a2.938,2.938,0,0,0,3,3h3l-3-1Z" fill="#fff"/><path d="M190.836,116.513,190,125h3Z" fill="#fff"/><path d="M203.017,118.978,200,125h2Z" fill="#fff"/><path d="M212.47,117.693,212,126h3Z" fill="#fff"/><path d="M220.731,117.693,219,125h3Z" fill="#fff"/><path d="M232.12,118.643,230,126h3Z" fill="#fff"/><path d="M255.065,119.436,253,126h2Z" fill="#fff"/></g></svg>