<svg xmlns="http://www.w3.org/2000/svg" viewBox="0 0 256.95 60.85"><defs><style>.a{fill:#251001;}.b{fill:#cd703d;}.c{fill:#291306;}.d{fill:#ffab20;}.e{fill:#ffff4d;}.f{fill:#fff;}.g{fill:#ffff42;}.h{fill:#ffae4e;}</style></defs><title>logo</title><polygon class="a" points="77.21 30.23 68.5 9.58 47.73 1.15 27.09 9.86 18.65 30.62 27.37 51.27 48.13 59.71 68.77 50.99 77.21 30.23"/><path class="b" d="M595.17,544.46,574,535.87l-8.88-21,8.6-21.15,21-8.87,21.15,8.59,8.88,21-8.6,21.15Zm-20.38-9.36,20.38,8.28,20.26-8.55,8.28-20.38-8.55-20.27-20.38-8.28-20.26,8.55-8.28,20.38Z" transform="translate(-547.04 -484.21)"/><path class="c" d="M595.18,545.07,573.6,536.3l-9.05-21.46,8.77-21.57,21.45-9.06L616.34,493l9.06,21.46L616.63,536Zm-20.82-9.54L595.17,544l20.69-8.73,8.46-20.81-8.74-20.69-20.8-8.45L574.09,494l-8.46,20.81Z" transform="translate(-547.04 -484.21)"/><polygon class="d" points="35.49 3.92 16.49 6.92 0.49 28.92 15.49 28.92 24.49 7.92 35.49 3.92"/><path class="c" d="M562.7,513.38H547l16.35-22.48,19.1-3,.13.49-10.9,4Zm-14.68-.5h14.35l9-20.95,8.66-3.15-16.34,2.58Z" transform="translate(-547.04 -484.21)"/><polygon class="d" points="35.49 56.92 16.49 53.92 0.49 31.92 15.49 31.92 24.49 52.92 35.49 56.92"/><path class="c" d="M582.49,541.38l-19.1-3L547,515.88H562.7l9,21,10.9,4Zm-18.82-3.48L580,540.48l-8.66-3.15-.05-.1-8.93-20.85H548Z" transform="translate(-547.04 -484.21)"/><polygon class="d" points="60.49 56.92 79.49 53.92 95.49 31.92 80.49 31.92 71.49 52.92 60.49 56.92"/><path class="c" d="M607.57,541.38l-.12-.48,10.9-4,9-21H643l-16.35,22.48Zm20.13-25-9,21-8.66,3.15,16.33-2.58L642,516.38Z" transform="translate(-547.04 -484.21)"/><polygon class="d" points="60.49 3.92 79.49 6.92 95.49 28.92 80.49 28.92 71.49 7.92 60.49 3.92"/><path class="c" d="M643,513.38H627.37l-9-21.05-10.9-4,.12-.49,19.1,3Zm-15.32-.5H642l-15.65-21.52-16.33-2.58,8.66,3.15,0,.1Z" transform="translate(-547.04 -484.21)"/><polygon class="e" points="9.49 17.92 3.49 26.92 14.49 26.92 23.49 6.92 12.49 23.92 7.49 24.92 9.49 17.92"/><polygon class="e" points="2.99 33.42 16.99 52.42 22.99 53.42 19.99 46.42 19.99 51.42 17.99 50.42 3.99 33.42 2.99 33.42"/><polygon class="e" points="73.99 52.42 78.99 49.42 89.99 33.42 91.99 33.42 77.99 52.42 72.99 53.42 73.99 52.42"/><polygon class="e" points="72.99 7.42 81.99 27.42 87.99 27.42 72.99 7.42"/><polygon class="f" points="77.99 8.42 84.99 19.42 78.99 8.42 77.99 8.42"/><polyline class="f" points="79.99 19.42 83.99 27.42 90.99 27.42 81.99 19.42 79.99 19.42"/><polygon class="f" points="85.99 33.42 83.33 45.18 91.99 33.42 85.99 33.42"/><polygon class="f" points="20.54 47.7 13.99 33.42 9.99 33.42 22.99 53.42 20.54 47.7"/><polygon class="f" points="8.99 26.42 20.79 12.91 13.99 26.42 8.99 26.42"/><polygon class="a" points="35.64 43.05 44.17 15.28 56.83 15.28 55 21.3 50.35 21.3 48.98 25.82 52.74 25.82 50.9 31.84 47.1 31.84 43.66 43.05 35.64 43.05"/><polygon class="a" points="47.44 43.05 55.93 15.28 68.6 15.28 66.76 21.3 62.12 21.3 60.76 25.82 64.5 25.82 62.66 31.84 58.89 31.84 57.31 37.02 61.99 37.02 60.1 43.05 47.44 43.05"/><polygon class="a" points="59.78 43.05 68.27 15.28 76.59 15.28 68.09 43.05 59.78 43.05"/><path class="a" d="M623.49,527.27l-.21-.72a3.91,3.91,0,0,1-.14-.68l-.43,1.4h-7.84l8.49-27.78h10.27a3.21,3.21,0,0,1,3.55,3.52,7.07,7.07,0,0,1-.24,1.76c0,.2-.25.94-1.38,4.56-.63,2.05-1.51,3.4-2.61,4a5.22,5.22,0,0,1,.41,2.15,9.88,9.88,0,0,1-.07,1.17v.08L631,524.21a3.9,3.9,0,0,0,.12,1.84l.28,1.22Z" transform="translate(-547.04 -484.21)"/><path class="a" d="M641.38,527.27l1.19-8.76h-1.9l-4.14,8.76h-8l14.28-27.53-1.19.7-1.25-3.83.64-.42a8.3,8.3,0,0,1,4.61-1.5A14.66,14.66,0,0,1,648,495a11.73,11.73,0,0,0,1.88.23,4.35,4.35,0,0,0,2.91-1.22l1.09-1,1.39,3.73-.43.45a7.28,7.28,0,0,1-3.6,2.31h.47l-2.57,27.78Zm7.87-27.78c-.38-.07-.82-.17-1.33-.31a8.59,8.59,0,0,0-2.07-.35,5.76,5.76,0,0,0-2.55.66Z" transform="translate(-547.04 -484.21)"/><path class="a" d="M654.71,527.79c-4.48,0-6.74-1.28-6.74-3.8a5.94,5.94,0,0,1,.28-1.69L654,503.56a5.75,5.75,0,0,1,3.67-3.51,12.69,12.69,0,0,1,4.92-.95H663a10.3,10.3,0,0,1,4.09.75,3.44,3.44,0,0,1,2.38,3.2,3.76,3.76,0,0,1-.19,1.12l-5.7,18.71a6.17,6.17,0,0,1-3.26,3.94A13.07,13.07,0,0,1,654.71,527.79Z" transform="translate(-547.04 -484.21)"/><polygon class="a" points="129.08 43.05 130.93 15.28 138.65 15.28 137.94 25.64 143.57 15.28 151.58 15.28 136.46 43.05 129.08 43.05"/><polygon class="a" points="150.09 43.05 151.28 34.3 149.38 34.3 145.25 43.05 137.26 43.05 151.68 15.28 160.42 15.28 157.86 43.05 150.09 43.05"/><polygon class="a" points="156.59 43.05 165.09 15.28 173.11 15.28 166.46 37.02 171.07 37.02 169.25 43.05 156.59 43.05"/><polygon class="a" points="168.27 43.05 176.76 15.28 189.43 15.28 187.59 21.3 182.95 21.3 181.59 25.82 185.33 25.82 183.49 31.84 179.72 31.84 178.14 37.02 182.82 37.02 180.93 43.05 168.27 43.05"/><polygon class="a" points="191.46 43.05 198.11 21.3 194.32 21.3 196.21 15.28 211.79 15.28 209.89 21.3 206.13 21.3 199.48 43.05 191.46 43.05"/><path class="a" d="M757.8,527.8c-5.39,0-6.52-2.07-6.52-3.81a3.66,3.66,0,0,1,.24-1.28l7.1-23.22h15.72l-7.2,23.39a6.1,6.1,0,0,1-3.25,3.94,14.77,14.77,0,0,1-5.67,1Z" transform="translate(-547.04 -484.21)"/><path class="a" d="M773.89,527.79c-3.34,0-5.67-.41-7.12-1.25l-.68-.4,7.82-25.65.43-.19a20.08,20.08,0,0,1,7.71-1.2,10,10,0,0,1,4.08.76,3.44,3.44,0,0,1,2.39,3.19,4.26,4.26,0,0,1-.14,1l-5.9,19.25a5.68,5.68,0,0,1-3.66,3.5A12.52,12.52,0,0,1,773.89,527.79Z" transform="translate(-547.04 -484.21)"/><path class="a" d="M789.2,527.79c-4.48,0-6.75-1.28-6.75-3.8a6,6,0,0,1,.29-1.69l5.71-18.74a5.73,5.73,0,0,1,3.67-3.51,12.65,12.65,0,0,1,4.92-.95h.49a10.12,10.12,0,0,1,4.09.76,3.42,3.42,0,0,1,2.38,3.19,3.81,3.81,0,0,1-.19,1.12l-5.7,18.71a6.15,6.15,0,0,1-3.27,3.94A13,13,0,0,1,789.2,527.79Z" transform="translate(-547.04 -484.21)"/><path class="g" d="M601.3,504.52h-4.65l-2,6.51h3.75l-1.23,4h-3.79L590,526.27H584L592,500.49h10.58Z" transform="translate(-547.04 -484.21)"/><path class="g" d="M606.41,526.27H595.84l7.88-25.78h10.57l-1.23,4h-4.64l-2,6.51h3.74l-1.24,4H605.2l-2.2,7.18h4.67Z" transform="translate(-547.04 -484.21)"/><path class="g" d="M614.4,526.27h-6.23l7.88-25.78h6.23Z" transform="translate(-547.04 -484.21)"/><path class="g" d="M630.16,526.27h-5.92a4.12,4.12,0,0,1,.06-2.35l2.34-7.53c0-.16,0-.31,0-.45,0-.61-.42-.91-1.25-.91L622,526.27h-5.75l7.88-25.78h9.53a2.24,2.24,0,0,1,2.55,2.52,6,6,0,0,1-.21,1.51c-.07.32-.52,1.83-1.36,4.52s-1.93,3.83-3.4,3.78a3,3,0,0,1,1.15,2.7,10.09,10.09,0,0,1-.06,1.05l-2.25,7.35A4.85,4.85,0,0,0,630.16,526.27Zm-1.42-16.89L630,505.5A2.41,2.41,0,0,0,630,505q0-1-1.23-1.05L626.63,511A2,2,0,0,0,628.74,509.38Z" transform="translate(-547.04 -484.21)"/><path class="g" d="M648.23,526.27h-5.71l1.19-8.76H640l-4.13,8.76h-5.71l13.38-25.78h7Zm-6-27.32-.64-1.93a7.37,7.37,0,0,1,4.07-1.33,12.87,12.87,0,0,1,2.19.25,13.22,13.22,0,0,0,2,.24,5.35,5.35,0,0,0,3.57-1.47l.66,1.79a5.45,5.45,0,0,1-3.85,2.1,8.84,8.84,0,0,1-2.08-.39,9.57,9.57,0,0,0-2.33-.38A7.11,7.11,0,0,0,642.21,499Zm2.1,14.53.94-7-3.29,7Z" transform="translate(-547.04 -484.21)"/><path class="g" d="M662.66,522.59a5.14,5.14,0,0,1-2.73,3.33,12.3,12.3,0,0,1-5.22.87q-5.75,0-5.74-2.8a5,5,0,0,1,.24-1.4l5.71-18.74A4.74,4.74,0,0,1,658,501a11.79,11.79,0,0,1,4.55-.88H663a9.13,9.13,0,0,1,3.68.67,2.53,2.53,0,0,1,1.79,2.28,2.64,2.64,0,0,1-.14.8Zm-5.57-1.05,4.86-16a1.13,1.13,0,0,0,.08-.35c0-.42-.2-.63-.59-.63-.56,0-.93.33-1.11,1l-4.91,16a.79.79,0,0,0,0,.24c0,.33.2.51.6.53A1.07,1.07,0,0,0,657.09,521.54Z" transform="translate(-547.04 -484.21)"/><path class="g" d="M696.94,500.49l-14,25.78h-5.72l1.72-25.78h5.71l-1,13.87,7.53-13.87Z" transform="translate(-547.04 -484.21)"/><path class="g" d="M704,526.27h-5.71l1.19-8.76h-3.68l-4.13,8.76H686l13.38-25.78h7Zm-3.93-12.79,1-7-3.29,7Z" transform="translate(-547.04 -484.21)"/><path class="g" d="M715.55,526.27H705l7.89-25.78h5.93l-6.65,21.75h4.62Z" transform="translate(-547.04 -484.21)"/><path class="g" d="M727.24,526.27H716.66l7.89-25.78h10.57l-1.23,4h-4.64l-2,6.51H731l-1.23,4H726l-2.19,7.18h4.67Z" transform="translate(-547.04 -484.21)"/><path class="g" d="M756.2,504.52h-3.76l-6.66,21.75h-5.93l6.65-21.75h-3.78l1.26-4h13.49Z" transform="translate(-547.04 -484.21)"/><path class="g" d="M773,500.49l-6.79,22.1a5.17,5.17,0,0,1-2.73,3.33,14.1,14.1,0,0,1-5.26.87c-3.94.07-5.92-.86-5.92-2.8a2.79,2.79,0,0,1,.18-1l6.9-22.55h5.9l-6.56,21.44a.75.75,0,0,0,0,.24c0,.35.21.52.63.52a1,1,0,0,0,1.05-.76l6.6-21.44Z" transform="translate(-547.04 -484.21)"/><path class="g" d="M781.53,523a4.77,4.77,0,0,1-3.08,2.88,11.65,11.65,0,0,1-4.56.87c-3.13,0-5.33-.37-6.62-1.12l7.46-24.45a19.31,19.31,0,0,1,7.32-1.12,9.13,9.13,0,0,1,3.68.67,2.53,2.53,0,0,1,1.79,2.28,3.34,3.34,0,0,1-.11.8ZM776,521.81l5-16.49a1.32,1.32,0,0,0,.05-.31c0-.38-.28-.56-.83-.56a2.87,2.87,0,0,0-.62.07l-5.53,18.11a2.72,2.72,0,0,0,.58.06A1.21,1.21,0,0,0,776,521.81Z" transform="translate(-547.04 -484.21)"/><path class="g" d="M797.15,522.59a5.14,5.14,0,0,1-2.73,3.33,12.3,12.3,0,0,1-5.22.87q-5.75,0-5.75-2.8a5.06,5.06,0,0,1,.25-1.4l5.71-18.74a4.74,4.74,0,0,1,3.08-2.87,11.79,11.79,0,0,1,4.55-.88h.49a9.13,9.13,0,0,1,3.68.67,2.53,2.53,0,0,1,1.79,2.28,2.64,2.64,0,0,1-.14.8Zm-5.58-1.05,4.87-16a1.13,1.13,0,0,0,.08-.35c0-.42-.2-.63-.59-.63-.56,0-.93.33-1.11,1l-4.91,16a.79.79,0,0,0,0,.24c0,.33.2.51.6.53A1,1,0,0,0,791.57,521.54Z" transform="translate(-547.04 -484.21)"/><polygon class="h" points="43.61 36.42 45.63 29.84 49.42 29.84 50.03 27.82 46.29 27.82 48.86 19.3 53.52 19.3 54.13 17.27 45.64 17.27 39.77 36.42 43.61 36.42"/><polygon class="h" points="55.4 36.42 57.41 29.84 61.18 29.84 61.8 27.82 58.08 27.82 60.63 19.3 65.28 19.3 65.9 17.27 57.41 17.27 51.56 36.42 55.4 36.42"/><polygon class="h" points="68.03 36.42 73.88 17.27 69.75 17.27 63.9 36.42 68.03 36.42"/><path class="h" d="M622.65,520.63l2-6.6h.74c1.65,0,2.25,1,2.25,1.91a5.13,5.13,0,0,1,0,.53v.11l-1.25,4H630l1.3-4.27a6.28,6.28,0,0,0,.05-.84c0-1.4-.53-1.75-.71-1.87L628,511.82h3.3c1.16,0,1.93-1.68,2.36-3.08,1.09-3.48,1.31-4.27,1.35-4.47a5,5,0,0,0,.18-1.26c0-1.12-.41-1.52-1.55-1.52h-8.79L619,520.63Zm5.41-17.72.79,0A2,2,0,0,1,631,505a3.48,3.48,0,0,1-.11.79l-1.21,3.87a3,3,0,0,1-3,2.36h-.17L625.3,512Z" transform="translate(-547.04 -484.21)"/><path class="h" d="M645.85,496.83a10.26,10.26,0,0,1,2.59.42,7.87,7.87,0,0,0,1.82.35,3.93,3.93,0,0,0,2.52-1.19,5.94,5.94,0,0,1-2.9.77,13.29,13.29,0,0,1-2.23-.26,12.76,12.76,0,0,0-2-.23,6.05,6.05,0,0,0-2.87.78l0,0A7.53,7.53,0,0,1,645.85,496.83Z" transform="translate(-547.04 -484.21)"/><path class="h" d="M644.18,501.49l-9.94,19.14h3.21l1.95-4.12h5.46l-.56,4.12h3.45l1.76-19.14Zm-3.79,13,4-8.46,1.89.56-1.06,7.9Z" transform="translate(-547.04 -484.21)"/><path class="h" d="M654.66,520.63l4.7-15.33a2.12,2.12,0,0,1,2.08-1.71,1.52,1.52,0,0,1,1.59,1.63,2,2,0,0,1-.12.64l-4.5,14.77h3.8l5.21-17.1a1.49,1.49,0,0,0,.09-.48c0-.23,0-.83-1.19-1.37a8.27,8.27,0,0,0-3.28-.58h-.49a10.65,10.65,0,0,0-4.17.81,3.77,3.77,0,0,0-2.5,2.23l-5,16.49Z" transform="translate(-547.04 -484.21)"/><polygon class="h" points="137.79 36.42 148.22 17.27 144.75 17.27 137.51 30.62 135.63 30.08 136.51 17.27 132.8 17.27 131.53 36.42 137.79 36.42"/><path class="h" d="M693.21,520.63l1.95-4.12h5.45l-.56,4.12h3.45l1.77-19.14h-5.33L690,520.63ZM700.1,506l1.9.56-1.06,7.9h-4.79Z" transform="translate(-547.04 -484.21)"/><polygon class="h" points="164.55 36.42 170.41 17.27 166.57 17.27 160.71 36.42 164.55 36.42"/><polygon class="h" points="176.23 36.42 178.24 29.84 182.01 29.84 182.63 27.82 178.9 27.82 181.46 19.3 186.11 19.3 186.73 17.27 178.24 17.27 172.39 36.42 176.23 36.42"/><polygon class="h" points="195.58 36.42 199.42 36.42 204.65 19.3 208.42 19.3 209.06 17.27 197.67 17.27 197.04 19.3 200.81 19.3 195.58 36.42"/><polygon class="h" points="218.7 36.42 224.59 17.27 220.63 17.27 214.75 36.42 218.7 36.42"/><polygon class="h" points="211 36.42 216.86 17.27 213.06 17.27 207.2 36.42 211 36.42"/><path class="h" d="M773.7,520.63l5.17-17,.57-.12a3.75,3.75,0,0,1,.84-.1c1.35,0,1.83.84,1.83,1.56a2.49,2.49,0,0,1-.09.6l-4.6,15h3.8l5.22-17a2.36,2.36,0,0,0,.08-.56c0-.23,0-.83-1.19-1.37a8.27,8.27,0,0,0-3.28-.58,19.56,19.56,0,0,0-6.5.88l-5.69,18.65Z" transform="translate(-547.04 -484.21)"/><path class="h" d="M789.15,520.63l4.7-15.33a2.12,2.12,0,0,1,2.08-1.71,1.52,1.52,0,0,1,1.59,1.63,2,2,0,0,1-.12.64l-4.5,14.77h3.8l5.21-17.09a1.6,1.6,0,0,0,.09-.49c0-.23,0-.83-1.19-1.37a8.27,8.27,0,0,0-3.28-.58H797a10.74,10.74,0,0,0-4.18.81,3.78,3.78,0,0,0-2.49,2.23l-5,16.49Z" transform="translate(-547.04 -484.21)"/><polyline class="f" points="51.97 35.08 49.99 41.42 54.99 41.42 51.99 35.42"/><polyline class="f" points="222.97 35.08 220.99 41.42 225.99 41.42 222.99 35.42"/><polyline class="f" points="39.97 35.08 37.99 41.42 42.99 41.42 39.99 35.42"/><polyline class="f" points="64.18 35.42 62.99 41.08 65.99 41.08 64.19 35.72"/><polyline class="f" points="72.18 36.42 70.99 41.42 73.99 41.42 72.19 36.68"/><polygon class="f" points="84.99 40.42 89.14 32.68 86.99 40.42 84.99 40.42"/><polygon class="f" points="97.53 34.4 96.99 41.42 98.99 41.42 97.53 34.4"/><path class="f" d="M652.22,516.14,650,522.63a2.94,2.94,0,0,0,3,3h3l-3-1Z" transform="translate(-547.04 -484.21)"/><path class="f" d="M756.22,516.14,754,522.63a2.94,2.94,0,0,0,3,3h3l-3-1Z" transform="translate(-547.04 -484.21)"/><path class="f" d="M787.22,516.14,785,522.63a2.94,2.94,0,0,0,3,3h3l-3-1Z" transform="translate(-547.04 -484.21)"/><polygon class="f" points="131.83 31.93 130.99 40.42 133.99 40.42 131.83 31.93"/><polygon class="f" points="144.01 34.4 140.99 40.42 142.99 40.42 144.01 34.4"/><polygon class="f" points="153.46 33.11 152.99 41.42 155.99 41.42 153.46 33.11"/><polygon class="f" points="161.72 33.11 159.99 40.42 162.99 40.42 161.72 33.11"/><polygon class="f" points="173.11 34.06 170.99 41.42 173.99 41.42 173.11 34.06"/><polygon class="f" points="196.06 34.85 193.99 41.42 195.99 41.42 196.06 34.85"/></svg>