<svg xmlns="http://www.w3.org/2000/svg" width="323.32" height="214.134" viewBox="0 0 323.32 214.134"><g transform="translate(-28 -127.032)"><text transform="translate(28 161)" fill="#1a0d06" font-size="48" font-family="BebasNeue-Bold, Bebas Neue" font-weight="700" letter-spacing="-0.03em"><tspan x="50.824" y="43">Vale tudo para</tspan><tspan fill="#f17b00"><tspan x="48.352" y="91">fechar negócio</tspan></tspan><tspan x="88.504" y="139">com você!</tspan></text><g transform="translate(35.792 324.201)"><g transform="translate(0 -1.198)" fill="none"><path d="M7.5,1.2h7.44L7.44,18.164H0Z" stroke="none"/><path d="M 8.148994445800781 2.198427200317383 L 1.535250663757324 17.16358757019043 L 6.788987159729004 17.16358757019043 L 13.40273189544678 2.198427200317383 L 8.148994445800781 2.198427200317383 M 7.497631072998047 1.198427200317383 L 14.93798160552979 1.198427200317383 L 7.440351486206055 18.16358757019043 L 9.5367431640625e-07 18.16358757019043 L 7.497631072998047 1.198427200317383 Z" stroke="none" fill="#f17b00"/></g><g transform="translate(155.503 -1.198)" fill="none"><path d="M7.5,1.2h7.44L7.44,18.164H0Z" stroke="none"/><path d="M 8.148994445800781 2.198427200317383 L 1.535250663757324 17.16358757019043 L 6.788987159729004 17.16358757019043 L 13.40273189544678 2.198427200317383 L 8.148994445800781 2.198427200317383 M 7.497631072998047 1.198427200317383 L 14.93798160552979 1.198427200317383 L 7.440351486206055 18.16358757019043 L 9.5367431640625e-07 18.16358757019043 L 7.497631072998047 1.198427200317383 Z" stroke="none" fill="#f17b00"/></g><g transform="translate(77.38 -1.198)" fill="none"><path d="M7.5,1.2h7.44L7.44,18.164H0Z" stroke="none"/><path d="M 8.148994445800781 2.198427200317383 L 1.535250663757324 17.16358757019043 L 6.788987159729004 17.16358757019043 L 13.40273189544678 2.198427200317383 L 8.148994445800781 2.198427200317383 M 7.497631072998047 1.198427200317383 L 14.93798160552979 1.198427200317383 L 7.440351486206055 18.16358757019043 L 9.5367431640625e-07 18.16358757019043 L 7.497631072998047 1.198427200317383 Z" stroke="none" fill="#f17b00"/></g><g transform="translate(232.883 -1.198)" fill="none"><path d="M7.5,1.2h7.44L7.44,18.164H0Z" stroke="none"/><path d="M 8.148994445800781 2.198427200317383 L 1.535250663757324 17.16358757019043 L 6.788987159729004 17.16358757019043 L 13.40273189544678 2.198427200317383 L 8.148994445800781 2.198427200317383 M 7.497631072998047 1.198427200317383 L 14.93798160552979 1.198427200317383 L 7.440351486206055 18.16358757019043 L 9.5367431640625e-07 18.16358757019043 L 7.497631072998047 1.198427200317383 Z" stroke="none" fill="#f17b00"/></g><g transform="translate(38.69 -1.198)" fill="none"><path d="M7.5,1.2h7.44L7.44,18.164H0Z" stroke="none"/><path d="M 8.148994445800781 2.198427200317383 L 1.535250663757324 17.16358757019043 L 6.788987159729004 17.16358757019043 L 13.40273189544678 2.198427200317383 L 8.148994445800781 2.198427200317383 M 7.497631072998047 1.198427200317383 L 14.93798160552979 1.198427200317383 L 7.440351486206055 18.16358757019043 L 9.5367431640625e-07 18.16358757019043 L 7.497631072998047 1.198427200317383 Z" stroke="none" fill="#f17b00"/></g><g transform="translate(194.193 -1.198)" fill="none"><path d="M7.5,1.2h7.44L7.44,18.164H0Z" stroke="none"/><path d="M 8.148994445800781 2.198427200317383 L 1.535250663757324 17.16358757019043 L 6.788987159729004 17.16358757019043 L 13.40273189544678 2.198427200317383 L 8.148994445800781 2.198427200317383 M 7.497631072998047 1.198427200317383 L 14.93798160552979 1.198427200317383 L 7.440351486206055 18.16358757019043 L 9.5367431640625e-07 18.16358757019043 L 7.497631072998047 1.198427200317383 Z" stroke="none" fill="#f17b00"/></g><g transform="translate(116.069 -1.198)" fill="none"><path d="M7.5,1.2h7.44L7.44,18.164H0Z" stroke="none"/><path d="M 8.148994445800781 2.198427200317383 L 1.535250663757324 17.16358757019043 L 6.788987159729004 17.16358757019043 L 13.40273189544678 2.198427200317383 L 8.148994445800781 2.198427200317383 M 7.497631072998047 1.198427200317383 L 14.93798160552979 1.198427200317383 L 7.440351486206055 18.16358757019043 L 9.5367431640625e-07 18.16358757019043 L 7.497631072998047 1.198427200317383 Z" stroke="none" fill="#f17b00"/></g><g transform="translate(271.573 -1.198)" fill="none"><path d="M7.5,1.2h7.44L7.44,18.164H0Z" stroke="none"/><path d="M 8.148994445800781 2.198427200317383 L 1.535250663757324 17.16358757019043 L 6.788987159729004 17.16358757019043 L 13.40273189544678 2.198427200317383 L 8.148994445800781 2.198427200317383 M 7.497631072998047 1.198427200317383 L 14.93798160552979 1.198427200317383 L 7.440351486206055 18.16358757019043 L 9.5367431640625e-07 18.16358757019043 L 7.497631072998047 1.198427200317383 Z" stroke="none" fill="#f17b00"/></g><g transform="translate(19.345 -1.198)" fill="none"><path d="M7.5,1.2h7.44L7.44,18.164H0Z" stroke="none"/><path d="M 8.148994445800781 2.198427200317383 L 1.535250663757324 17.16358757019043 L 6.788987159729004 17.16358757019043 L 13.40273189544678 2.198427200317383 L 8.148994445800781 2.198427200317383 M 7.497631072998047 1.198427200317383 L 14.93798160552979 1.198427200317383 L 7.440351486206055 18.16358757019043 L 9.5367431640625e-07 18.16358757019043 L 7.497631072998047 1.198427200317383 Z" stroke="none" fill="#f17b00"/></g><g transform="translate(174.848 -1.198)" fill="none"><path d="M7.5,1.2h7.44L7.44,18.164H0Z" stroke="none"/><path d="M 8.148994445800781 2.198427200317383 L 1.535250663757324 17.16358757019043 L 6.788987159729004 17.16358757019043 L 13.40273189544678 2.198427200317383 L 8.148994445800781 2.198427200317383 M 7.497631072998047 1.198427200317383 L 14.93798160552979 1.198427200317383 L 7.440351486206055 18.16358757019043 L 9.5367431640625e-07 18.16358757019043 L 7.497631072998047 1.198427200317383 Z" stroke="none" fill="#f17b00"/></g><g transform="translate(96.725 -1.198)" fill="none"><path d="M7.5,1.2h7.44L7.44,18.164H0Z" stroke="none"/><path d="M 8.148994445800781 2.198427200317383 L 1.535250663757324 17.16358757019043 L 6.788987159729004 17.16358757019043 L 13.40273189544678 2.198427200317383 L 8.148994445800781 2.198427200317383 M 7.497631072998047 1.198427200317383 L 14.93798160552979 1.198427200317383 L 7.440351486206055 18.16358757019043 L 9.5367431640625e-07 18.16358757019043 L 7.497631072998047 1.198427200317383 Z" stroke="none" fill="#f17b00"/></g><g transform="translate(252.228 -1.198)" fill="none"><path d="M7.5,1.2h7.44L7.44,18.164H0Z" stroke="none"/><path d="M 8.148994445800781 2.198427200317383 L 1.535250663757324 17.16358757019043 L 6.788987159729004 17.16358757019043 L 13.40273189544678 2.198427200317383 L 8.148994445800781 2.198427200317383 M 7.497631072998047 1.198427200317383 L 14.93798160552979 1.198427200317383 L 7.440351486206055 18.16358757019043 L 9.5367431640625e-07 18.16358757019043 L 7.497631072998047 1.198427200317383 Z" stroke="none" fill="#f17b00"/></g><g transform="translate(58.035 -1.198)" fill="none"><path d="M7.5,1.2h7.44L7.44,18.164H0Z" stroke="none"/><path d="M 8.148994445800781 2.198427200317383 L 1.535250663757324 17.16358757019043 L 6.788987159729004 17.16358757019043 L 13.40273189544678 2.198427200317383 L 8.148994445800781 2.198427200317383 M 7.497631072998047 1.198427200317383 L 14.93798160552979 1.198427200317383 L 7.440351486206055 18.16358757019043 L 9.5367431640625e-07 18.16358757019043 L 7.497631072998047 1.198427200317383 Z" stroke="none" fill="#f17b00"/></g><g transform="translate(213.538 -1.198)" fill="none"><path d="M7.5,1.2h7.44L7.44,18.164H0Z" stroke="none"/><path d="M 8.148994445800781 2.198427200317383 L 1.535250663757324 17.16358757019043 L 6.788987159729004 17.16358757019043 L 13.40273189544678 2.198427200317383 L 8.148994445800781 2.198427200317383 M 7.497631072998047 1.198427200317383 L 14.93798160552979 1.198427200317383 L 7.440351486206055 18.16358757019043 L 9.5367431640625e-07 18.16358757019043 L 7.497631072998047 1.198427200317383 Z" stroke="none" fill="#f17b00"/></g><g transform="translate(135.414 -1.198)" fill="none"><path d="M7.5,1.2h7.44L7.44,18.164H0Z" stroke="none"/><path d="M 8.148994445800781 2.198427200317383 L 1.535250663757324 17.16358757019043 L 6.788987159729004 17.16358757019043 L 13.40273189544678 2.198427200317383 L 8.148994445800781 2.198427200317383 M 7.497631072998047 1.198427200317383 L 14.93798160552979 1.198427200317383 L 7.440351486206055 18.16358757019043 L 9.5367431640625e-07 18.16358757019043 L 7.497631072998047 1.198427200317383 Z" stroke="none" fill="#f17b00"/></g><g transform="translate(290.918 -1.198)" fill="none"><path d="M7.5,1.2h7.44L7.44,18.164H0Z" stroke="none"/><path d="M 8.148994445800781 2.198427200317383 L 1.535250663757324 17.16358757019043 L 6.788987159729004 17.16358757019043 L 13.40273189544678 2.198427200317383 L 8.148994445800781 2.198427200317383 M 7.497631072998047 1.198427200317383 L 14.93798160552979 1.198427200317383 L 7.440351486206055 18.16358757019043 L 9.5367431640625e-07 18.16358757019043 L 7.497631072998047 1.198427200317383 Z" stroke="none" fill="#f17b00"/></g><g transform="translate(9.672 -1.198)" fill="none"><path d="M7.5,1.2h7.44L7.44,18.164H0Z" stroke="none"/><path d="M 8.148994445800781 2.198427200317383 L 1.535250663757324 17.16358757019043 L 6.788987159729004 17.16358757019043 L 13.40273189544678 2.198427200317383 L 8.148994445800781 2.198427200317383 M 7.497631072998047 1.198427200317383 L 14.93798160552979 1.198427200317383 L 7.440351486206055 18.16358757019043 L 9.5367431640625e-07 18.16358757019043 L 7.497631072998047 1.198427200317383 Z" stroke="none" fill="#f17b00"/></g><g transform="translate(165.176 -1.198)" fill="none"><path d="M7.5,1.2h7.44L7.44,18.164H0Z" stroke="none"/><path d="M 8.148994445800781 2.198427200317383 L 1.535250663757324 17.16358757019043 L 6.788987159729004 17.16358757019043 L 13.40273189544678 2.198427200317383 L 8.148994445800781 2.198427200317383 M 7.497631072998047 1.198427200317383 L 14.93798160552979 1.198427200317383 L 7.440351486206055 18.16358757019043 L 9.5367431640625e-07 18.16358757019043 L 7.497631072998047 1.198427200317383 Z" stroke="none" fill="#f17b00"/></g><g transform="translate(87.052 -1.198)" fill="none"><path d="M7.5,1.2h7.44L7.44,18.164H0Z" stroke="none"/><path d="M 8.148994445800781 2.198427200317383 L 1.535250663757324 17.16358757019043 L 6.788987159729004 17.16358757019043 L 13.40273189544678 2.198427200317383 L 8.148994445800781 2.198427200317383 M 7.497631072998047 1.198427200317383 L 14.93798160552979 1.198427200317383 L 7.440351486206055 18.16358757019043 L 9.5367431640625e-07 18.16358757019043 L 7.497631072998047 1.198427200317383 Z" stroke="none" fill="#f17b00"/></g><g transform="translate(242.555 -1.198)" fill="none"><path d="M7.5,1.2h7.44L7.44,18.164H0Z" stroke="none"/><path d="M 8.148994445800781 2.198427200317383 L 1.535250663757324 17.16358757019043 L 6.788987159729004 17.16358757019043 L 13.40273189544678 2.198427200317383 L 8.148994445800781 2.198427200317383 M 7.497631072998047 1.198427200317383 L 14.93798160552979 1.198427200317383 L 7.440351486206055 18.16358757019043 L 9.5367431640625e-07 18.16358757019043 L 7.497631072998047 1.198427200317383 Z" stroke="none" fill="#f17b00"/></g><g transform="translate(48.362 -1.198)" fill="none"><path d="M7.5,1.2h7.44L7.44,18.164H0Z" stroke="none"/><path d="M 8.148994445800781 2.198427200317383 L 1.535250663757324 17.16358757019043 L 6.788987159729004 17.16358757019043 L 13.40273189544678 2.198427200317383 L 8.148994445800781 2.198427200317383 M 7.497631072998047 1.198427200317383 L 14.93798160552979 1.198427200317383 L 7.440351486206055 18.16358757019043 L 9.5367431640625e-07 18.16358757019043 L 7.497631072998047 1.198427200317383 Z" stroke="none" fill="#f17b00"/></g><g transform="translate(203.866 -1.198)" fill="none"><path d="M7.5,1.2h7.44L7.44,18.164H0Z" stroke="none"/><path d="M 8.148994445800781 2.198427200317383 L 1.535250663757324 17.16358757019043 L 6.788987159729004 17.16358757019043 L 13.40273189544678 2.198427200317383 L 8.148994445800781 2.198427200317383 M 7.497631072998047 1.198427200317383 L 14.93798160552979 1.198427200317383 L 7.440351486206055 18.16358757019043 L 9.5367431640625e-07 18.16358757019043 L 7.497631072998047 1.198427200317383 Z" stroke="none" fill="#f17b00"/></g><g transform="translate(125.742 -1.198)" fill="none"><path d="M7.5,1.2h7.44L7.44,18.164H0Z" stroke="none"/><path d="M 8.148994445800781 2.198427200317383 L 1.535250663757324 17.16358757019043 L 6.788987159729004 17.16358757019043 L 13.40273189544678 2.198427200317383 L 8.148994445800781 2.198427200317383 M 7.497631072998047 1.198427200317383 L 14.93798160552979 1.198427200317383 L 7.440351486206055 18.16358757019043 L 9.5367431640625e-07 18.16358757019043 L 7.497631072998047 1.198427200317383 Z" stroke="none" fill="#f17b00"/></g><g transform="translate(281.245 -1.198)" fill="none"><path d="M7.5,1.2h7.44L7.44,18.164H0Z" stroke="none"/><path d="M 8.148994445800781 2.198427200317383 L 1.535250663757324 17.16358757019043 L 6.788987159729004 17.16358757019043 L 13.40273189544678 2.198427200317383 L 8.148994445800781 2.198427200317383 M 7.497631072998047 1.198427200317383 L 14.93798160552979 1.198427200317383 L 7.440351486206055 18.16358757019043 L 9.5367431640625e-07 18.16358757019043 L 7.497631072998047 1.198427200317383 Z" stroke="none" fill="#f17b00"/></g><g transform="translate(29.017 -1.198)" fill="none"><path d="M7.5,1.2h7.44L7.44,18.164H0Z" stroke="none"/><path d="M 8.148994445800781 2.198427200317383 L 1.535250663757324 17.16358757019043 L 6.788987159729004 17.16358757019043 L 13.40273189544678 2.198427200317383 L 8.148994445800781 2.198427200317383 M 7.497631072998047 1.198427200317383 L 14.93798160552979 1.198427200317383 L 7.440351486206055 18.16358757019043 L 9.5367431640625e-07 18.16358757019043 L 7.497631072998047 1.198427200317383 Z" stroke="none" fill="#f17b00"/></g><g transform="translate(184.521 -1.198)" fill="none"><path d="M7.5,1.2h7.44L7.44,18.164H0Z" stroke="none"/><path d="M 8.148994445800781 2.198427200317383 L 1.535250663757324 17.16358757019043 L 6.788987159729004 17.16358757019043 L 13.40273189544678 2.198427200317383 L 8.148994445800781 2.198427200317383 M 7.497631072998047 1.198427200317383 L 14.93798160552979 1.198427200317383 L 7.440351486206055 18.16358757019043 L 9.5367431640625e-07 18.16358757019043 L 7.497631072998047 1.198427200317383 Z" stroke="none" fill="#f17b00"/></g><g transform="translate(106.397 -1.198)" fill="none"><path d="M7.5,1.2h7.44L7.44,18.164H0Z" stroke="none"/><path d="M 8.148994445800781 2.198427200317383 L 1.535250663757324 17.16358757019043 L 6.788987159729004 17.16358757019043 L 13.40273189544678 2.198427200317383 L 8.148994445800781 2.198427200317383 M 7.497631072998047 1.198427200317383 L 14.93798160552979 1.198427200317383 L 7.440351486206055 18.16358757019043 L 9.5367431640625e-07 18.16358757019043 L 7.497631072998047 1.198427200317383 Z" stroke="none" fill="#f17b00"/></g><g transform="translate(261.9 -1.198)" fill="none"><path d="M7.5,1.2h7.44L7.44,18.164H0Z" stroke="none"/><path d="M 8.148994445800781 2.198427200317383 L 1.535250663757324 17.16358757019043 L 6.788987159729004 17.16358757019043 L 13.40273189544678 2.198427200317383 L 8.148994445800781 2.198427200317383 M 7.497631072998047 1.198427200317383 L 14.93798160552979 1.198427200317383 L 7.440351486206055 18.16358757019043 L 9.5367431640625e-07 18.16358757019043 L 7.497631072998047 1.198427200317383 Z" stroke="none" fill="#f17b00"/></g><g transform="translate(67.707 -1.198)" fill="none"><path d="M7.5,1.2h7.44L7.44,18.164H0Z" stroke="none"/><path d="M 8.148994445800781 2.198427200317383 L 1.535250663757324 17.16358757019043 L 6.788987159729004 17.16358757019043 L 13.40273189544678 2.198427200317383 L 8.148994445800781 2.198427200317383 M 7.497631072998047 1.198427200317383 L 14.93798160552979 1.198427200317383 L 7.440351486206055 18.16358757019043 L 9.5367431640625e-07 18.16358757019043 L 7.497631072998047 1.198427200317383 Z" stroke="none" fill="#f17b00"/></g><g transform="translate(223.21 -1.198)" fill="none"><path d="M7.5,1.2h7.44L7.44,18.164H0Z" stroke="none"/><path d="M 8.148994445800781 2.198427200317383 L 1.535250663757324 17.16358757019043 L 6.788987159729004 17.16358757019043 L 13.40273189544678 2.198427200317383 L 8.148994445800781 2.198427200317383 M 7.497631072998047 1.198427200317383 L 14.93798160552979 1.198427200317383 L 7.440351486206055 18.16358757019043 L 9.5367431640625e-07 18.16358757019043 L 7.497631072998047 1.198427200317383 Z" stroke="none" fill="#f17b00"/></g><g transform="translate(145.087 -1.198)" fill="none"><path d="M7.5,1.2h7.44L7.44,18.164H0Z" stroke="none"/><path d="M 8.148994445800781 2.198427200317383 L 1.535250663757324 17.16358757019043 L 6.788987159729004 17.16358757019043 L 13.40273189544678 2.198427200317383 L 8.148994445800781 2.198427200317383 M 7.497631072998047 1.198427200317383 L 14.93798160552979 1.198427200317383 L 7.440351486206055 18.16358757019043 L 9.5367431640625e-07 18.16358757019043 L 7.497631072998047 1.198427200317383 Z" stroke="none" fill="#f17b00"/></g><g transform="translate(300.59 -1.198)" fill="none"><path d="M7.5,1.2h7.44L7.44,18.164H0Z" stroke="none"/><path d="M 8.148994445800781 2.198427200317383 L 1.535250663757324 17.16358757019043 L 6.788987159729004 17.16358757019043 L 13.40273189544678 2.198427200317383 L 8.148994445800781 2.198427200317383 M 7.497631072998047 1.198427200317383 L 14.93798160552979 1.198427200317383 L 7.440351486206055 18.16358757019043 L 9.5367431640625e-07 18.16358757019043 L 7.497631072998047 1.198427200317383 Z" stroke="none" fill="#f17b00"/></g></g><g transform="translate(35.792 127.032)"><g transform="translate(0 -1.198)" fill="none"><path d="M7.5,18.311h7.44L7.44,1.2H0Z" stroke="none"/><path d="M 13.40808010101318 17.31122589111328 L 6.786709785461426 2.198425531387329 L 1.529902815818787 2.198425531387329 L 8.151272773742676 17.31122589111328 L 13.40808010101318 17.31122589111328 M 14.93798160552979 18.31122589111328 L 7.497631072998047 18.31122589111328 L 1.279602088288812e-06 1.198425650596619 L 7.440351486206055 1.198425650596619 L 14.93798160552979 18.31122589111328 Z" stroke="none" fill="#f17b00"/></g><g transform="translate(155.503 -1.198)" fill="none"><path d="M7.5,18.311h7.44L7.44,1.2H0Z" stroke="none"/><path d="M 13.40808010101318 17.31122589111328 L 6.786709785461426 2.198425531387329 L 1.529902815818787 2.198425531387329 L 8.151272773742676 17.31122589111328 L 13.40808010101318 17.31122589111328 M 14.93798160552979 18.31122589111328 L 7.497631072998047 18.31122589111328 L 1.279602088288812e-06 1.198425650596619 L 7.440351486206055 1.198425650596619 L 14.93798160552979 18.31122589111328 Z" stroke="none" fill="#f17b00"/></g><g transform="translate(77.38 -1.198)" fill="none"><path d="M7.5,18.311h7.44L7.44,1.2H0Z" stroke="none"/><path d="M 13.40808010101318 17.31122589111328 L 6.786709785461426 2.198425531387329 L 1.529902815818787 2.198425531387329 L 8.151272773742676 17.31122589111328 L 13.40808010101318 17.31122589111328 M 14.93798160552979 18.31122589111328 L 7.497631072998047 18.31122589111328 L 1.279602088288812e-06 1.198425650596619 L 7.440351486206055 1.198425650596619 L 14.93798160552979 18.31122589111328 Z" stroke="none" fill="#f17b00"/></g><g transform="translate(232.883 -1.198)" fill="none"><path d="M7.5,18.311h7.44L7.44,1.2H0Z" stroke="none"/><path d="M 13.40808010101318 17.31122589111328 L 6.786709785461426 2.198425531387329 L 1.529902815818787 2.198425531387329 L 8.151272773742676 17.31122589111328 L 13.40808010101318 17.31122589111328 M 14.93798160552979 18.31122589111328 L 7.497631072998047 18.31122589111328 L 1.279602088288812e-06 1.198425650596619 L 7.440351486206055 1.198425650596619 L 14.93798160552979 18.31122589111328 Z" stroke="none" fill="#f17b00"/></g><g transform="translate(38.69 -1.198)" fill="none"><path d="M7.5,18.311h7.44L7.44,1.2H0Z" stroke="none"/><path d="M 13.40808010101318 17.31122589111328 L 6.786709785461426 2.198425531387329 L 1.529902815818787 2.198425531387329 L 8.151272773742676 17.31122589111328 L 13.40808010101318 17.31122589111328 M 14.93798160552979 18.31122589111328 L 7.497631072998047 18.31122589111328 L 1.279602088288812e-06 1.198425650596619 L 7.440351486206055 1.198425650596619 L 14.93798160552979 18.31122589111328 Z" stroke="none" fill="#f17b00"/></g><g transform="translate(194.193 -1.198)" fill="none"><path d="M7.5,18.311h7.44L7.44,1.2H0Z" stroke="none"/><path d="M 13.40808010101318 17.31122589111328 L 6.786709785461426 2.198425531387329 L 1.529902815818787 2.198425531387329 L 8.151272773742676 17.31122589111328 L 13.40808010101318 17.31122589111328 M 14.93798160552979 18.31122589111328 L 7.497631072998047 18.31122589111328 L 1.279602088288812e-06 1.198425650596619 L 7.440351486206055 1.198425650596619 L 14.93798160552979 18.31122589111328 Z" stroke="none" fill="#f17b00"/></g><g transform="translate(116.069 -1.198)" fill="none"><path d="M7.5,18.311h7.44L7.44,1.2H0Z" stroke="none"/><path d="M 13.40808010101318 17.31122589111328 L 6.786709785461426 2.198425531387329 L 1.529902815818787 2.198425531387329 L 8.151272773742676 17.31122589111328 L 13.40808010101318 17.31122589111328 M 14.93798160552979 18.31122589111328 L 7.497631072998047 18.31122589111328 L 1.279602088288812e-06 1.198425650596619 L 7.440351486206055 1.198425650596619 L 14.93798160552979 18.31122589111328 Z" stroke="none" fill="#f17b00"/></g><g transform="translate(271.573 -1.198)" fill="none"><path d="M7.5,18.311h7.44L7.44,1.2H0Z" stroke="none"/><path d="M 13.40808010101318 17.31122589111328 L 6.786709785461426 2.198425531387329 L 1.529902815818787 2.198425531387329 L 8.151272773742676 17.31122589111328 L 13.40808010101318 17.31122589111328 M 14.93798160552979 18.31122589111328 L 7.497631072998047 18.31122589111328 L 1.279602088288812e-06 1.198425650596619 L 7.440351486206055 1.198425650596619 L 14.93798160552979 18.31122589111328 Z" stroke="none" fill="#f17b00"/></g><g transform="translate(19.345 -1.198)" fill="none"><path d="M7.5,18.311h7.44L7.44,1.2H0Z" stroke="none"/><path d="M 13.40808010101318 17.31122589111328 L 6.786709785461426 2.198425531387329 L 1.529902815818787 2.198425531387329 L 8.151272773742676 17.31122589111328 L 13.40808010101318 17.31122589111328 M 14.93798160552979 18.31122589111328 L 7.497631072998047 18.31122589111328 L 1.279602088288812e-06 1.198425650596619 L 7.440351486206055 1.198425650596619 L 14.93798160552979 18.31122589111328 Z" stroke="none" fill="#f17b00"/></g><g transform="translate(174.848 -1.198)" fill="none"><path d="M7.5,18.311h7.44L7.44,1.2H0Z" stroke="none"/><path d="M 13.40808010101318 17.31122589111328 L 6.786709785461426 2.198425531387329 L 1.529902815818787 2.198425531387329 L 8.151272773742676 17.31122589111328 L 13.40808010101318 17.31122589111328 M 14.93798160552979 18.31122589111328 L 7.497631072998047 18.31122589111328 L 1.279602088288812e-06 1.198425650596619 L 7.440351486206055 1.198425650596619 L 14.93798160552979 18.31122589111328 Z" stroke="none" fill="#f17b00"/></g><g transform="translate(96.725 -1.198)" fill="none"><path d="M7.5,18.311h7.44L7.44,1.2H0Z" stroke="none"/><path d="M 13.40808010101318 17.31122589111328 L 6.786709785461426 2.198425531387329 L 1.529902815818787 2.198425531387329 L 8.151272773742676 17.31122589111328 L 13.40808010101318 17.31122589111328 M 14.93798160552979 18.31122589111328 L 7.497631072998047 18.31122589111328 L 1.279602088288812e-06 1.198425650596619 L 7.440351486206055 1.198425650596619 L 14.93798160552979 18.31122589111328 Z" stroke="none" fill="#f17b00"/></g><g transform="translate(252.228 -1.198)" fill="none"><path d="M7.5,18.311h7.44L7.44,1.2H0Z" stroke="none"/><path d="M 13.40808010101318 17.31122589111328 L 6.786709785461426 2.198425531387329 L 1.529902815818787 2.198425531387329 L 8.151272773742676 17.31122589111328 L 13.40808010101318 17.31122589111328 M 14.93798160552979 18.31122589111328 L 7.497631072998047 18.31122589111328 L 1.279602088288812e-06 1.198425650596619 L 7.440351486206055 1.198425650596619 L 14.93798160552979 18.31122589111328 Z" stroke="none" fill="#f17b00"/></g><g transform="translate(58.035 -1.198)" fill="none"><path d="M7.5,18.311h7.44L7.44,1.2H0Z" stroke="none"/><path d="M 13.40808010101318 17.31122589111328 L 6.786709785461426 2.198425531387329 L 1.529902815818787 2.198425531387329 L 8.151272773742676 17.31122589111328 L 13.40808010101318 17.31122589111328 M 14.93798160552979 18.31122589111328 L 7.497631072998047 18.31122589111328 L 1.279602088288812e-06 1.198425650596619 L 7.440351486206055 1.198425650596619 L 14.93798160552979 18.31122589111328 Z" stroke="none" fill="#f17b00"/></g><g transform="translate(213.538 -1.198)" fill="none"><path d="M7.5,18.311h7.44L7.44,1.2H0Z" stroke="none"/><path d="M 13.40808010101318 17.31122589111328 L 6.786709785461426 2.198425531387329 L 1.529902815818787 2.198425531387329 L 8.151272773742676 17.31122589111328 L 13.40808010101318 17.31122589111328 M 14.93798160552979 18.31122589111328 L 7.497631072998047 18.31122589111328 L 1.279602088288812e-06 1.198425650596619 L 7.440351486206055 1.198425650596619 L 14.93798160552979 18.31122589111328 Z" stroke="none" fill="#f17b00"/></g><g transform="translate(135.414 -1.198)" fill="none"><path d="M7.5,18.311h7.44L7.44,1.2H0Z" stroke="none"/><path d="M 13.40808010101318 17.31122589111328 L 6.786709785461426 2.198425531387329 L 1.529902815818787 2.198425531387329 L 8.151272773742676 17.31122589111328 L 13.40808010101318 17.31122589111328 M 14.93798160552979 18.31122589111328 L 7.497631072998047 18.31122589111328 L 1.279602088288812e-06 1.198425650596619 L 7.440351486206055 1.198425650596619 L 14.93798160552979 18.31122589111328 Z" stroke="none" fill="#f17b00"/></g><g transform="translate(290.918 -1.198)" fill="none"><path d="M7.5,18.311h7.44L7.44,1.2H0Z" stroke="none"/><path d="M 13.40808010101318 17.31122589111328 L 6.786709785461426 2.198425531387329 L 1.529902815818787 2.198425531387329 L 8.151272773742676 17.31122589111328 L 13.40808010101318 17.31122589111328 M 14.93798160552979 18.31122589111328 L 7.497631072998047 18.31122589111328 L 1.279602088288812e-06 1.198425650596619 L 7.440351486206055 1.198425650596619 L 14.93798160552979 18.31122589111328 Z" stroke="none" fill="#f17b00"/></g><g transform="translate(9.672 -1.198)" fill="none"><path d="M7.5,18.311h7.44L7.44,1.2H0Z" stroke="none"/><path d="M 13.40808010101318 17.31122589111328 L 6.786709785461426 2.198425531387329 L 1.529902815818787 2.198425531387329 L 8.151272773742676 17.31122589111328 L 13.40808010101318 17.31122589111328 M 14.93798160552979 18.31122589111328 L 7.497631072998047 18.31122589111328 L 1.279602088288812e-06 1.198425650596619 L 7.440351486206055 1.198425650596619 L 14.93798160552979 18.31122589111328 Z" stroke="none" fill="#f17b00"/></g><g transform="translate(165.176 -1.198)" fill="none"><path d="M7.5,18.311h7.44L7.44,1.2H0Z" stroke="none"/><path d="M 13.40808010101318 17.31122589111328 L 6.786709785461426 2.198425531387329 L 1.529902815818787 2.198425531387329 L 8.151272773742676 17.31122589111328 L 13.40808010101318 17.31122589111328 M 14.93798160552979 18.31122589111328 L 7.497631072998047 18.31122589111328 L 1.279602088288812e-06 1.198425650596619 L 7.440351486206055 1.198425650596619 L 14.93798160552979 18.31122589111328 Z" stroke="none" fill="#f17b00"/></g><g transform="translate(87.052 -1.198)" fill="none"><path d="M7.5,18.311h7.44L7.44,1.2H0Z" stroke="none"/><path d="M 13.40808010101318 17.31122589111328 L 6.786709785461426 2.198425531387329 L 1.529902815818787 2.198425531387329 L 8.151272773742676 17.31122589111328 L 13.40808010101318 17.31122589111328 M 14.93798160552979 18.31122589111328 L 7.497631072998047 18.31122589111328 L 1.279602088288812e-06 1.198425650596619 L 7.440351486206055 1.198425650596619 L 14.93798160552979 18.31122589111328 Z" stroke="none" fill="#f17b00"/></g><g transform="translate(242.555 -1.198)" fill="none"><path d="M7.5,18.311h7.44L7.44,1.2H0Z" stroke="none"/><path d="M 13.40808010101318 17.31122589111328 L 6.786709785461426 2.198425531387329 L 1.529902815818787 2.198425531387329 L 8.151272773742676 17.31122589111328 L 13.40808010101318 17.31122589111328 M 14.93798160552979 18.31122589111328 L 7.497631072998047 18.31122589111328 L 1.279602088288812e-06 1.198425650596619 L 7.440351486206055 1.198425650596619 L 14.93798160552979 18.31122589111328 Z" stroke="none" fill="#f17b00"/></g><g transform="translate(48.362 -1.198)" fill="none"><path d="M7.5,18.311h7.44L7.44,1.2H0Z" stroke="none"/><path d="M 13.40808010101318 17.31122589111328 L 6.786709785461426 2.198425531387329 L 1.529902815818787 2.198425531387329 L 8.151272773742676 17.31122589111328 L 13.40808010101318 17.31122589111328 M 14.93798160552979 18.31122589111328 L 7.497631072998047 18.31122589111328 L 1.279602088288812e-06 1.198425650596619 L 7.440351486206055 1.198425650596619 L 14.93798160552979 18.31122589111328 Z" stroke="none" fill="#f17b00"/></g><g transform="translate(203.866 -1.198)" fill="none"><path d="M7.5,18.311h7.44L7.44,1.2H0Z" stroke="none"/><path d="M 13.40808010101318 17.31122589111328 L 6.786709785461426 2.198425531387329 L 1.529902815818787 2.198425531387329 L 8.151272773742676 17.31122589111328 L 13.40808010101318 17.31122589111328 M 14.93798160552979 18.31122589111328 L 7.497631072998047 18.31122589111328 L 1.279602088288812e-06 1.198425650596619 L 7.440351486206055 1.198425650596619 L 14.93798160552979 18.31122589111328 Z" stroke="none" fill="#f17b00"/></g><g transform="translate(125.742 -1.198)" fill="none"><path d="M7.5,18.311h7.44L7.44,1.2H0Z" stroke="none"/><path d="M 13.40808010101318 17.31122589111328 L 6.786709785461426 2.198425531387329 L 1.529902815818787 2.198425531387329 L 8.151272773742676 17.31122589111328 L 13.40808010101318 17.31122589111328 M 14.93798160552979 18.31122589111328 L 7.497631072998047 18.31122589111328 L 1.279602088288812e-06 1.198425650596619 L 7.440351486206055 1.198425650596619 L 14.93798160552979 18.31122589111328 Z" stroke="none" fill="#f17b00"/></g><g transform="translate(281.245 -1.198)" fill="none"><path d="M7.5,18.311h7.44L7.44,1.2H0Z" stroke="none"/><path d="M 13.40808010101318 17.31122589111328 L 6.786709785461426 2.198425531387329 L 1.529902815818787 2.198425531387329 L 8.151272773742676 17.31122589111328 L 13.40808010101318 17.31122589111328 M 14.93798160552979 18.31122589111328 L 7.497631072998047 18.31122589111328 L 1.279602088288812e-06 1.198425650596619 L 7.440351486206055 1.198425650596619 L 14.93798160552979 18.31122589111328 Z" stroke="none" fill="#f17b00"/></g><g transform="translate(29.017 -1.198)" fill="none"><path d="M7.5,18.311h7.44L7.44,1.2H0Z" stroke="none"/><path d="M 13.40808010101318 17.31122589111328 L 6.786709785461426 2.198425531387329 L 1.529902815818787 2.198425531387329 L 8.151272773742676 17.31122589111328 L 13.40808010101318 17.31122589111328 M 14.93798160552979 18.31122589111328 L 7.497631072998047 18.31122589111328 L 1.279602088288812e-06 1.198425650596619 L 7.440351486206055 1.198425650596619 L 14.93798160552979 18.31122589111328 Z" stroke="none" fill="#f17b00"/></g><g transform="translate(184.521 -1.198)" fill="none"><path d="M7.5,18.311h7.44L7.44,1.2H0Z" stroke="none"/><path d="M 13.40808010101318 17.31122589111328 L 6.786709785461426 2.198425531387329 L 1.529902815818787 2.198425531387329 L 8.151272773742676 17.31122589111328 L 13.40808010101318 17.31122589111328 M 14.93798160552979 18.31122589111328 L 7.497631072998047 18.31122589111328 L 1.279602088288812e-06 1.198425650596619 L 7.440351486206055 1.198425650596619 L 14.93798160552979 18.31122589111328 Z" stroke="none" fill="#f17b00"/></g><g transform="translate(106.397 -1.198)" fill="none"><path d="M7.5,18.311h7.44L7.44,1.2H0Z" stroke="none"/><path d="M 13.40808010101318 17.31122589111328 L 6.786709785461426 2.198425531387329 L 1.529902815818787 2.198425531387329 L 8.151272773742676 17.31122589111328 L 13.40808010101318 17.31122589111328 M 14.93798160552979 18.31122589111328 L 7.497631072998047 18.31122589111328 L 1.279602088288812e-06 1.198425650596619 L 7.440351486206055 1.198425650596619 L 14.93798160552979 18.31122589111328 Z" stroke="none" fill="#f17b00"/></g><g transform="translate(261.9 -1.198)" fill="none"><path d="M7.5,18.311h7.44L7.44,1.2H0Z" stroke="none"/><path d="M 13.40808010101318 17.31122589111328 L 6.786709785461426 2.198425531387329 L 1.529902815818787 2.198425531387329 L 8.151272773742676 17.31122589111328 L 13.40808010101318 17.31122589111328 M 14.93798160552979 18.31122589111328 L 7.497631072998047 18.31122589111328 L 1.279602088288812e-06 1.198425650596619 L 7.440351486206055 1.198425650596619 L 14.93798160552979 18.31122589111328 Z" stroke="none" fill="#f17b00"/></g><g transform="translate(67.707 -1.198)" fill="none"><path d="M7.5,18.311h7.44L7.44,1.2H0Z" stroke="none"/><path d="M 13.40808010101318 17.31122589111328 L 6.786709785461426 2.198425531387329 L 1.529902815818787 2.198425531387329 L 8.151272773742676 17.31122589111328 L 13.40808010101318 17.31122589111328 M 14.93798160552979 18.31122589111328 L 7.497631072998047 18.31122589111328 L 1.279602088288812e-06 1.198425650596619 L 7.440351486206055 1.198425650596619 L 14.93798160552979 18.31122589111328 Z" stroke="none" fill="#f17b00"/></g><g transform="translate(223.21 -1.198)" fill="none"><path d="M7.5,18.311h7.44L7.44,1.2H0Z" stroke="none"/><path d="M 13.40808010101318 17.31122589111328 L 6.786709785461426 2.198425531387329 L 1.529902815818787 2.198425531387329 L 8.151272773742676 17.31122589111328 L 13.40808010101318 17.31122589111328 M 14.93798160552979 18.31122589111328 L 7.497631072998047 18.31122589111328 L 1.279602088288812e-06 1.198425650596619 L 7.440351486206055 1.198425650596619 L 14.93798160552979 18.31122589111328 Z" stroke="none" fill="#f17b00"/></g><g transform="translate(145.087 -1.198)" fill="none"><path d="M7.5,18.311h7.44L7.44,1.2H0Z" stroke="none"/><path d="M 13.40808010101318 17.31122589111328 L 6.786709785461426 2.198425531387329 L 1.529902815818787 2.198425531387329 L 8.151272773742676 17.31122589111328 L 13.40808010101318 17.31122589111328 M 14.93798160552979 18.31122589111328 L 7.497631072998047 18.31122589111328 L 1.279602088288812e-06 1.198425650596619 L 7.440351486206055 1.198425650596619 L 14.93798160552979 18.31122589111328 Z" stroke="none" fill="#f17b00"/></g><g transform="translate(300.59 -1.198)" fill="none"><path d="M7.5,18.311h7.44L7.44,1.2H0Z" stroke="none"/><path d="M 13.40808010101318 17.31122589111328 L 6.786709785461426 2.198425531387329 L 1.529902815818787 2.198425531387329 L 8.151272773742676 17.31122589111328 L 13.40808010101318 17.31122589111328 M 14.93798160552979 18.31122589111328 L 7.497631072998047 18.31122589111328 L 1.279602088288812e-06 1.198425650596619 L 7.440351486206055 1.198425650596619 L 14.93798160552979 18.31122589111328 Z" stroke="none" fill="#f17b00"/></g></g></g></svg>