<svg xmlns="http://www.w3.org/2000/svg" viewBox="0 0 315.53 214.13"><defs><style>.a{isolation:isolate;}.b{fill:#1a0d06;}.c{fill:#f17b00;}.d{fill:none;}</style></defs><title>title-mobile</title><g class="a"><g class="a"><path class="b" d="M64.74,43.37h4.85L64.41,77H56.54l-5.19-33.6h5.33l4,27.41Z" transform="translate(-7.79 0)"/><path class="b" d="M81.21,77l-.91-6.1H73.82L72.9,77H68.06l5.37-33.6h7.73L86.54,77ZM79.58,66.31,77,49.32l-2.54,17Z" transform="translate(-7.79 0)"/><path class="b" d="M92.87,43.37v28.8h8.69V77h-14V43.37Z" transform="translate(-7.79 0)"/><path class="b" d="M115,57.53v4.8h-7.25v9.84h9.12V77h-14.4V43.37h14.4v4.8h-9.12v9.36Z" transform="translate(-7.79 0)"/><path class="b" d="M139.58,43.37v4.8h-5.53V77h-5.28V48.17h-5.52v-4.8Z" transform="translate(-7.79 0)"/><path class="b" d="M145.53,69.29c0,2.17.91,3.26,2.73,3.26S151,71.46,151,69.29V43.37h5V69a8.9,8.9,0,0,1-2,6.27,9,9,0,0,1-11.71,0,9,9,0,0,1-2-6.27V43.37h5.28Z" transform="translate(-7.79 0)"/><path class="b" d="M166.55,43.37q3.93,0,5.9,2.11c1.32,1.41,2,3.47,2,6.19v17c0,2.72-.65,4.79-2,6.2S169.17,77,166.55,77H158.2V43.37Zm-3.07,28.8h3a2.58,2.58,0,0,0,2-.77,3.68,3.68,0,0,0,.69-2.5V51.43a3.67,3.67,0,0,0-.69-2.49,2.54,2.54,0,0,0-2-.77h-3Z" transform="translate(-7.79 0)"/><path class="b" d="M178,45.19a9.13,9.13,0,0,1,11.91,0A8.81,8.81,0,0,1,192,51.43V68.9a8.81,8.81,0,0,1-2.06,6.24,9.13,9.13,0,0,1-11.91,0A8.81,8.81,0,0,1,176,68.9V51.43A8.81,8.81,0,0,1,178,45.19ZM184,72.55q2.75,0,2.74-3.31V51.1q0-3.32-2.74-3.32t-2.73,3.32V69.24Q181.24,72.56,184,72.55Z" transform="translate(-7.79 0)"/><path class="b" d="M213.73,45.48q2,2.12,2,6.19V56q0,4.08-2,6.19t-5.9,2.11h-2.5V77h-5.28V43.37h7.78Q211.76,43.37,213.73,45.48Zm-8.4,14.06h2.5a2.48,2.48,0,0,0,1.94-.72,3.58,3.58,0,0,0,.65-2.44v-5a3.6,3.6,0,0,0-.65-2.45,2.48,2.48,0,0,0-1.94-.72h-2.5Z" transform="translate(-7.79 0)"/><path class="b" d="M227.89,77l-.91-6.1H220.5l-.91,6.1h-4.85l5.38-33.6h7.73L233.22,77Zm-1.63-10.66-2.54-17-2.55,17Z" transform="translate(-7.79 0)"/><path class="b" d="M244.93,75.43a24.56,24.56,0,0,1-.09-2.59V67.56a5.15,5.15,0,0,0-.82-3.29,3.25,3.25,0,0,0-2.64-1h-1.82V77h-5.28V43.37h8q4.08,0,5.95,1.89c1.25,1.27,1.87,3.21,1.87,5.84v2.64q0,5.17-3.46,6.81a4.85,4.85,0,0,1,2.69,2.57,11,11,0,0,1,.82,4.58v5.19c0,1,0,1.73.09,2.33a6.26,6.26,0,0,0,.48,1.75h-5.37A8.49,8.49,0,0,1,244.93,75.43Zm-5.37-16.94h2.06a3.15,3.15,0,0,0,2.38-.82,3.82,3.82,0,0,0,.79-2.73V51.62a4.3,4.3,0,0,0-.65-2.64,2.45,2.45,0,0,0-2-.81h-2.54Z" transform="translate(-7.79 0)"/><path class="b" d="M263.94,77l-.91-6.1h-6.48l-.91,6.1h-4.85l5.38-33.6h7.72L269.27,77Zm-1.63-10.66-2.54-17-2.55,17Z" transform="translate(-7.79 0)"/></g><g class="a"><path class="c" d="M62.37,106.3v4.8H55.55V125H50.27V91.37h14v4.8H55.55V106.3Z" transform="translate(-7.79 0)"/><path class="c" d="M77.92,105.53v4.8H70.67v9.84h9.12V125H65.39V91.37h14.4v4.8H70.67v9.36Z" transform="translate(-7.79 0)"/><path class="c" d="M97,116.9a9,9,0,0,1-2,6.27,7.6,7.6,0,0,1-5.86,2.18,7.58,7.58,0,0,1-5.85-2.18,8.9,8.9,0,0,1-2-6.27V99.43a8.86,8.86,0,0,1,2-6.26A7.54,7.54,0,0,1,89.1,91,7.57,7.57,0,0,1,95,93.17a8.91,8.91,0,0,1,2,6.26v3.27H92V99.1q0-3.31-2.73-3.32T86.51,99.1v18.14c0,2.18.91,3.26,2.74,3.26S92,119.42,92,117.24v-4.8h5Z" transform="translate(-7.79 0)"/><path class="c" d="M98.8,125V91.37h5.28v14.4h6V91.37h5.38V125h-5.38v-14.4h-6V125Z" transform="translate(-7.79 0)"/><path class="c" d="M129.66,125l-.91-6.1h-6.48l-.91,6.1h-4.85l5.38-33.6h7.72L135,125ZM128,114.31l-2.54-17-2.55,17Z" transform="translate(-7.79 0)"/><path class="c" d="M146.7,123.43a24.56,24.56,0,0,1-.09-2.59v-5.28a5.21,5.21,0,0,0-.82-3.29,3.25,3.25,0,0,0-2.64-1h-1.82V125h-5.28V91.37h8q4.08,0,6,1.89c1.24,1.27,1.87,3.21,1.87,5.84v2.64q0,5.17-3.46,6.81a4.85,4.85,0,0,1,2.69,2.57,11.21,11.21,0,0,1,.82,4.58v5.19c0,1,0,1.73.09,2.33a6.26,6.26,0,0,0,.48,1.75h-5.37A7.73,7.73,0,0,1,146.7,123.43Zm-5.37-16.94h2.06a3.15,3.15,0,0,0,2.38-.82,3.87,3.87,0,0,0,.79-2.73V99.62a4.3,4.3,0,0,0-.65-2.64,2.45,2.45,0,0,0-2-.81h-2.54Z" transform="translate(-7.79 0)"/><path class="c" d="M164.7,125H160V91.37h6.62L172,111.48V91.37h4.7V125h-5.42l-6.58-24.34Z" transform="translate(-7.79 0)"/><path class="c" d="M191.63,105.53v4.8h-7.25v9.84h9.12V125H179.1V91.37h14.4v4.8h-9.12v9.36Z" transform="translate(-7.79 0)"/><path class="c" d="M210.68,106.25V116.9a9,9,0,0,1-2,6.27,9,9,0,0,1-11.71,0,8.9,8.9,0,0,1-2-6.27V99.43a8.86,8.86,0,0,1,2-6.26,8.92,8.92,0,0,1,11.71,0,8.9,8.9,0,0,1,2,6.26v3.27h-5V99.1q0-3.31-2.73-3.32t-2.74,3.32v18.14c0,2.18.91,3.26,2.74,3.26s2.73-1.08,2.73-3.26v-6.19h-2.4v-4.8Z" transform="translate(-7.79 0)"/><path class="c" d="M214.33,93.19a9.13,9.13,0,0,1,11.91,0,8.81,8.81,0,0,1,2.06,6.24V116.9a8.81,8.81,0,0,1-2.06,6.24,9.13,9.13,0,0,1-11.91,0,8.81,8.81,0,0,1-2.06-6.24V99.43A8.81,8.81,0,0,1,214.33,93.19Zm6.72-3.6H217.5l3.26-5.33H226Zm-.77,31q2.75,0,2.74-3.31V99.1q0-3.31-2.74-3.32t-2.73,3.32v18.14Q217.55,120.56,220.28,120.55Z" transform="translate(-7.79 0)"/><path class="c" d="M245.63,116.9a8.9,8.9,0,0,1-2,6.27,9,9,0,0,1-11.71,0,9,9,0,0,1-2-6.27V99.43a8.91,8.91,0,0,1,2-6.26,8.92,8.92,0,0,1,11.71,0,8.86,8.86,0,0,1,2,6.26v3.27h-5V99.1c0-2.21-.92-3.32-2.74-3.32s-2.73,1.11-2.73,3.32v18.14c0,2.18.91,3.26,2.73,3.26s2.74-1.08,2.74-3.26v-4.8h5Z" transform="translate(-7.79 0)"/><path class="c" d="M252.73,91.37V125h-5.28V91.37Z" transform="translate(-7.79 0)"/><path class="c" d="M256.81,93.19a9.11,9.11,0,0,1,11.9,0,8.77,8.77,0,0,1,2.07,6.24V116.9a8.77,8.77,0,0,1-2.07,6.24,9.11,9.11,0,0,1-11.9,0,8.77,8.77,0,0,1-2.06-6.24V99.43A8.77,8.77,0,0,1,256.81,93.19Zm5.95,27.36q2.75,0,2.74-3.31V99.1q0-3.31-2.74-3.32T260,99.1v18.14Q260,120.56,262.76,120.55Z" transform="translate(-7.79 0)"/></g><g class="a"><path class="b" d="M105.74,164.9a9,9,0,0,1-2,6.27,7.6,7.6,0,0,1-5.86,2.18A7.58,7.58,0,0,1,92,171.17a8.9,8.9,0,0,1-2-6.27V147.43a8.86,8.86,0,0,1,2-6.26A7.54,7.54,0,0,1,97.86,139a7.57,7.57,0,0,1,5.86,2.19,8.91,8.91,0,0,1,2,6.26v3.27h-5v-3.6q0-3.32-2.73-3.32t-2.74,3.32v18.14c0,2.18.91,3.26,2.74,3.26s2.73-1.08,2.73-3.26v-4.8h5Z" transform="translate(-7.79 0)"/><path class="b" d="M109.19,141.19a9.13,9.13,0,0,1,11.91,0,8.81,8.81,0,0,1,2.06,6.24V164.9a8.81,8.81,0,0,1-2.06,6.24,9.13,9.13,0,0,1-11.91,0,8.77,8.77,0,0,1-2.06-6.24V147.43A8.77,8.77,0,0,1,109.19,141.19Zm6,27.36q2.74,0,2.74-3.31V147.1q0-3.32-2.74-3.32t-2.73,3.32v18.14Q112.41,168.55,115.14,168.55Z" transform="translate(-7.79 0)"/><path class="b" d="M140,139.37h7.34V173h-5v-24.1L138.66,173h-5l-3.94-23.76V173h-4.6v-33.6h7.34l3.89,23.85Z" transform="translate(-7.79 0)"/><path class="b" d="M167.8,139.37h4.85L167.46,173h-7.87l-5.18-33.6h5.32l4,27.41Z" transform="translate(-7.79 0)"/><path class="b" d="M175.29,141.19a9.11,9.11,0,0,1,11.9,0,8.77,8.77,0,0,1,2.06,6.24V164.9a8.77,8.77,0,0,1-2.06,6.24,9.11,9.11,0,0,1-11.9,0,8.77,8.77,0,0,1-2.07-6.24V147.43A8.77,8.77,0,0,1,175.29,141.19Zm6,27.36q2.73,0,2.73-3.31V147.1q0-3.32-2.73-3.32c-1.82,0-2.74,1.11-2.74,3.32v18.14C178.5,167.45,179.42,168.55,181.24,168.55Z" transform="translate(-7.79 0)"/><path class="b" d="M206.58,164.9a9,9,0,0,1-2,6.27,9,9,0,0,1-11.72,0,9,9,0,0,1-2-6.27V147.43a8.9,8.9,0,0,1,2-6.26,8.94,8.94,0,0,1,11.72,0,8.9,8.9,0,0,1,2,6.26v3.27h-5v-3.6q0-3.32-2.74-3.32t-2.73,3.32v18.14c0,2.18.91,3.26,2.73,3.26s2.74-1.08,2.74-3.26v-4.8h5Z" transform="translate(-7.79 0)"/><path class="b" d="M220.93,153.53v4.8h-7.24v9.84h9.12V173h-14.4v-33.6h14.4v4.8h-9.12v9.36Zm-7.77-21.27h4.75l4.27,5.33h-4.51L215.51,135l-2.11,2.64h-4.51Z" transform="translate(-7.79 0)"/><path class="b" d="M224.68,153.38v-14H230v14l-.67,12.15h-3.94ZM229.86,173h-5.09v-5.09h5.09Z" transform="translate(-7.79 0)"/></g></g><path class="d" d="M15.29,197.17h7.44l-7.5,17H7.79Z" transform="translate(-7.79 0)"/><path class="c" d="M15.94,198.17l-6.61,15h5.25l6.61-15H15.94m-.65-1h7.44l-7.5,17H7.79Z" transform="translate(-7.79 0)"/><path class="d" d="M170.8,197.17h7.44l-7.5,17H163.3Z" transform="translate(-7.79 0)"/><path class="c" d="M171.44,198.17l-6.61,15h5.25l6.62-15h-5.26m-.65-1h7.44l-7.49,17H163.3Z" transform="translate(-7.79 0)"/><path class="d" d="M92.67,197.17h7.44l-7.5,17H85.17Z" transform="translate(-7.79 0)"/><path class="c" d="M93.32,198.17l-6.61,15H92l6.61-15H93.32m-.65-1h7.44l-7.5,17H85.17Z" transform="translate(-7.79 0)"/><path class="d" d="M248.17,197.17h7.44l-7.5,17h-7.44Z" transform="translate(-7.79 0)"/><path class="c" d="M248.82,198.17l-6.61,15h5.25l6.62-15h-5.26m-.65-1h7.44l-7.49,17h-7.45Z" transform="translate(-7.79 0)"/><path class="d" d="M54,197.17h7.44l-7.5,17H46.48Z" transform="translate(-7.79 0)"/><path class="c" d="M54.63,198.17l-6.61,15h5.25l6.61-15H54.63m-.65-1h7.44l-7.5,17H46.48Z" transform="translate(-7.79 0)"/><path class="d" d="M209.48,197.17h7.44l-7.5,17H202Z" transform="translate(-7.79 0)"/><path class="c" d="M210.13,198.17l-6.61,15h5.25l6.62-15h-5.26m-.65-1h7.44l-7.49,17H202Z" transform="translate(-7.79 0)"/><path class="d" d="M131.36,197.17h7.44l-7.5,17h-7.44Z" transform="translate(-7.79 0)"/><path class="c" d="M132,198.17l-6.61,15h5.25l6.61-15H132m-.65-1h7.44l-7.5,17h-7.44Z" transform="translate(-7.79 0)"/><path class="d" d="M286.86,197.17h7.44l-7.5,17h-7.44Z" transform="translate(-7.79 0)"/><path class="c" d="M287.51,198.17l-6.61,15h5.25l6.62-15h-5.26m-.65-1h7.44l-7.49,17h-7.45Z" transform="translate(-7.79 0)"/><path class="d" d="M34.64,197.17h7.44l-7.5,17H27.14Z" transform="translate(-7.79 0)"/><path class="c" d="M35.29,198.17l-6.62,15h5.26l6.61-15H35.29m-.66-1h7.44l-7.49,17H27.14Z" transform="translate(-7.79 0)"/><path class="d" d="M190.14,197.17h7.44l-7.5,17h-7.44Z" transform="translate(-7.79 0)"/><path class="c" d="M190.79,198.17l-6.61,15h5.25l6.61-15h-5.25m-.65-1h7.44l-7.5,17h-7.44Z" transform="translate(-7.79 0)"/><path class="d" d="M112,197.17h7.44l-7.5,17h-7.44Z" transform="translate(-7.79 0)"/><path class="c" d="M112.67,198.17l-6.62,15h5.26l6.61-15h-5.25m-.66-1h7.44l-7.49,17h-7.44Z" transform="translate(-7.79 0)"/><path class="d" d="M267.52,197.17H275l-7.5,17H260Z" transform="translate(-7.79 0)"/><path class="c" d="M268.17,198.17l-6.61,15h5.25l6.61-15h-5.25m-.65-1H275l-7.5,17H260Z" transform="translate(-7.79 0)"/><path class="d" d="M73.33,197.17h7.44l-7.5,17H65.83Z" transform="translate(-7.79 0)"/><path class="c" d="M74,198.17l-6.62,15h5.26l6.61-15H74m-.66-1h7.44l-7.49,17H65.83Z" transform="translate(-7.79 0)"/><path class="d" d="M228.83,197.17h7.44l-7.5,17h-7.44Z" transform="translate(-7.79 0)"/><path class="c" d="M229.48,198.17l-6.61,15h5.25l6.61-15h-5.25m-.65-1h7.44l-7.5,17h-7.44Z" transform="translate(-7.79 0)"/><path class="d" d="M150.71,197.17h7.44l-7.5,17h-7.44Z" transform="translate(-7.79 0)"/><path class="c" d="M151.35,198.17l-6.61,15H150l6.62-15h-5.26m-.65-1h7.44l-7.49,17h-7.44Z" transform="translate(-7.79 0)"/><path class="d" d="M306.21,197.17h7.44l-7.5,17h-7.44Z" transform="translate(-7.79 0)"/><path class="c" d="M306.86,198.17l-6.61,15h5.25l6.61-15h-5.25m-.65-1h7.44l-7.5,17h-7.44Z" transform="translate(-7.79 0)"/><path class="d" d="M25,197.17H32.4l-7.5,17H17.46Z" transform="translate(-7.79 0)"/><path class="c" d="M25.61,198.17l-6.61,15h5.25l6.62-15H25.61m-.65-1H32.4l-7.5,17H17.46Z" transform="translate(-7.79 0)"/><path class="d" d="M180.47,197.17h7.44l-7.5,17H173Z" transform="translate(-7.79 0)"/><path class="c" d="M181.12,198.17l-6.62,15h5.26l6.61-15h-5.25m-.65-1h7.44l-7.5,17H173Z" transform="translate(-7.79 0)"/><path class="d" d="M102.34,197.17h7.44l-7.5,17H94.84Z" transform="translate(-7.79 0)"/><path class="c" d="M103,198.17l-6.61,15h5.25l6.62-15H103m-.65-1h7.44l-7.5,17H94.84Z" transform="translate(-7.79 0)"/><path class="d" d="M257.85,197.17h7.44l-7.5,17h-7.44Z" transform="translate(-7.79 0)"/><path class="c" d="M258.5,198.17l-6.62,15h5.26l6.61-15H258.5m-.66-1h7.44l-7.49,17h-7.44Z" transform="translate(-7.79 0)"/><path class="d" d="M63.65,197.17h7.44l-7.5,17H56.15Z" transform="translate(-7.79 0)"/><path class="c" d="M64.3,198.17l-6.61,15h5.25l6.62-15H64.3m-.65-1h7.44l-7.5,17H56.15Z" transform="translate(-7.79 0)"/><path class="d" d="M219.16,197.17h7.44l-7.5,17h-7.44Z" transform="translate(-7.79 0)"/><path class="c" d="M219.81,198.17l-6.62,15h5.26l6.61-15h-5.25m-.65-1h7.44l-7.5,17h-7.44Z" transform="translate(-7.79 0)"/><path class="d" d="M141,197.17h7.44l-7.5,17h-7.44Z" transform="translate(-7.79 0)"/><path class="c" d="M141.68,198.17l-6.61,15h5.25l6.62-15h-5.26m-.65-1h7.44l-7.5,17h-7.44Z" transform="translate(-7.79 0)"/><path class="d" d="M296.54,197.17H304l-7.5,17H289Z" transform="translate(-7.79 0)"/><path class="c" d="M297.19,198.17l-6.62,15h5.26l6.61-15h-5.25m-.66-1H304l-7.49,17H289Z" transform="translate(-7.79 0)"/><path class="d" d="M44.31,197.17h7.44l-7.5,17H36.81Z" transform="translate(-7.79 0)"/><path class="c" d="M45,198.17l-6.62,15H43.6l6.61-15H45m-.65-1h7.44l-7.5,17H36.81Z" transform="translate(-7.79 0)"/><path class="d" d="M199.81,197.17h7.44l-7.5,17h-7.44Z" transform="translate(-7.79 0)"/><path class="c" d="M200.46,198.17l-6.61,15h5.25l6.62-15h-5.26m-.65-1h7.44l-7.5,17h-7.44Z" transform="translate(-7.79 0)"/><path class="d" d="M121.69,197.17h7.44l-7.5,17h-7.44Z" transform="translate(-7.79 0)"/><path class="c" d="M122.34,198.17l-6.62,15H121l6.61-15h-5.25m-.65-1h7.44l-7.5,17h-7.44Z" transform="translate(-7.79 0)"/><path class="d" d="M277.19,197.17h7.44l-7.5,17h-7.44Z" transform="translate(-7.79 0)"/><path class="c" d="M277.84,198.17l-6.61,15h5.25l6.61-15h-5.25m-.65-1h7.44l-7.5,17h-7.44Z" transform="translate(-7.79 0)"/><path class="d" d="M83,197.17h7.44l-7.5,17H75.5Z" transform="translate(-7.79 0)"/><path class="c" d="M83.65,198.17l-6.62,15h5.26l6.61-15H83.65m-.65-1h7.44l-7.5,17H75.5Z" transform="translate(-7.79 0)"/><path class="d" d="M238.5,197.17h7.44l-7.5,17H231Z" transform="translate(-7.79 0)"/><path class="c" d="M239.15,198.17l-6.61,15h5.25l6.61-15h-5.25m-.65-1h7.44l-7.5,17H231Z" transform="translate(-7.79 0)"/><path class="d" d="M160.38,197.17h7.44l-7.5,17h-7.44Z" transform="translate(-7.79 0)"/><path class="c" d="M161,198.17l-6.62,15h5.26l6.61-15H161m-.65-1h7.44l-7.5,17h-7.44Z" transform="translate(-7.79 0)"/><path class="d" d="M315.88,197.17h7.44l-7.5,17h-7.44Z" transform="translate(-7.79 0)"/><path class="c" d="M316.53,198.17l-6.61,15h5.25l6.61-15h-5.25m-.65-1h7.44l-7.5,17h-7.44Z" transform="translate(-7.79 0)"/><path class="d" d="M15.29,17.11h7.44L15.23,0H7.79Z" transform="translate(-7.79 0)"/><path class="c" d="M21.2,16.11,14.58,1H9.32l6.62,15.11H21.2m1.53,1H15.29L7.79,0h7.44Z" transform="translate(-7.79 0)"/><path class="d" d="M170.8,17.11h7.44L170.74,0H163.3Z" transform="translate(-7.79 0)"/><path class="c" d="M176.7,16.11,170.08,1h-5.26l6.63,15.11h5.25m1.53,1h-7.44L163.3,0h7.44Z" transform="translate(-7.79 0)"/><path class="d" d="M92.67,17.11h7.44L92.61,0H85.17Z" transform="translate(-7.79 0)"/><path class="c" d="M98.58,16.11,92,1H86.7l6.62,15.11h5.26m1.53,1H92.67L85.17,0h7.44Z" transform="translate(-7.79 0)"/><path class="d" d="M248.17,17.11h7.44L248.11,0h-7.44Z" transform="translate(-7.79 0)"/><path class="c" d="M254.08,16.11,247.46,1H242.2l6.63,15.11h5.25m1.53,1h-7.44L240.67,0h7.45Z" transform="translate(-7.79 0)"/><path class="d" d="M54,17.11h7.44L53.92,0H46.48Z" transform="translate(-7.79 0)"/><path class="c" d="M59.89,16.11,53.27,1H48l6.62,15.11h5.26m1.53,1H54L46.48,0h7.44Z" transform="translate(-7.79 0)"/><path class="d" d="M209.48,17.11h7.44L209.42,0H202Z" transform="translate(-7.79 0)"/><path class="c" d="M215.39,16.11,208.77,1h-5.26l6.63,15.11h5.25m1.53,1h-7.44L202,0h7.45Z" transform="translate(-7.79 0)"/><path class="d" d="M131.36,17.11h7.44L131.3,0h-7.44Z" transform="translate(-7.79 0)"/><path class="c" d="M137.27,16.11,130.65,1h-5.26L132,16.11h5.26m1.53,1h-7.44L123.86,0h7.44Z" transform="translate(-7.79 0)"/><path class="d" d="M286.86,17.11h7.44L286.8,0h-7.44Z" transform="translate(-7.79 0)"/><path class="c" d="M292.77,16.11,286.15,1h-5.26l6.63,15.11h5.25m1.53,1h-7.44L279.36,0h7.45Z" transform="translate(-7.79 0)"/><path class="d" d="M34.64,17.11h7.44L34.58,0H27.14Z" transform="translate(-7.79 0)"/><path class="c" d="M40.55,16.11,33.92,1H28.67l6.62,15.11h5.26m1.52,1H34.63L27.14,0h7.44Z" transform="translate(-7.79 0)"/><path class="d" d="M190.14,17.11h7.44L190.08,0h-7.44Z" transform="translate(-7.79 0)"/><path class="c" d="M196.05,16.11,189.43,1h-5.26l6.62,15.11h5.26m1.53,1h-7.44L182.64,0h7.44Z" transform="translate(-7.79 0)"/><path class="d" d="M112,17.11h7.44L112,0h-7.44Z" transform="translate(-7.79 0)"/><path class="c" d="M117.93,16.11,111.3,1h-5.25l6.62,15.11h5.26m1.52,1H112L104.52,0H112Z" transform="translate(-7.79 0)"/><path class="d" d="M267.52,17.11H275L267.46,0H260Z" transform="translate(-7.79 0)"/><path class="c" d="M273.43,16.11,266.81,1h-5.26l6.62,15.11h5.26m1.53,1h-7.44L260,0h7.44Z" transform="translate(-7.79 0)"/><path class="d" d="M73.33,17.11h7.44L73.27,0H65.83Z" transform="translate(-7.79 0)"/><path class="c" d="M79.24,16.11,72.61,1H67.36L74,16.11h5.26m1.52,1H73.32L65.83,0h7.44Z" transform="translate(-7.79 0)"/><path class="d" d="M228.83,17.11h7.44L228.77,0h-7.44Z" transform="translate(-7.79 0)"/><path class="c" d="M234.74,16.11,228.12,1h-5.26l6.62,15.11h5.26m1.53,1h-7.44L221.33,0h7.44Z" transform="translate(-7.79 0)"/><path class="d" d="M150.71,17.11h7.44L150.65,0h-7.44Z" transform="translate(-7.79 0)"/><path class="c" d="M156.61,16.11,150,1h-5.25l6.62,15.11h5.25m1.53,1H150.7L143.21,0h7.44Z" transform="translate(-7.79 0)"/><path class="d" d="M306.21,17.11h7.44L306.15,0h-7.44Z" transform="translate(-7.79 0)"/><path class="c" d="M312.12,16.11,305.5,1h-5.26l6.62,15.11h5.26m1.53,1h-7.44L298.71,0h7.44Z" transform="translate(-7.79 0)"/><path class="d" d="M25,17.11H32.4L24.9,0H17.46Z" transform="translate(-7.79 0)"/><path class="c" d="M30.87,16.11,24.25,1H19l6.63,15.11h5.25m1.53,1H25L17.46,0H24.9Z" transform="translate(-7.79 0)"/><path class="d" d="M180.47,17.11h7.44L180.41,0H173Z" transform="translate(-7.79 0)"/><path class="c" d="M186.38,16.11,179.75,1H174.5l6.62,15.11h5.26m1.53,1h-7.44L173,0h7.44Z" transform="translate(-7.79 0)"/><path class="d" d="M102.34,17.11h7.44L102.28,0H94.84Z" transform="translate(-7.79 0)"/><path class="c" d="M108.25,16.11,101.63,1H96.37L103,16.11h5.25m1.53,1h-7.44L94.84,0h7.44Z" transform="translate(-7.79 0)"/><path class="d" d="M257.85,17.11h7.44L257.79,0h-7.44Z" transform="translate(-7.79 0)"/><path class="c" d="M263.76,16.11,257.13,1h-5.25l6.62,15.11h5.26m1.52,1h-7.44L250.35,0h7.44Z" transform="translate(-7.79 0)"/><path class="d" d="M63.65,17.11h7.44L63.59,0H56.15Z" transform="translate(-7.79 0)"/><path class="c" d="M69.56,16.11,62.94,1H57.68l6.63,15.11h5.25m1.53,1H63.65L56.15,0h7.44Z" transform="translate(-7.79 0)"/><path class="d" d="M219.16,17.11h7.44L219.1,0h-7.44Z" transform="translate(-7.79 0)"/><path class="c" d="M225.07,16.11,218.44,1h-5.25l6.62,15.11h5.26m1.53,1h-7.44L211.66,0h7.44Z" transform="translate(-7.79 0)"/><path class="d" d="M141,17.11h7.44L141,0h-7.44Z" transform="translate(-7.79 0)"/><path class="c" d="M146.94,16.11,140.32,1h-5.26l6.63,15.11h5.25m1.53,1H141L133.53,0H141Z" transform="translate(-7.79 0)"/><path class="d" d="M296.54,17.11H304L296.48,0H289Z" transform="translate(-7.79 0)"/><path class="c" d="M302.45,16.11,295.82,1h-5.25l6.62,15.11h5.26m1.52,1h-7.44L289,0h7.44Z" transform="translate(-7.79 0)"/><path class="d" d="M44.31,17.11h7.44L44.25,0H36.81Z" transform="translate(-7.79 0)"/><path class="c" d="M50.22,16.11,43.6,1H38.34L45,16.11h5.26m1.53,1H44.31L36.81,0h7.44Z" transform="translate(-7.79 0)"/><path class="d" d="M199.81,17.11h7.44L199.75,0h-7.44Z" transform="translate(-7.79 0)"/><path class="c" d="M205.72,16.11,199.1,1h-5.26l6.62,15.11h5.26m1.53,1h-7.44L192.31,0h7.44Z" transform="translate(-7.79 0)"/><path class="d" d="M121.69,17.11h7.44L121.63,0h-7.44Z" transform="translate(-7.79 0)"/><path class="c" d="M127.6,16.11,121,1h-5.26l6.62,15.11h5.26m1.53,1h-7.44L114.19,0h7.44Z" transform="translate(-7.79 0)"/><path class="d" d="M277.19,17.11h7.44L277.13,0h-7.44Z" transform="translate(-7.79 0)"/><path class="c" d="M283.1,16.11,276.48,1h-5.26l6.62,15.11h5.26m1.53,1h-7.44L269.69,0h7.44Z" transform="translate(-7.79 0)"/><path class="d" d="M83,17.11h7.44L82.94,0H75.5Z" transform="translate(-7.79 0)"/><path class="c" d="M88.91,16.11,82.29,1H77l6.62,15.11h5.26m1.53,1H83L75.5,0h7.44Z" transform="translate(-7.79 0)"/><path class="d" d="M238.5,17.11h7.44L238.44,0H231Z" transform="translate(-7.79 0)"/><path class="c" d="M244.41,16.11,237.79,1h-5.26l6.62,15.11h5.26m1.53,1H238.5L231,0h7.44Z" transform="translate(-7.79 0)"/><path class="d" d="M160.38,17.11h7.44L160.32,0h-7.44Z" transform="translate(-7.79 0)"/><path class="c" d="M166.29,16.11,159.67,1h-5.26L161,16.11h5.26m1.53,1h-7.44L152.88,0h7.44Z" transform="translate(-7.79 0)"/><path class="d" d="M315.88,17.11h7.44L315.82,0h-7.44Z" transform="translate(-7.79 0)"/><path class="c" d="M321.79,16.11,315.17,1h-5.26l6.62,15.11h5.26m1.53,1h-7.44L308.38,0h7.44Z" transform="translate(-7.79 0)"/></svg>