<svg xmlns="http://www.w3.org/2000/svg" width="475" height="287.802" viewBox="0 0 475 287.802"><g transform="translate(-186 -187.198)"><text transform="translate(231 223)" fill="#1a0d06" font-size="72" font-family="BebasNeue-Bold, Bebas Neue" font-weight="700" letter-spacing="-0.03em"><tspan x="0" y="65" xml:space="preserve">Vale tudo para      </tspan><tspan fill="#f17b00"><tspan x="0" y="132" xml:space="preserve">  fechar negócio</tspan><tspan y="132" fill="#1a0d06"> </tspan><tspan x="0" y="199" fill="#1a0d06">com você!</tspan></tspan></text><g transform="translate(60 -69)"><g transform="translate(126 520)" fill="none"><path d="M10.077,1.2h10L10,24H0Z" stroke="none"/><path d="M 10.72836112976074 2.198423385620117 L 1.535247802734375 23.00000190734863 L 9.348634719848633 23.00000190734863 L 18.541748046875 2.198423385620117 L 10.72836112976074 2.198423385620117 M 10.07699775695801 1.198423385620117 L 20.07699775695801 1.198423385620117 L 9.999998092651367 24.00000190734863 L -1.9073486328125e-06 24.00000190734863 L 10.07699775695801 1.198423385620117 Z" stroke="none" fill="#f17b00"/></g><g transform="translate(335 520)" fill="none"><path d="M10.077,1.2h10L10,24H0Z" stroke="none"/><path d="M 10.72836112976074 2.198423385620117 L 1.535247802734375 23.00000190734863 L 9.348634719848633 23.00000190734863 L 18.541748046875 2.198423385620117 L 10.72836112976074 2.198423385620117 M 10.07699775695801 1.198423385620117 L 20.07699775695801 1.198423385620117 L 9.999998092651367 24.00000190734863 L -1.9073486328125e-06 24.00000190734863 L 10.07699775695801 1.198423385620117 Z" stroke="none" fill="#f17b00"/></g><g transform="translate(230 520)" fill="none"><path d="M10.077,1.2h10L10,24H0Z" stroke="none"/><path d="M 10.72836112976074 2.198423385620117 L 1.535247802734375 23.00000190734863 L 9.348634719848633 23.00000190734863 L 18.541748046875 2.198423385620117 L 10.72836112976074 2.198423385620117 M 10.07699775695801 1.198423385620117 L 20.07699775695801 1.198423385620117 L 9.999998092651367 24.00000190734863 L -1.9073486328125e-06 24.00000190734863 L 10.07699775695801 1.198423385620117 Z" stroke="none" fill="#f17b00"/></g><g transform="translate(439 520)" fill="none"><path d="M10.077,1.2h10L10,24H0Z" stroke="none"/><path d="M 10.72836112976074 2.198423385620117 L 1.535247802734375 23.00000190734863 L 9.348634719848633 23.00000190734863 L 18.541748046875 2.198423385620117 L 10.72836112976074 2.198423385620117 M 10.07699775695801 1.198423385620117 L 20.07699775695801 1.198423385620117 L 9.999998092651367 24.00000190734863 L -1.9073486328125e-06 24.00000190734863 L 10.07699775695801 1.198423385620117 Z" stroke="none" fill="#f17b00"/></g><g transform="translate(178 520)" fill="none"><path d="M10.077,1.2h10L10,24H0Z" stroke="none"/><path d="M 10.72836112976074 2.198423385620117 L 1.535247802734375 23.00000190734863 L 9.348634719848633 23.00000190734863 L 18.541748046875 2.198423385620117 L 10.72836112976074 2.198423385620117 M 10.07699775695801 1.198423385620117 L 20.07699775695801 1.198423385620117 L 9.999998092651367 24.00000190734863 L -1.9073486328125e-06 24.00000190734863 L 10.07699775695801 1.198423385620117 Z" stroke="none" fill="#f17b00"/></g><g transform="translate(387 520)" fill="none"><path d="M10.077,1.2h10L10,24H0Z" stroke="none"/><path d="M 10.72836112976074 2.198423385620117 L 1.535247802734375 23.00000190734863 L 9.348634719848633 23.00000190734863 L 18.541748046875 2.198423385620117 L 10.72836112976074 2.198423385620117 M 10.07699775695801 1.198423385620117 L 20.07699775695801 1.198423385620117 L 9.999998092651367 24.00000190734863 L -1.9073486328125e-06 24.00000190734863 L 10.07699775695801 1.198423385620117 Z" stroke="none" fill="#f17b00"/></g><g transform="translate(282 520)" fill="none"><path d="M10.077,1.2h10L10,24H0Z" stroke="none"/><path d="M 10.72836112976074 2.198423385620117 L 1.535247802734375 23.00000190734863 L 9.348634719848633 23.00000190734863 L 18.541748046875 2.198423385620117 L 10.72836112976074 2.198423385620117 M 10.07699775695801 1.198423385620117 L 20.07699775695801 1.198423385620117 L 9.999998092651367 24.00000190734863 L -1.9073486328125e-06 24.00000190734863 L 10.07699775695801 1.198423385620117 Z" stroke="none" fill="#f17b00"/></g><g transform="translate(491 520)" fill="none"><path d="M10.077,1.2h10L10,24H0Z" stroke="none"/><path d="M 10.72836112976074 2.198423385620117 L 1.535247802734375 23.00000190734863 L 9.348634719848633 23.00000190734863 L 18.541748046875 2.198423385620117 L 10.72836112976074 2.198423385620117 M 10.07699775695801 1.198423385620117 L 20.07699775695801 1.198423385620117 L 9.999998092651367 24.00000190734863 L -1.9073486328125e-06 24.00000190734863 L 10.07699775695801 1.198423385620117 Z" stroke="none" fill="#f17b00"/></g><g transform="translate(152 520)" fill="none"><path d="M10.077,1.2h10L10,24H0Z" stroke="none"/><path d="M 10.72836112976074 2.198423385620117 L 1.535247802734375 23.00000190734863 L 9.348634719848633 23.00000190734863 L 18.541748046875 2.198423385620117 L 10.72836112976074 2.198423385620117 M 10.07699775695801 1.198423385620117 L 20.07699775695801 1.198423385620117 L 9.999998092651367 24.00000190734863 L -1.9073486328125e-06 24.00000190734863 L 10.07699775695801 1.198423385620117 Z" stroke="none" fill="#f17b00"/></g><g transform="translate(361 520)" fill="none"><path d="M10.077,1.2h10L10,24H0Z" stroke="none"/><path d="M 10.72836112976074 2.198423385620117 L 1.535247802734375 23.00000190734863 L 9.348634719848633 23.00000190734863 L 18.541748046875 2.198423385620117 L 10.72836112976074 2.198423385620117 M 10.07699775695801 1.198423385620117 L 20.07699775695801 1.198423385620117 L 9.999998092651367 24.00000190734863 L -1.9073486328125e-06 24.00000190734863 L 10.07699775695801 1.198423385620117 Z" stroke="none" fill="#f17b00"/></g><g transform="translate(256 520)" fill="none"><path d="M10.077,1.2h10L10,24H0Z" stroke="none"/><path d="M 10.72836112976074 2.198423385620117 L 1.535247802734375 23.00000190734863 L 9.348634719848633 23.00000190734863 L 18.541748046875 2.198423385620117 L 10.72836112976074 2.198423385620117 M 10.07699775695801 1.198423385620117 L 20.07699775695801 1.198423385620117 L 9.999998092651367 24.00000190734863 L -1.9073486328125e-06 24.00000190734863 L 10.07699775695801 1.198423385620117 Z" stroke="none" fill="#f17b00"/></g><g transform="translate(465 520)" fill="none"><path d="M10.077,1.2h10L10,24H0Z" stroke="none"/><path d="M 10.72836112976074 2.198423385620117 L 1.535247802734375 23.00000190734863 L 9.348634719848633 23.00000190734863 L 18.541748046875 2.198423385620117 L 10.72836112976074 2.198423385620117 M 10.07699775695801 1.198423385620117 L 20.07699775695801 1.198423385620117 L 9.999998092651367 24.00000190734863 L -1.9073486328125e-06 24.00000190734863 L 10.07699775695801 1.198423385620117 Z" stroke="none" fill="#f17b00"/></g><g transform="translate(204 520)" fill="none"><path d="M10.077,1.2h10L10,24H0Z" stroke="none"/><path d="M 10.72836112976074 2.198423385620117 L 1.535247802734375 23.00000190734863 L 9.348634719848633 23.00000190734863 L 18.541748046875 2.198423385620117 L 10.72836112976074 2.198423385620117 M 10.07699775695801 1.198423385620117 L 20.07699775695801 1.198423385620117 L 9.999998092651367 24.00000190734863 L -1.9073486328125e-06 24.00000190734863 L 10.07699775695801 1.198423385620117 Z" stroke="none" fill="#f17b00"/></g><g transform="translate(413 520)" fill="none"><path d="M10.077,1.2h10L10,24H0Z" stroke="none"/><path d="M 10.72836112976074 2.198423385620117 L 1.535247802734375 23.00000190734863 L 9.348634719848633 23.00000190734863 L 18.541748046875 2.198423385620117 L 10.72836112976074 2.198423385620117 M 10.07699775695801 1.198423385620117 L 20.07699775695801 1.198423385620117 L 9.999998092651367 24.00000190734863 L -1.9073486328125e-06 24.00000190734863 L 10.07699775695801 1.198423385620117 Z" stroke="none" fill="#f17b00"/></g><g transform="translate(308 520)" fill="none"><path d="M10.077,1.2h10L10,24H0Z" stroke="none"/><path d="M 10.72836112976074 2.198423385620117 L 1.535247802734375 23.00000190734863 L 9.348634719848633 23.00000190734863 L 18.541748046875 2.198423385620117 L 10.72836112976074 2.198423385620117 M 10.07699775695801 1.198423385620117 L 20.07699775695801 1.198423385620117 L 9.999998092651367 24.00000190734863 L -1.9073486328125e-06 24.00000190734863 L 10.07699775695801 1.198423385620117 Z" stroke="none" fill="#f17b00"/></g><g transform="translate(517 520)" fill="none"><path d="M10.077,1.2h10L10,24H0Z" stroke="none"/><path d="M 10.72836112976074 2.198423385620117 L 1.535247802734375 23.00000190734863 L 9.348634719848633 23.00000190734863 L 18.541748046875 2.198423385620117 L 10.72836112976074 2.198423385620117 M 10.07699775695801 1.198423385620117 L 20.07699775695801 1.198423385620117 L 9.999998092651367 24.00000190734863 L -1.9073486328125e-06 24.00000190734863 L 10.07699775695801 1.198423385620117 Z" stroke="none" fill="#f17b00"/></g><g transform="translate(139 520)" fill="none"><path d="M10.077,1.2h10L10,24H0Z" stroke="none"/><path d="M 10.72836112976074 2.198423385620117 L 1.535247802734375 23.00000190734863 L 9.348634719848633 23.00000190734863 L 18.541748046875 2.198423385620117 L 10.72836112976074 2.198423385620117 M 10.07699775695801 1.198423385620117 L 20.07699775695801 1.198423385620117 L 9.999998092651367 24.00000190734863 L -1.9073486328125e-06 24.00000190734863 L 10.07699775695801 1.198423385620117 Z" stroke="none" fill="#f17b00"/></g><g transform="translate(348 520)" fill="none"><path d="M10.077,1.2h10L10,24H0Z" stroke="none"/><path d="M 10.72836112976074 2.198423385620117 L 1.535247802734375 23.00000190734863 L 9.348634719848633 23.00000190734863 L 18.541748046875 2.198423385620117 L 10.72836112976074 2.198423385620117 M 10.07699775695801 1.198423385620117 L 20.07699775695801 1.198423385620117 L 9.999998092651367 24.00000190734863 L -1.9073486328125e-06 24.00000190734863 L 10.07699775695801 1.198423385620117 Z" stroke="none" fill="#f17b00"/></g><g transform="translate(243 520)" fill="none"><path d="M10.077,1.2h10L10,24H0Z" stroke="none"/><path d="M 10.72836112976074 2.198423385620117 L 1.535247802734375 23.00000190734863 L 9.348634719848633 23.00000190734863 L 18.541748046875 2.198423385620117 L 10.72836112976074 2.198423385620117 M 10.07699775695801 1.198423385620117 L 20.07699775695801 1.198423385620117 L 9.999998092651367 24.00000190734863 L -1.9073486328125e-06 24.00000190734863 L 10.07699775695801 1.198423385620117 Z" stroke="none" fill="#f17b00"/></g><g transform="translate(452 520)" fill="none"><path d="M10.077,1.2h10L10,24H0Z" stroke="none"/><path d="M 10.72836112976074 2.198423385620117 L 1.535247802734375 23.00000190734863 L 9.348634719848633 23.00000190734863 L 18.541748046875 2.198423385620117 L 10.72836112976074 2.198423385620117 M 10.07699775695801 1.198423385620117 L 20.07699775695801 1.198423385620117 L 9.999998092651367 24.00000190734863 L -1.9073486328125e-06 24.00000190734863 L 10.07699775695801 1.198423385620117 Z" stroke="none" fill="#f17b00"/></g><g transform="translate(191 520)" fill="none"><path d="M10.077,1.2h10L10,24H0Z" stroke="none"/><path d="M 10.72836112976074 2.198423385620117 L 1.535247802734375 23.00000190734863 L 9.348634719848633 23.00000190734863 L 18.541748046875 2.198423385620117 L 10.72836112976074 2.198423385620117 M 10.07699775695801 1.198423385620117 L 20.07699775695801 1.198423385620117 L 9.999998092651367 24.00000190734863 L -1.9073486328125e-06 24.00000190734863 L 10.07699775695801 1.198423385620117 Z" stroke="none" fill="#f17b00"/></g><g transform="translate(400 520)" fill="none"><path d="M10.077,1.2h10L10,24H0Z" stroke="none"/><path d="M 10.72836112976074 2.198423385620117 L 1.535247802734375 23.00000190734863 L 9.348634719848633 23.00000190734863 L 18.541748046875 2.198423385620117 L 10.72836112976074 2.198423385620117 M 10.07699775695801 1.198423385620117 L 20.07699775695801 1.198423385620117 L 9.999998092651367 24.00000190734863 L -1.9073486328125e-06 24.00000190734863 L 10.07699775695801 1.198423385620117 Z" stroke="none" fill="#f17b00"/></g><g transform="translate(295 520)" fill="none"><path d="M10.077,1.2h10L10,24H0Z" stroke="none"/><path d="M 10.72836112976074 2.198423385620117 L 1.535247802734375 23.00000190734863 L 9.348634719848633 23.00000190734863 L 18.541748046875 2.198423385620117 L 10.72836112976074 2.198423385620117 M 10.07699775695801 1.198423385620117 L 20.07699775695801 1.198423385620117 L 9.999998092651367 24.00000190734863 L -1.9073486328125e-06 24.00000190734863 L 10.07699775695801 1.198423385620117 Z" stroke="none" fill="#f17b00"/></g><g transform="translate(504 520)" fill="none"><path d="M10.077,1.2h10L10,24H0Z" stroke="none"/><path d="M 10.72836112976074 2.198423385620117 L 1.535247802734375 23.00000190734863 L 9.348634719848633 23.00000190734863 L 18.541748046875 2.198423385620117 L 10.72836112976074 2.198423385620117 M 10.07699775695801 1.198423385620117 L 20.07699775695801 1.198423385620117 L 9.999998092651367 24.00000190734863 L -1.9073486328125e-06 24.00000190734863 L 10.07699775695801 1.198423385620117 Z" stroke="none" fill="#f17b00"/></g><g transform="translate(165 520)" fill="none"><path d="M10.077,1.2h10L10,24H0Z" stroke="none"/><path d="M 10.72836112976074 2.198423385620117 L 1.535247802734375 23.00000190734863 L 9.348634719848633 23.00000190734863 L 18.541748046875 2.198423385620117 L 10.72836112976074 2.198423385620117 M 10.07699775695801 1.198423385620117 L 20.07699775695801 1.198423385620117 L 9.999998092651367 24.00000190734863 L -1.9073486328125e-06 24.00000190734863 L 10.07699775695801 1.198423385620117 Z" stroke="none" fill="#f17b00"/></g><g transform="translate(374 520)" fill="none"><path d="M10.077,1.2h10L10,24H0Z" stroke="none"/><path d="M 10.72836112976074 2.198423385620117 L 1.535247802734375 23.00000190734863 L 9.348634719848633 23.00000190734863 L 18.541748046875 2.198423385620117 L 10.72836112976074 2.198423385620117 M 10.07699775695801 1.198423385620117 L 20.07699775695801 1.198423385620117 L 9.999998092651367 24.00000190734863 L -1.9073486328125e-06 24.00000190734863 L 10.07699775695801 1.198423385620117 Z" stroke="none" fill="#f17b00"/></g><g transform="translate(269 520)" fill="none"><path d="M10.077,1.2h10L10,24H0Z" stroke="none"/><path d="M 10.72836112976074 2.198423385620117 L 1.535247802734375 23.00000190734863 L 9.348634719848633 23.00000190734863 L 18.541748046875 2.198423385620117 L 10.72836112976074 2.198423385620117 M 10.07699775695801 1.198423385620117 L 20.07699775695801 1.198423385620117 L 9.999998092651367 24.00000190734863 L -1.9073486328125e-06 24.00000190734863 L 10.07699775695801 1.198423385620117 Z" stroke="none" fill="#f17b00"/></g><g transform="translate(478 520)" fill="none"><path d="M10.077,1.2h10L10,24H0Z" stroke="none"/><path d="M 10.72836112976074 2.198423385620117 L 1.535247802734375 23.00000190734863 L 9.348634719848633 23.00000190734863 L 18.541748046875 2.198423385620117 L 10.72836112976074 2.198423385620117 M 10.07699775695801 1.198423385620117 L 20.07699775695801 1.198423385620117 L 9.999998092651367 24.00000190734863 L -1.9073486328125e-06 24.00000190734863 L 10.07699775695801 1.198423385620117 Z" stroke="none" fill="#f17b00"/></g><g transform="translate(217 520)" fill="none"><path d="M10.077,1.2h10L10,24H0Z" stroke="none"/><path d="M 10.72836112976074 2.198423385620117 L 1.535247802734375 23.00000190734863 L 9.348634719848633 23.00000190734863 L 18.541748046875 2.198423385620117 L 10.72836112976074 2.198423385620117 M 10.07699775695801 1.198423385620117 L 20.07699775695801 1.198423385620117 L 9.999998092651367 24.00000190734863 L -1.9073486328125e-06 24.00000190734863 L 10.07699775695801 1.198423385620117 Z" stroke="none" fill="#f17b00"/></g><g transform="translate(426 520)" fill="none"><path d="M10.077,1.2h10L10,24H0Z" stroke="none"/><path d="M 10.72836112976074 2.198423385620117 L 1.535247802734375 23.00000190734863 L 9.348634719848633 23.00000190734863 L 18.541748046875 2.198423385620117 L 10.72836112976074 2.198423385620117 M 10.07699775695801 1.198423385620117 L 20.07699775695801 1.198423385620117 L 9.999998092651367 24.00000190734863 L -1.9073486328125e-06 24.00000190734863 L 10.07699775695801 1.198423385620117 Z" stroke="none" fill="#f17b00"/></g><g transform="translate(321 520)" fill="none"><path d="M10.077,1.2h10L10,24H0Z" stroke="none"/><path d="M 10.72836112976074 2.198423385620117 L 1.535247802734375 23.00000190734863 L 9.348634719848633 23.00000190734863 L 18.541748046875 2.198423385620117 L 10.72836112976074 2.198423385620117 M 10.07699775695801 1.198423385620117 L 20.07699775695801 1.198423385620117 L 9.999998092651367 24.00000190734863 L -1.9073486328125e-06 24.00000190734863 L 10.07699775695801 1.198423385620117 Z" stroke="none" fill="#f17b00"/></g><g transform="translate(530 520)" fill="none"><path d="M10.077,1.2h10L10,24H0Z" stroke="none"/><path d="M 10.72836112976074 2.198423385620117 L 1.535247802734375 23.00000190734863 L 9.348634719848633 23.00000190734863 L 18.541748046875 2.198423385620117 L 10.72836112976074 2.198423385620117 M 10.07699775695801 1.198423385620117 L 20.07699775695801 1.198423385620117 L 9.999998092651367 24.00000190734863 L -1.9073486328125e-06 24.00000190734863 L 10.07699775695801 1.198423385620117 Z" stroke="none" fill="#f17b00"/></g></g><g transform="translate(60 -334)"><g transform="translate(126 520)" fill="none"><path d="M10.077,24.2h10L10,1.2H0Z" stroke="none"/><path d="M 18.54709625244141 23.19842529296875 L 9.346356391906738 2.198426246643066 L 1.529900074005127 2.198426246643066 L 10.73063945770264 23.19842529296875 L 18.54709625244141 23.19842529296875 M 20.07699775695801 24.19842529296875 L 10.07699775695801 24.19842529296875 L -2.075195425277343e-06 1.198426246643066 L 9.999998092651367 1.198426246643066 L 20.07699775695801 24.19842529296875 Z" stroke="none" fill="#f17b00"/></g><g transform="translate(335 520)" fill="none"><path d="M10.077,24.2h10L10,1.2H0Z" stroke="none"/><path d="M 18.54709625244141 23.19842529296875 L 9.346356391906738 2.198426246643066 L 1.529900074005127 2.198426246643066 L 10.73063945770264 23.19842529296875 L 18.54709625244141 23.19842529296875 M 20.07699775695801 24.19842529296875 L 10.07699775695801 24.19842529296875 L -2.075195425277343e-06 1.198426246643066 L 9.999998092651367 1.198426246643066 L 20.07699775695801 24.19842529296875 Z" stroke="none" fill="#f17b00"/></g><g transform="translate(230 520)" fill="none"><path d="M10.077,24.2h10L10,1.2H0Z" stroke="none"/><path d="M 18.54709625244141 23.19842529296875 L 9.346356391906738 2.198426246643066 L 1.529900074005127 2.198426246643066 L 10.73063945770264 23.19842529296875 L 18.54709625244141 23.19842529296875 M 20.07699775695801 24.19842529296875 L 10.07699775695801 24.19842529296875 L -2.075195425277343e-06 1.198426246643066 L 9.999998092651367 1.198426246643066 L 20.07699775695801 24.19842529296875 Z" stroke="none" fill="#f17b00"/></g><g transform="translate(439 520)" fill="none"><path d="M10.077,24.2h10L10,1.2H0Z" stroke="none"/><path d="M 18.54709625244141 23.19842529296875 L 9.346356391906738 2.198426246643066 L 1.529900074005127 2.198426246643066 L 10.73063945770264 23.19842529296875 L 18.54709625244141 23.19842529296875 M 20.07699775695801 24.19842529296875 L 10.07699775695801 24.19842529296875 L -2.075195425277343e-06 1.198426246643066 L 9.999998092651367 1.198426246643066 L 20.07699775695801 24.19842529296875 Z" stroke="none" fill="#f17b00"/></g><g transform="translate(178 520)" fill="none"><path d="M10.077,24.2h10L10,1.2H0Z" stroke="none"/><path d="M 18.54709625244141 23.19842529296875 L 9.346356391906738 2.198426246643066 L 1.529900074005127 2.198426246643066 L 10.73063945770264 23.19842529296875 L 18.54709625244141 23.19842529296875 M 20.07699775695801 24.19842529296875 L 10.07699775695801 24.19842529296875 L -2.075195425277343e-06 1.198426246643066 L 9.999998092651367 1.198426246643066 L 20.07699775695801 24.19842529296875 Z" stroke="none" fill="#f17b00"/></g><g transform="translate(387 520)" fill="none"><path d="M10.077,24.2h10L10,1.2H0Z" stroke="none"/><path d="M 18.54709625244141 23.19842529296875 L 9.346356391906738 2.198426246643066 L 1.529900074005127 2.198426246643066 L 10.73063945770264 23.19842529296875 L 18.54709625244141 23.19842529296875 M 20.07699775695801 24.19842529296875 L 10.07699775695801 24.19842529296875 L -2.075195425277343e-06 1.198426246643066 L 9.999998092651367 1.198426246643066 L 20.07699775695801 24.19842529296875 Z" stroke="none" fill="#f17b00"/></g><g transform="translate(282 520)" fill="none"><path d="M10.077,24.2h10L10,1.2H0Z" stroke="none"/><path d="M 18.54709625244141 23.19842529296875 L 9.346356391906738 2.198426246643066 L 1.529900074005127 2.198426246643066 L 10.73063945770264 23.19842529296875 L 18.54709625244141 23.19842529296875 M 20.07699775695801 24.19842529296875 L 10.07699775695801 24.19842529296875 L -2.075195425277343e-06 1.198426246643066 L 9.999998092651367 1.198426246643066 L 20.07699775695801 24.19842529296875 Z" stroke="none" fill="#f17b00"/></g><g transform="translate(491 520)" fill="none"><path d="M10.077,24.2h10L10,1.2H0Z" stroke="none"/><path d="M 18.54709625244141 23.19842529296875 L 9.346356391906738 2.198426246643066 L 1.529900074005127 2.198426246643066 L 10.73063945770264 23.19842529296875 L 18.54709625244141 23.19842529296875 M 20.07699775695801 24.19842529296875 L 10.07699775695801 24.19842529296875 L -2.075195425277343e-06 1.198426246643066 L 9.999998092651367 1.198426246643066 L 20.07699775695801 24.19842529296875 Z" stroke="none" fill="#f17b00"/></g><g transform="translate(152 520)" fill="none"><path d="M10.077,24.2h10L10,1.2H0Z" stroke="none"/><path d="M 18.54709625244141 23.19842529296875 L 9.346356391906738 2.198426246643066 L 1.529900074005127 2.198426246643066 L 10.73063945770264 23.19842529296875 L 18.54709625244141 23.19842529296875 M 20.07699775695801 24.19842529296875 L 10.07699775695801 24.19842529296875 L -2.075195425277343e-06 1.198426246643066 L 9.999998092651367 1.198426246643066 L 20.07699775695801 24.19842529296875 Z" stroke="none" fill="#f17b00"/></g><g transform="translate(361 520)" fill="none"><path d="M10.077,24.2h10L10,1.2H0Z" stroke="none"/><path d="M 18.54709625244141 23.19842529296875 L 9.346356391906738 2.198426246643066 L 1.529900074005127 2.198426246643066 L 10.73063945770264 23.19842529296875 L 18.54709625244141 23.19842529296875 M 20.07699775695801 24.19842529296875 L 10.07699775695801 24.19842529296875 L -2.075195425277343e-06 1.198426246643066 L 9.999998092651367 1.198426246643066 L 20.07699775695801 24.19842529296875 Z" stroke="none" fill="#f17b00"/></g><g transform="translate(256 520)" fill="none"><path d="M10.077,24.2h10L10,1.2H0Z" stroke="none"/><path d="M 18.54709625244141 23.19842529296875 L 9.346356391906738 2.198426246643066 L 1.529900074005127 2.198426246643066 L 10.73063945770264 23.19842529296875 L 18.54709625244141 23.19842529296875 M 20.07699775695801 24.19842529296875 L 10.07699775695801 24.19842529296875 L -2.075195425277343e-06 1.198426246643066 L 9.999998092651367 1.198426246643066 L 20.07699775695801 24.19842529296875 Z" stroke="none" fill="#f17b00"/></g><g transform="translate(465 520)" fill="none"><path d="M10.077,24.2h10L10,1.2H0Z" stroke="none"/><path d="M 18.54709625244141 23.19842529296875 L 9.346356391906738 2.198426246643066 L 1.529900074005127 2.198426246643066 L 10.73063945770264 23.19842529296875 L 18.54709625244141 23.19842529296875 M 20.07699775695801 24.19842529296875 L 10.07699775695801 24.19842529296875 L -2.075195425277343e-06 1.198426246643066 L 9.999998092651367 1.198426246643066 L 20.07699775695801 24.19842529296875 Z" stroke="none" fill="#f17b00"/></g><g transform="translate(204 520)" fill="none"><path d="M10.077,24.2h10L10,1.2H0Z" stroke="none"/><path d="M 18.54709625244141 23.19842529296875 L 9.346356391906738 2.198426246643066 L 1.529900074005127 2.198426246643066 L 10.73063945770264 23.19842529296875 L 18.54709625244141 23.19842529296875 M 20.07699775695801 24.19842529296875 L 10.07699775695801 24.19842529296875 L -2.075195425277343e-06 1.198426246643066 L 9.999998092651367 1.198426246643066 L 20.07699775695801 24.19842529296875 Z" stroke="none" fill="#f17b00"/></g><g transform="translate(413 520)" fill="none"><path d="M10.077,24.2h10L10,1.2H0Z" stroke="none"/><path d="M 18.54709625244141 23.19842529296875 L 9.346356391906738 2.198426246643066 L 1.529900074005127 2.198426246643066 L 10.73063945770264 23.19842529296875 L 18.54709625244141 23.19842529296875 M 20.07699775695801 24.19842529296875 L 10.07699775695801 24.19842529296875 L -2.075195425277343e-06 1.198426246643066 L 9.999998092651367 1.198426246643066 L 20.07699775695801 24.19842529296875 Z" stroke="none" fill="#f17b00"/></g><g transform="translate(308 520)" fill="none"><path d="M10.077,24.2h10L10,1.2H0Z" stroke="none"/><path d="M 18.54709625244141 23.19842529296875 L 9.346356391906738 2.198426246643066 L 1.529900074005127 2.198426246643066 L 10.73063945770264 23.19842529296875 L 18.54709625244141 23.19842529296875 M 20.07699775695801 24.19842529296875 L 10.07699775695801 24.19842529296875 L -2.075195425277343e-06 1.198426246643066 L 9.999998092651367 1.198426246643066 L 20.07699775695801 24.19842529296875 Z" stroke="none" fill="#f17b00"/></g><g transform="translate(517 520)" fill="none"><path d="M10.077,24.2h10L10,1.2H0Z" stroke="none"/><path d="M 18.54709625244141 23.19842529296875 L 9.346356391906738 2.198426246643066 L 1.529900074005127 2.198426246643066 L 10.73063945770264 23.19842529296875 L 18.54709625244141 23.19842529296875 M 20.07699775695801 24.19842529296875 L 10.07699775695801 24.19842529296875 L -2.075195425277343e-06 1.198426246643066 L 9.999998092651367 1.198426246643066 L 20.07699775695801 24.19842529296875 Z" stroke="none" fill="#f17b00"/></g><g transform="translate(139 520)" fill="none"><path d="M10.077,24.2h10L10,1.2H0Z" stroke="none"/><path d="M 18.54709625244141 23.19842529296875 L 9.346356391906738 2.198426246643066 L 1.529900074005127 2.198426246643066 L 10.73063945770264 23.19842529296875 L 18.54709625244141 23.19842529296875 M 20.07699775695801 24.19842529296875 L 10.07699775695801 24.19842529296875 L -2.075195425277343e-06 1.198426246643066 L 9.999998092651367 1.198426246643066 L 20.07699775695801 24.19842529296875 Z" stroke="none" fill="#f17b00"/></g><g transform="translate(348 520)" fill="none"><path d="M10.077,24.2h10L10,1.2H0Z" stroke="none"/><path d="M 18.54709625244141 23.19842529296875 L 9.346356391906738 2.198426246643066 L 1.529900074005127 2.198426246643066 L 10.73063945770264 23.19842529296875 L 18.54709625244141 23.19842529296875 M 20.07699775695801 24.19842529296875 L 10.07699775695801 24.19842529296875 L -2.075195425277343e-06 1.198426246643066 L 9.999998092651367 1.198426246643066 L 20.07699775695801 24.19842529296875 Z" stroke="none" fill="#f17b00"/></g><g transform="translate(243 520)" fill="none"><path d="M10.077,24.2h10L10,1.2H0Z" stroke="none"/><path d="M 18.54709625244141 23.19842529296875 L 9.346356391906738 2.198426246643066 L 1.529900074005127 2.198426246643066 L 10.73063945770264 23.19842529296875 L 18.54709625244141 23.19842529296875 M 20.07699775695801 24.19842529296875 L 10.07699775695801 24.19842529296875 L -2.075195425277343e-06 1.198426246643066 L 9.999998092651367 1.198426246643066 L 20.07699775695801 24.19842529296875 Z" stroke="none" fill="#f17b00"/></g><g transform="translate(452 520)" fill="none"><path d="M10.077,24.2h10L10,1.2H0Z" stroke="none"/><path d="M 18.54709625244141 23.19842529296875 L 9.346356391906738 2.198426246643066 L 1.529900074005127 2.198426246643066 L 10.73063945770264 23.19842529296875 L 18.54709625244141 23.19842529296875 M 20.07699775695801 24.19842529296875 L 10.07699775695801 24.19842529296875 L -2.075195425277343e-06 1.198426246643066 L 9.999998092651367 1.198426246643066 L 20.07699775695801 24.19842529296875 Z" stroke="none" fill="#f17b00"/></g><g transform="translate(191 520)" fill="none"><path d="M10.077,24.2h10L10,1.2H0Z" stroke="none"/><path d="M 18.54709625244141 23.19842529296875 L 9.346356391906738 2.198426246643066 L 1.529900074005127 2.198426246643066 L 10.73063945770264 23.19842529296875 L 18.54709625244141 23.19842529296875 M 20.07699775695801 24.19842529296875 L 10.07699775695801 24.19842529296875 L -2.075195425277343e-06 1.198426246643066 L 9.999998092651367 1.198426246643066 L 20.07699775695801 24.19842529296875 Z" stroke="none" fill="#f17b00"/></g><g transform="translate(400 520)" fill="none"><path d="M10.077,24.2h10L10,1.2H0Z" stroke="none"/><path d="M 18.54709625244141 23.19842529296875 L 9.346356391906738 2.198426246643066 L 1.529900074005127 2.198426246643066 L 10.73063945770264 23.19842529296875 L 18.54709625244141 23.19842529296875 M 20.07699775695801 24.19842529296875 L 10.07699775695801 24.19842529296875 L -2.075195425277343e-06 1.198426246643066 L 9.999998092651367 1.198426246643066 L 20.07699775695801 24.19842529296875 Z" stroke="none" fill="#f17b00"/></g><g transform="translate(295 520)" fill="none"><path d="M10.077,24.2h10L10,1.2H0Z" stroke="none"/><path d="M 18.54709625244141 23.19842529296875 L 9.346356391906738 2.198426246643066 L 1.529900074005127 2.198426246643066 L 10.73063945770264 23.19842529296875 L 18.54709625244141 23.19842529296875 M 20.07699775695801 24.19842529296875 L 10.07699775695801 24.19842529296875 L -2.075195425277343e-06 1.198426246643066 L 9.999998092651367 1.198426246643066 L 20.07699775695801 24.19842529296875 Z" stroke="none" fill="#f17b00"/></g><g transform="translate(504 520)" fill="none"><path d="M10.077,24.2h10L10,1.2H0Z" stroke="none"/><path d="M 18.54709625244141 23.19842529296875 L 9.346356391906738 2.198426246643066 L 1.529900074005127 2.198426246643066 L 10.73063945770264 23.19842529296875 L 18.54709625244141 23.19842529296875 M 20.07699775695801 24.19842529296875 L 10.07699775695801 24.19842529296875 L -2.075195425277343e-06 1.198426246643066 L 9.999998092651367 1.198426246643066 L 20.07699775695801 24.19842529296875 Z" stroke="none" fill="#f17b00"/></g><g transform="translate(165 520)" fill="none"><path d="M10.077,24.2h10L10,1.2H0Z" stroke="none"/><path d="M 18.54709625244141 23.19842529296875 L 9.346356391906738 2.198426246643066 L 1.529900074005127 2.198426246643066 L 10.73063945770264 23.19842529296875 L 18.54709625244141 23.19842529296875 M 20.07699775695801 24.19842529296875 L 10.07699775695801 24.19842529296875 L -2.075195425277343e-06 1.198426246643066 L 9.999998092651367 1.198426246643066 L 20.07699775695801 24.19842529296875 Z" stroke="none" fill="#f17b00"/></g><g transform="translate(374 520)" fill="none"><path d="M10.077,24.2h10L10,1.2H0Z" stroke="none"/><path d="M 18.54709625244141 23.19842529296875 L 9.346356391906738 2.198426246643066 L 1.529900074005127 2.198426246643066 L 10.73063945770264 23.19842529296875 L 18.54709625244141 23.19842529296875 M 20.07699775695801 24.19842529296875 L 10.07699775695801 24.19842529296875 L -2.075195425277343e-06 1.198426246643066 L 9.999998092651367 1.198426246643066 L 20.07699775695801 24.19842529296875 Z" stroke="none" fill="#f17b00"/></g><g transform="translate(269 520)" fill="none"><path d="M10.077,24.2h10L10,1.2H0Z" stroke="none"/><path d="M 18.54709625244141 23.19842529296875 L 9.346356391906738 2.198426246643066 L 1.529900074005127 2.198426246643066 L 10.73063945770264 23.19842529296875 L 18.54709625244141 23.19842529296875 M 20.07699775695801 24.19842529296875 L 10.07699775695801 24.19842529296875 L -2.075195425277343e-06 1.198426246643066 L 9.999998092651367 1.198426246643066 L 20.07699775695801 24.19842529296875 Z" stroke="none" fill="#f17b00"/></g><g transform="translate(478 520)" fill="none"><path d="M10.077,24.2h10L10,1.2H0Z" stroke="none"/><path d="M 18.54709625244141 23.19842529296875 L 9.346356391906738 2.198426246643066 L 1.529900074005127 2.198426246643066 L 10.73063945770264 23.19842529296875 L 18.54709625244141 23.19842529296875 M 20.07699775695801 24.19842529296875 L 10.07699775695801 24.19842529296875 L -2.075195425277343e-06 1.198426246643066 L 9.999998092651367 1.198426246643066 L 20.07699775695801 24.19842529296875 Z" stroke="none" fill="#f17b00"/></g><g transform="translate(217 520)" fill="none"><path d="M10.077,24.2h10L10,1.2H0Z" stroke="none"/><path d="M 18.54709625244141 23.19842529296875 L 9.346356391906738 2.198426246643066 L 1.529900074005127 2.198426246643066 L 10.73063945770264 23.19842529296875 L 18.54709625244141 23.19842529296875 M 20.07699775695801 24.19842529296875 L 10.07699775695801 24.19842529296875 L -2.075195425277343e-06 1.198426246643066 L 9.999998092651367 1.198426246643066 L 20.07699775695801 24.19842529296875 Z" stroke="none" fill="#f17b00"/></g><g transform="translate(426 520)" fill="none"><path d="M10.077,24.2h10L10,1.2H0Z" stroke="none"/><path d="M 18.54709625244141 23.19842529296875 L 9.346356391906738 2.198426246643066 L 1.529900074005127 2.198426246643066 L 10.73063945770264 23.19842529296875 L 18.54709625244141 23.19842529296875 M 20.07699775695801 24.19842529296875 L 10.07699775695801 24.19842529296875 L -2.075195425277343e-06 1.198426246643066 L 9.999998092651367 1.198426246643066 L 20.07699775695801 24.19842529296875 Z" stroke="none" fill="#f17b00"/></g><g transform="translate(321 520)" fill="none"><path d="M10.077,24.2h10L10,1.2H0Z" stroke="none"/><path d="M 18.54709625244141 23.19842529296875 L 9.346356391906738 2.198426246643066 L 1.529900074005127 2.198426246643066 L 10.73063945770264 23.19842529296875 L 18.54709625244141 23.19842529296875 M 20.07699775695801 24.19842529296875 L 10.07699775695801 24.19842529296875 L -2.075195425277343e-06 1.198426246643066 L 9.999998092651367 1.198426246643066 L 20.07699775695801 24.19842529296875 Z" stroke="none" fill="#f17b00"/></g><g transform="translate(530 520)" fill="none"><path d="M10.077,24.2h10L10,1.2H0Z" stroke="none"/><path d="M 18.54709625244141 23.19842529296875 L 9.346356391906738 2.198426246643066 L 1.529900074005127 2.198426246643066 L 10.73063945770264 23.19842529296875 L 18.54709625244141 23.19842529296875 M 20.07699775695801 24.19842529296875 L 10.07699775695801 24.19842529296875 L -2.075195425277343e-06 1.198426246643066 L 9.999998092651367 1.198426246643066 L 20.07699775695801 24.19842529296875 Z" stroke="none" fill="#f17b00"/></g></g></g></svg>