<svg xmlns="http://www.w3.org/2000/svg" width="34.313" height="37.827" viewBox="0 0 34.313 37.827"><g transform="translate(-2.586 -1.006)"><path d="M13.687,15.325H13.3a1.085,1.085,0,0,0-1.065,1.069c0,.228,0,.475,0,.772a1.127,1.127,0,0,0,1.1,1.1h.537q-.081.112-.158.224a4.594,4.594,0,0,0-.772,2.652V26.4a1.1,1.1,0,0,0,1.1,1.1h1.417a1.1,1.1,0,0,0,1.073-1.1v-.822H28.886V26.4a1.1,1.1,0,0,0,1.1,1.1H31.4a1.1,1.1,0,0,0,1.1-1.1V21.162a4.594,4.594,0,0,0-.772-2.652q-.077-.112-.158-.224H32.1a1.127,1.127,0,0,0,1.1-1.1v-.772a1.085,1.085,0,0,0-1.065-1.069h-.386a1.845,1.845,0,0,0-1.224.548,22.505,22.505,0,0,0-1.59-3.362,3.679,3.679,0,0,0-2.556-1.49,21.178,21.178,0,0,0-3.675-.239h0a21.178,21.178,0,0,0-3.675.239A3.679,3.679,0,0,0,16.5,12.511a22.509,22.509,0,0,0-1.59,3.362A1.845,1.845,0,0,0,13.687,15.325ZM26.6,20.043l2.007-.51a.853.853,0,0,1,1.05.807v.525a.853.853,0,0,1-.853.853H26.8a.853.853,0,0,1-.216-1.675Zm-10.84.3a.853.853,0,0,1,1.05-.807l2.007.525a.853.853,0,0,1-.216,1.675H16.594a.853.853,0,0,1-.834-.869ZM5.55,19.919A17.063,17.063,0,0,1,13.317,5.559a.452.452,0,0,1,.49,0L16.324,7.2a.282.282,0,0,1-.027.49,13.808,13.808,0,0,0,5.984,26.038V32.512a.521.521,0,0,1,.815-.436l4.443,2.9a.521.521,0,0,1,0,.872L23.1,38.75a.521.521,0,0,1-.8-.436V37.078A17.221,17.221,0,0,1,5.55,19.919ZM17.64,4.424a.517.517,0,0,1,.235-.436l4.447-2.9a.521.521,0,0,1,.8.436V2.76A17.163,17.163,0,0,1,32.1,34.276a.452.452,0,0,1-.49,0l-2.517-1.641a.286.286,0,0,1,.027-.49A13.808,13.808,0,0,0,23.138,6.111V7.327a.521.521,0,0,1-.815.436l-4.447-2.9A.517.517,0,0,1,17.64,4.424Z" transform="translate(-2.964)" fill="#f32327"/></g></svg>