<svg xmlns="http://www.w3.org/2000/svg" width="33.966" height="36.14" viewBox="0 0 33.966 36.14"><g transform="translate(-970.585 -632.063) rotate(7)"><g transform="translate(1282.095 459.219)"><g transform="translate(-228.056 56.412) rotate(11)"><path d="M19.569,26.131a6.651,6.651,0,0,0-2.219-3.9A14.516,14.516,0,0,0,15.776,21.1H12.009a14.516,14.516,0,0,0-1.574,1.135,6.51,6.51,0,0,0-2.219,3.9c-.129.877-.645,3.793-.619,3.87s2.632.516,2.761.568a8.363,8.363,0,0,0,7.069.026c.1-.052,2.761-.49,2.786-.593C20.214,29.924,19.7,27.008,19.569,26.131Zm-6.115-.516a2.847,2.847,0,0,0,1.006.31,3.292,3.292,0,0,1,.722.181,1.22,1.22,0,0,1,.31.181,1.352,1.352,0,0,1,.258.284,1.621,1.621,0,0,1,.31.955,1.755,1.755,0,0,1-1.574,1.522l-.1.413a.222.222,0,0,1-.206.206h-.31a.2.2,0,0,1-.206-.206l-.1-.387a2.464,2.464,0,0,1-1.006-.361,2.029,2.029,0,0,1-.722-.826,4.727,4.727,0,0,1-.181-.439h1.109a1.851,1.851,0,0,0,.49.645,1.484,1.484,0,0,0,1.238.026c.335-.155.413-.361.413-.516a.861.861,0,0,0-.516-.748,3.356,3.356,0,0,0-1.084-.361c-.671-.155-1.238-.284-1.471-1.032a1.5,1.5,0,0,1,.722-1.754,2.521,2.521,0,0,1,.774-.284l.1-.464a.2.2,0,0,1,.206-.206h.335a.2.2,0,0,1,.206.206l.1.439a2.464,2.464,0,0,1,1.006.361,4.227,4.227,0,0,1,.877,1.213H15.079a.9.9,0,0,0-.387-.542,1.377,1.377,0,0,0-1.342-.077c-.335.155-.413.361-.413.516A.912.912,0,0,0,13.454,25.615Z" transform="translate(-7.596 -16.45)" fill="#00FFA0"/><path d="M28.6,16.558H25.1c-.026,0-.052-.026-.026-.052a.929.929,0,0,0,.181-.568.6.6,0,0,0-.181-.387c-.026-.026,0-.052.026-.052H28.6c.026,0,.052.052.026.052a.765.765,0,0,0-.181.387.79.79,0,0,0,.181.568C28.655,16.506,28.63,16.558,28.6,16.558Z" transform="translate(-20.553 -12.294)" fill="#00FFA0"/><path d="M26.063,4.217A.465.465,0,0,0,25.7,3.83a1.4,1.4,0,0,0-.671-.052,1.052,1.052,0,0,0-.542-.568.905.905,0,0,0-.722.077.892.892,0,0,0-.31-.181.727.727,0,0,0-.542.077.691.691,0,0,0-.851.1.905.905,0,0,0-.722-.077.863.863,0,0,0-.516.568,1.878,1.878,0,0,0-.671.052.6.6,0,0,0-.361.387c-.052.258.826,1.445.955,1.548h0a.458.458,0,0,0,.258.1h3.844a.331.331,0,0,0,.258-.1h0C25.238,5.636,26.115,4.475,26.063,4.217Z" transform="translate(-16.645 -3.075)" fill="#00FFA0"/></g></g><g transform="translate(1053.956 514.65)"><g transform="translate(-11.003 -5)"><path d="M14.311,5.954a.669.669,0,0,0,0-1.146L6.559.1A.888.888,0,0,0,5.773.086C5.563.2,5.288.428,5.288.67V2.258a.928.928,0,0,1-.759.978A5.354,5.354,0,0,0,0,8.43a5.236,5.236,0,0,0,.5,2.185.3.3,0,0,0,.273.168.3.3,0,0,0,.266-.171,5.277,5.277,0,0,1,3.2-2.856.772.772,0,0,1,.746.133.859.859,0,0,1,.3.741v1.461c0,.242.273.466.483.585a.878.878,0,0,0,.783-.012Z" transform="translate(-1.761 6.014) rotate(-34)" fill="#00FFA0"/><path d="M24.048,14.051a.3.3,0,0,0-.273-.176.293.293,0,0,0-.269.174,4.956,4.956,0,0,1-3.2,2.83.8.8,0,0,1-.764-.132.869.869,0,0,1-.319-.741V14.545c0-.243-.257-.466-.467-.584a.856.856,0,0,0-.775.012l-7.751,4.71a.667.667,0,0,0,0,1.146l7.757,4.71a.855.855,0,0,0,.77.012c.21-.119.469-.342.469-.585V22.378A.942.942,0,0,1,20,21.4a5.361,5.361,0,0,0,4.541-5.194A6.034,6.034,0,0,0,24.048,14.051Z" transform="translate(1.276 16.408) rotate(-30)" fill="#00FFA0"/></g></g></g></svg>