<svg xmlns="http://www.w3.org/2000/svg" width="37.272" height="39.706" viewBox="0 0 37.272 39.706"><g transform="translate(-4 -0.93)"><path d="M27.235,22.793A10.931,10.931,0,1,0,16.3,11.861,10.931,10.931,0,0,0,27.235,22.793Zm-3.826-7c.1-.36.186-.684.287-1,.057-.186.178-.563.567-.563a.956.956,0,0,1,.441.138,5.2,5.2,0,0,0,1.8.538,2.089,2.089,0,0,0,1.093-.142.668.668,0,0,0,.158-1.19,2.7,2.7,0,0,0-.64-.372c-.2-.089-.4-.17-.6-.247a9.652,9.652,0,0,1-1.385-.66A3.043,3.043,0,0,1,23.426,9.38,3.2,3.2,0,0,1,25.75,6.42c.324-.117.324-.117.324-.441V5.452c0-.571.215-.773.781-.789h.494c.976,0,1.069.206,1.073,1.17,0,.356,0,.356.356.4a5.733,5.733,0,0,1,1.425.425.692.692,0,0,1,.4.887l-.093.32c-.077.271-.154.547-.243.81a.733.733,0,0,1-.356.494.761.761,0,0,1-.632-.077,4.012,4.012,0,0,0-1.992-.4,1.3,1.3,0,0,0-.466.093.575.575,0,0,0-.372.429.555.555,0,0,0,.239.494,3.454,3.454,0,0,0,.854.478l.2.085a14.494,14.494,0,0,1,1.526.7,3.486,3.486,0,0,1,1.765,2.389,3.271,3.271,0,0,1-.7,2.7A3.555,3.555,0,0,1,28.5,17.238c-.174.049-.194.089-.186.231s0,.4,0,.6v.316a.668.668,0,0,1-.7.721h-.947a.688.688,0,0,1-.717-.733v-.895l-.219-.036a6.442,6.442,0,0,1-1.818-.526h0C23.365,16.639,23.248,16.392,23.409,15.8ZM40.616,27.133l-7.927,9.215A6.219,6.219,0,0,1,28,38.478H15.632l-2.154,2.158L4,32.854l5.437-5.369a10.5,10.5,0,0,1,11.3-2.271h6.709a2.518,2.518,0,1,1,0,5.037h-5.2a.834.834,0,1,0,0,1.668h5.891a2.968,2.968,0,0,0,2.215-1L36.7,23.667a2.613,2.613,0,1,1,3.923,3.454Z" transform="translate(0 0)" fill="#f32327"/></g></svg>