<svg xmlns="http://www.w3.org/2000/svg" width="21.149" height="25.001" viewBox="0 0 21.149 25.001"><g transform="translate(228.404 -58.886)"><g transform="translate(-236 55.811)"><path d="M27.664,29.533A11.149,11.149,0,0,0,23.945,23a24.332,24.332,0,0,0-2.638-1.9H14.993A24.332,24.332,0,0,0,12.355,23a10.912,10.912,0,0,0-3.719,6.53C8.42,31,7.555,35.89,7.6,36.02s4.411.865,4.627.951a14.018,14.018,0,0,0,11.849.043c.173-.086,4.627-.822,4.671-.995C28.745,35.89,27.88,31,27.664,29.533Zm-10.249-.865a4.772,4.772,0,0,0,1.687.519,5.518,5.518,0,0,1,1.211.3,2.045,2.045,0,0,1,.519.3,2.267,2.267,0,0,1,.432.476,2.718,2.718,0,0,1,.519,1.6,2.942,2.942,0,0,1-2.638,2.551l-.173.692a.372.372,0,0,1-.346.346h-.519a.341.341,0,0,1-.346-.346l-.173-.649a4.13,4.13,0,0,1-1.687-.605,3.4,3.4,0,0,1-1.211-1.384,7.923,7.923,0,0,1-.3-.735h1.86a3.1,3.1,0,0,0,.822,1.081,2.487,2.487,0,0,0,2.076.043c.562-.259.692-.605.692-.865a1.444,1.444,0,0,0-.865-1.254,5.625,5.625,0,0,0-1.816-.605c-1.124-.259-2.076-.476-2.465-1.73A2.506,2.506,0,0,1,15.9,25.468a4.226,4.226,0,0,1,1.3-.476l.173-.778a.341.341,0,0,1,.346-.346h.562a.341.341,0,0,1,.346.346l.173.735a4.13,4.13,0,0,1,1.687.605,7.085,7.085,0,0,1,1.47,2.033H20.139a1.5,1.5,0,0,0-.649-.908,2.309,2.309,0,0,0-2.249-.13c-.562.259-.692.605-.692.865A1.529,1.529,0,0,0,17.415,28.668Z" transform="translate(0 -10.23)" fill="#ff3400"/><path d="M31,17.273H25.12c-.043,0-.086-.043-.043-.086a1.557,1.557,0,0,0,.3-.951,1.007,1.007,0,0,0-.3-.649c-.043-.043,0-.086.043-.086H31c.043,0,.086.086.043.086a1.282,1.282,0,0,0-.3.649,1.324,1.324,0,0,0,.3.951C31.088,17.187,31.044,17.273,31,17.273Z" transform="translate(-9.911 -7.052)" fill="#ff3400"/><path d="M30.3,4.989A.78.78,0,0,0,29.7,4.34a2.35,2.35,0,0,0-1.124-.086,1.764,1.764,0,0,0-.908-.951,1.517,1.517,0,0,0-1.211.13,1.5,1.5,0,0,0-.519-.3,1.218,1.218,0,0,0-.908.13,1.158,1.158,0,0,0-1.427.173A1.517,1.517,0,0,0,22.39,3.3a1.446,1.446,0,0,0-.865.951A3.148,3.148,0,0,0,20.4,4.34a1,1,0,0,0-.605.649c-.086.432,1.384,2.422,1.6,2.595h0a.768.768,0,0,0,.432.173h6.444a.555.555,0,0,0,.432-.173h0C28.92,7.367,30.39,5.421,30.3,4.989Z" transform="translate(-6.921)" fill="#ff3400"/></g></g></svg>