<svg xmlns="http://www.w3.org/2000/svg" width="48" height="48" viewBox="0 0 48 48"><g transform="translate(-156 -574)"><g transform="translate(156.392 574.392)"><rect width="48" height="48" transform="translate(-0.392 -0.392)" fill="none"/><g transform="translate(7.743 6.941)"><path d="M50.646,19.374A15.75,15.75,0,0,0,39.409,14.7a15.587,15.587,0,0,0-8.546,2.5,1.2,1.2,0,1,0,1.275,2.03A13.548,13.548,0,1,1,39.409,44.21a14.5,14.5,0,0,1-2.5-.236l.661-1.322a.9.9,0,0,0-.85-1.322l-5.808.189a.919.919,0,0,0-.708,1.464L33.6,47.7a.909.909,0,0,0,1.558-.142l.708-1.416a15.225,15.225,0,0,0,3.588.425A15.959,15.959,0,0,0,55.367,30.659,16.02,16.02,0,0,0,50.646,19.374Z" transform="translate(-23.591 -14.7)" fill="#00FFA0"/><circle cx="1.133" cy="1.133" r="1.133" transform="matrix(0.5, -0.866, 0.866, 0.5, 1.584, 8.999)" fill="#00FFA0"/><circle cx="1.133" cy="1.133" r="1.133" transform="translate(0 14.778)" fill="#00FFA0"/><circle cx="1.133" cy="1.133" r="1.133" transform="matrix(0.866, -0.5, 0.5, 0.866, 1.557, 22.818)" fill="#00FFA0"/></g></g><text transform="translate(173 604)" fill="#00FFA0" font-size="18" font-family="BebasNeue-Bold, Bebas Neue" font-weight="700" letter-spacing="-0.03em"><tspan x="0" y="0">90</tspan></text></g></svg>