<svg xmlns="http://www.w3.org/2000/svg" xmlns:xlink="http://www.w3.org/1999/xlink" width="27.994" height="28.128" viewBox="0 0 27.994 28.128"><defs><clipPath id="a"><path d="M151.7,114.653H179.69v28.128H151.7Zm0,0" transform="translate(-151.695 -114.653)"/></clipPath><clipPath id="b"><path d="M152.1,128.722a13.872,13.872,0,0,0,1.856,6.948l-1.972,7.2,7.369-1.932a13.89,13.89,0,0,0,6.643,1.692H166a13.9,13.9,0,1,0-13.9-13.908m4.389,6.585-.275-.437A11.555,11.555,0,1,1,166,140.283h0a11.538,11.538,0,0,1-5.881-1.61l-.422-.25-4.373,1.146ZM166,142.63h0m0,0h0" transform="translate(-151.979 -114.826)"/></clipPath><linearGradient id="c" x1="-1.028" y1="-0.774" x2="-1.026" y2="-0.774" gradientUnits="objectBoundingBox"><stop offset="0" stop-color="#f9f9f9"/><stop offset="0.125" stop-color="#f9f9f9"/><stop offset="0.25" stop-color="#fafafa"/><stop offset="0.375" stop-color="#fbfbfb"/><stop offset="0.5" stop-color="#fcfcfc"/><stop offset="0.625" stop-color="#fcfcfc"/><stop offset="0.75" stop-color="#fdfdfd"/><stop offset="0.875" stop-color="#fefefe"/><stop offset="1" stop-color="#fff"/></linearGradient></defs><g transform="translate(-2.983 16.166)"><path d="M10.976,7.6l.422.25a11.537,11.537,0,0,0,5.881,1.61h0A11.569,11.569,0,0,0,28.838-2.087a11.479,11.479,0,0,0-3.381-8.172,11.479,11.479,0,0,0-8.169-3.387A11.569,11.569,0,0,0,5.729-2.1,11.521,11.521,0,0,0,7.5,4.05l.275.437L6.6,8.749ZM3.266,12.051l1.972-7.2A13.872,13.872,0,0,1,3.382-2.1a13.918,13.918,0,0,1,13.9-13.9,13.816,13.816,0,0,1,9.834,4.076,13.814,13.814,0,0,1,4.068,9.832,13.92,13.92,0,0,1-13.9,13.9h-.006a13.893,13.893,0,0,1-6.643-1.692Zm0,0" transform="translate(-0.229 -0.139)" fill="#fff"/><g transform="translate(2.983 -16.166)" clip-path="url(#a)"><g transform="translate(0.054 0.033)" clip-path="url(#b)"><path d="M151.979,142.871H179.9V114.826H151.979Zm0,0" transform="translate(-151.979 -114.826)" fill="url(#c)"/></g></g><path d="M43.664,24.2c-.26-.578-.534-.59-.782-.6-.2-.009-.434-.008-.666-.008a1.276,1.276,0,0,0-.926.435,3.894,3.894,0,0,0-1.216,2.9,6.758,6.758,0,0,0,1.418,3.592c.174.232,2.4,3.851,5.934,5.243,2.934,1.157,3.531.927,4.168.869a3.507,3.507,0,0,0,2.344-1.651,2.9,2.9,0,0,0,.2-1.651c-.087-.145-.318-.232-.666-.405S51.421,31.9,51.1,31.786s-.55-.174-.782.174-.9,1.13-1.1,1.361-.405.261-.753.087a9.5,9.5,0,0,1-2.793-1.724,10.472,10.472,0,0,1-1.932-2.405c-.2-.348-.022-.536.153-.709.156-.156.347-.406.521-.608a2.382,2.382,0,0,0,.347-.579.639.639,0,0,0-.029-.608c-.087-.174-.762-1.892-1.071-2.578" transform="translate(-30.084 -32.243)" fill="#fff" fill-rule="evenodd"/></g></svg>