<svg xmlns="http://www.w3.org/2000/svg" width="34.195" height="36.998" viewBox="0 0 34.195 36.998"><g transform="translate(417.195 256.499)"><g transform="translate(-423.197 -258.999)"><path d="M37.7,15.352l1.207-1.207a1.388,1.388,0,0,0,0-1.908L36.223,9.549a1.388,1.388,0,0,0-1.908,0l-1.207,1.207A15.454,15.454,0,0,0,26.292,8.3V5.81h2.181a1.655,1.655,0,1,0,0-3.31H20.761a1.675,1.675,0,1,0,0,3.349h2.181V8.342A15.442,15.442,0,0,0,14.8,11.73a1.661,1.661,0,0,0,2.1,2.57,12.112,12.112,0,0,1,7.711-2.726A12.287,12.287,0,1,1,12.349,24.309h1.791a1.127,1.127,0,0,0,.935-1.753L11.57,17.338a1.128,1.128,0,0,0-1.869,0L6.2,22.557a1.127,1.127,0,0,0,.935,1.753h1.83A15.62,15.62,0,0,0,40.2,23.881,15.224,15.224,0,0,0,37.7,15.352Z" fill="#f17b00"/><path d="M42.123,52.005a9.5,9.5,0,1,0,0-19.005.781.781,0,0,0-.779.779v8.412l-6.387,5.452a.814.814,0,0,0-.273.506.6.6,0,0,0,.195.545A9.558,9.558,0,0,0,42.123,52.005Z" transform="translate(-17.506 -18.622)" fill="#f17b00"/></g></g></svg>