<svg xmlns="http://www.w3.org/2000/svg" width="24.008" height="21.8" viewBox="0 0 24.008 21.8"><g transform="translate(572.258 143.37)"><path d="M7.927,30.4h16.8A3.618,3.618,0,0,0,27.858,25L19.433,10.417a3.565,3.565,0,0,0-6.214,0L4.794,25A3.622,3.622,0,0,0,7.927,30.4Zm8.425-3.238a1.343,1.343,0,0,1,0-2.686,1.343,1.343,0,0,1,0,2.686ZM16.01,15.05a1.337,1.337,0,0,1,1.553.764,1.833,1.833,0,0,1,.132.658c-.026.658-.079,1.343-.132,2-.053,1.027-.132,2.08-.184,3.107-.026.342-.026.632-.026.974a.994.994,0,0,1-1,.974.972.972,0,0,1-1-.948c-.079-1.606-.184-3.212-.263-4.818-.026-.421-.053-.843-.079-1.29A1.394,1.394,0,0,1,16.01,15.05Z" transform="translate(-576.585 -151.97)" fill="#ff6100"/></g></svg>