<svg xmlns="http://www.w3.org/2000/svg" width="1932.966" height="791.447" viewBox="0 0 1932.966 791.447"><g transform="translate(292.338 189.419)"><g transform="translate(1488.163 47.581) rotate(68)" fill="none"><path d="M287.792,0,407,119.208V287.792L287.792,407H119.208L0,287.792V119.207L119.208,0Z" stroke="none"/><path d="M 119.6217956542969 1 L 1 119.6217041015625 L 1 287.3782043457031 L 119.6217041015625 406 L 287.3782348632813 406 L 405.9999389648438 287.3782348632813 L 406 119.6217346191406 L 287.3782348632813 1 L 119.6217956542969 1 M 119.2076110839844 0 L 287.7924499511719 0 L 407 119.2075500488281 L 406.9999389648438 287.7924499511719 L 287.7924499511719 407 L 119.2074890136719 407 L 0 287.7923889160156 L 0 119.2074890136719 L 119.2076110839844 0 Z" stroke="none" fill="#FF3400"/></g><g transform="translate(244.163 -189.419) rotate(68)" fill="none"><path d="M212.839,0,301,88.161V212.839L212.839,301H88.161L0,212.839V88.161L88.161,0Z" stroke="none"/><path d="M 88.57514953613281 1 L 1.000030517578125 88.57504272460938 L 1 212.4248962402344 L 88.5750732421875 300 L 212.4248809814453 300 L 299.9999694824219 212.4249267578125 L 300 88.57511901855469 L 212.4248809814453 1.000030517578125 L 88.57514953613281 1 M 88.16091918945313 0 L 212.839111328125 3.0517578125e-05 L 301 88.160888671875 L 300.9999694824219 212.8391571044922 L 212.839111328125 301 L 88.16084289550781 301 L 0 212.839111328125 L 3.0517578125e-05 88.16081237792969 L 88.16091918945313 0 Z" stroke="none" fill="#FF3400"/></g><g transform="translate(90.589 65.315) rotate(68)" fill="none"><path d="M291.328,0,412,120.965v171.07L291.328,413H120.672L0,292.035V120.965L120.672,0Z" stroke="none"/><path d="M 121.0870361328125 1 L 1 121.3783569335938 L 1 291.6215515136719 L 121.0869140625 412 L 290.9130249023438 412 L 411 291.6216125488281 L 411 121.3783874511719 L 290.9130249023438 1 L 121.0870361328125 1 M 120.672119140625 0 L 291.3279418945313 0 L 412 120.9649047851563 L 412 292.0350952148438 L 291.3279418945313 413 L 120.6719970703125 413 L 0 292.0350341796875 L 0 120.96484375 L 120.672119140625 0 Z" stroke="none" fill="#FF3400"/></g></g></svg>