<svg xmlns="http://www.w3.org/2000/svg" viewBox="0 0 176.27 87.38"><defs><style>.a,.b{fill:#74f0ff;}.a{stroke:#216762;stroke-miterlimit:10;stroke-width:0.5px;}.c{fill:#b8faff;}.d{fill:#741d00;}.e{fill:#ba0e0a;}.f{fill:#d14200;}.g{fill:#aa1c00;}.h{fill:#ff7f00;}</style></defs><path class="a" d="M9.05,1,8.74,2.83l-.34.09a5.79,5.79,0,0,0-1.46-.81A4.57,4.57,0,0,0,5.4,1.82a3.26,3.26,0,0,0-1.54.36,2.63,2.63,0,0,0-1,.93,2.4,2.4,0,0,0-.35,1.2,1.79,1.79,0,0,0,.4,1.13,3.69,3.69,0,0,0,1,.85c.4.23.94.52,1.62.85A18.62,18.62,0,0,1,7.59,8.25a5.06,5.06,0,0,1,1.35,1.3,3.17,3.17,0,0,1,.56,1.91,4,4,0,0,1-.64,2.2A4.54,4.54,0,0,1,7,15.26a5.74,5.74,0,0,1-2.67.6,8.6,8.6,0,0,1-2.08-.27,8.43,8.43,0,0,1-2-.8l.24-2,.26-.12a5.52,5.52,0,0,0,1.85,1.2,5.21,5.21,0,0,0,1.94.39A3.44,3.44,0,0,0,6.17,14a2.7,2.7,0,0,0,1.08-1,2.35,2.35,0,0,0,.37-1.26,2,2,0,0,0-.77-1.61A12,12,0,0,0,4.54,8.79a22.06,22.06,0,0,1-2-1.1A5,5,0,0,1,1.2,6.42a3.2,3.2,0,0,1-.55-1.9,3.94,3.94,0,0,1,.63-2.14A4.32,4.32,0,0,1,3.05.84,5.65,5.65,0,0,1,5.64.28,8.9,8.9,0,0,1,9.05,1Z" transform="translate(0 0.01)"/><path class="a" d="M28.63,14.2l-.14,1.48H19.9l.12-4.6L19.9.4h8.61l.1.19-.14,1.48L24.87,2l-3,.05-.05,5,2.86,0L27.18,7l.14.16-.17,1.48-2.67,0-2.72,0,0,2.27.07,3.17,3,0,3.67-.1Z" transform="translate(0 0.01)"/><path class="a" d="M53.7,15.68H52L51.62,11l-.81-7.61h-.17L46.4,13.92H44.82l-4-10.5H40.6l-.81,7.47-.4,4.79H37.76L39.36.39h2.17l.79,2.34,3.32,8.71h.14l3.48-8.85.79-2.2H52.2Z" transform="translate(0 0.01)"/><path class="a" d="M66.36,10.91l.1,4.77H64.53l.12-4.6L64.53.4h2Z" transform="translate(0 0.01)"/><path class="a" d="M89.81,11.2l0,4.48h-2L79.94,3.45h-.12l0,7.2,0,5H78.1l.07-4.53,0-10.76h2L88,12.63h.17l0-12.14L89.94.34Z" transform="translate(0 0.01)"/><path class="a" d="M111.48,2.18a8.23,8.23,0,0,1,1.68,5.56,9,9,0,0,1-1.79,6,6.31,6.31,0,0,1-5.1,2.11,5.88,5.88,0,0,1-4.78-2,8.62,8.62,0,0,1-1.68-5.7,8.74,8.74,0,0,1,1.77-5.87,6.39,6.39,0,0,1,5.07-2A6.1,6.1,0,0,1,111.48,2.18ZM101.76,8a8.18,8.18,0,0,0,1.16,4.85,4.07,4.07,0,0,0,3.49,1.57q4.77,0,4.77-6.27A7.92,7.92,0,0,0,110,3.35a4.06,4.06,0,0,0-3.49-1.55q-4.77,0-4.77,6.16Z" transform="translate(0 0.01)"/><path class="a" d="M128.5,15.68h-2.22L121.18.39h2l.35,1.55,3.89,11.81h.14L131.82,2,132.2.39h1.91Z" transform="translate(0 0.01)"/><path class="a" d="M153.63,2.18a8.29,8.29,0,0,1,1.68,5.56,9.09,9.09,0,0,1-1.79,6,6.31,6.31,0,0,1-5.1,2.11,5.88,5.88,0,0,1-4.78-2A8.63,8.63,0,0,1,142,8.17a8.8,8.8,0,0,1,1.78-5.87,6.39,6.39,0,0,1,5.07-2A6.1,6.1,0,0,1,153.63,2.18ZM143.91,8a8.17,8.17,0,0,0,1.15,4.85,4.09,4.09,0,0,0,3.5,1.57q4.77,0,4.77-6.27a7.92,7.92,0,0,0-1.16-4.75,4.08,4.08,0,0,0-3.5-1.55q-4.75,0-4.76,6.16Z" transform="translate(0 0.01)"/><path class="a" d="M173.13,1l-.31,1.84-.34.09A5.85,5.85,0,0,0,171,2.11a4.48,4.48,0,0,0-1.54-.29,3.25,3.25,0,0,0-1.53.36,2.63,2.63,0,0,0-1,.93,2.21,2.21,0,0,0-.35,1.2A1.73,1.73,0,0,0,167,5.44a4,4,0,0,0,1,.85c.41.23.95.52,1.63.85a17.88,17.88,0,0,1,2.07,1.11A5.06,5.06,0,0,1,173,9.55a3.24,3.24,0,0,1,.56,1.91,4,4,0,0,1-.64,2.2,4.54,4.54,0,0,1-1.82,1.6,5.74,5.74,0,0,1-2.67.6,8.75,8.75,0,0,1-2.09-.27,8.52,8.52,0,0,1-2-.8l.24-2,.26-.12a5.52,5.52,0,0,0,1.85,1.2,5.21,5.21,0,0,0,1.94.39,3.44,3.44,0,0,0,1.61-.35,2.61,2.61,0,0,0,1.07-1,2.24,2.24,0,0,0,.37-1.26,1.94,1.94,0,0,0-.76-1.61,12,12,0,0,0-2.31-1.33,22.06,22.06,0,0,1-2-1.1,5,5,0,0,1-1.31-1.27,3.2,3.2,0,0,1-.55-1.9,3.94,3.94,0,0,1,.63-2.14A4.32,4.32,0,0,1,167.13.84a5.65,5.65,0,0,1,2.59-.56A8.9,8.9,0,0,1,173.13,1Z" transform="translate(0 0.01)"/><path class="b" d="M9.59,1,9.28,2.83l-.34.09a5.79,5.79,0,0,0-1.46-.81,4.77,4.77,0,0,0-1.54-.29,3.29,3.29,0,0,0-1.54.36,2.63,2.63,0,0,0-1,.93,2.29,2.29,0,0,0-.34,1.2,1.73,1.73,0,0,0,.39,1.13,3.85,3.85,0,0,0,1,.85c.4.23.94.52,1.62.85A19.7,19.7,0,0,1,8.14,8.25a5.18,5.18,0,0,1,1.34,1.3A3.17,3.17,0,0,1,10,11.46a4,4,0,0,1-.64,2.2,4.58,4.58,0,0,1-1.81,1.6,5.77,5.77,0,0,1-2.67.6A8.63,8.63,0,0,1,.81,14.79l.24-2,.26-.12a5.52,5.52,0,0,0,1.85,1.2,5.22,5.22,0,0,0,2,.39A3.5,3.5,0,0,0,6.72,14a2.67,2.67,0,0,0,1.07-1,2.32,2.32,0,0,0,.37-1.26,2,2,0,0,0-.77-1.61A11.75,11.75,0,0,0,5.08,8.79c-.69-.33-1.37-.7-2-1.1A5,5,0,0,1,1.74,6.42a3.2,3.2,0,0,1-.55-1.9,3.87,3.87,0,0,1,.64-2.14A4.23,4.23,0,0,1,3.59.84,5.65,5.65,0,0,1,6.18.28,8.9,8.9,0,0,1,9.59,1Z" transform="translate(0 0.01)"/><path class="c" d="M5.45,15.31a8,8,0,0,1-1.95-.26,8,8,0,0,1-1.57-.58L2,13.58a6.09,6.09,0,0,0,3.6,1.26,4,4,0,0,0,1.86-.42,3.11,3.11,0,0,0,1.29-1.15,2.92,2.92,0,0,0,.45-1.55,2.48,2.48,0,0,0-1-2A11.87,11.87,0,0,0,5.85,8.3a18.7,18.7,0,0,1-2-1.08A4.16,4.16,0,0,1,2.72,6.1a2.6,2.6,0,0,1-.44-1.58,3.28,3.28,0,0,1,.54-1.85A3.75,3.75,0,0,1,4.37,1.32,5.15,5.15,0,0,1,6.72.82a8.36,8.36,0,0,1,2.8.52l-.15.85A5.55,5.55,0,0,0,8.2,1.61a4.81,4.81,0,0,0-1.72-.32,3.62,3.62,0,0,0-1.8.42A3.06,3.06,0,0,0,3.47,2.84a2.82,2.82,0,0,0-.42,1.47,2.27,2.27,0,0,0,.51,1.47,4.19,4.19,0,0,0,1.13,1c.41.25,1,.54,1.67.88a15.55,15.55,0,0,1,2,1.08,4.42,4.42,0,0,1,1.2,1.16A2.66,2.66,0,0,1,10,11.46a3.36,3.36,0,0,1-.56,1.9,4,4,0,0,1-1.6,1.41A5.32,5.32,0,0,1,5.45,15.31Z" transform="translate(0 0.01)"/><path class="b" d="M29.17,14.2,29,15.68H20.44l.12-4.6L20.44.4h8.61l.1.19L29,2.07,25.41,2l-3,0-.05,5,2.86,0L27.72,7l.14.16L27.7,8.67,25,8.63l-2.71,0,0,2.27.07,3.17,3,0,3.68-.1Z" transform="translate(0 0.01)"/><path class="c" d="M21.54,15.14l.1-4.05L21.52.93H29.1l-.05.58L26,1.45l-3.58.06-.06,6.07,3.4.06,2.1-.06-.07.54-2.17,0-3.27,0,0,2.8.08,3.72,3.56,0,3.22-.08-.06.58Z" transform="translate(0 0.01)"/><path class="b" d="M54.24,15.68H52.52L52.16,11l-.81-7.61h-.16l-4.25,10.5H45.36l-4-10.5h-.19l-.81,7.47-.4,4.79H38.3L39.91.39h2.17l.78,2.34,3.32,8.71h.14L49.8,2.59l.79-2.2h2.15Z" transform="translate(0 0.01)"/><path class="c" d="M53.56,15.14,53.24,11l-.86-8.11h-1l-4.24,10.5h-.84l-4-10.5h-1l-.87,8L40,15.14h-.52L40.93.94h1.3l.66,2L46.34,12h.89l3.62-9.2L51.51.93h1.28l1.4,14.21Z" transform="translate(0 0.01)"/><path class="b" d="M66.9,10.91l.1,4.77H65.07l.12-4.6L65.07.4h2Z" transform="translate(0 0.01)"/><path class="c" d="M66.16,15.14l.1-4.05L66.15.93H67l-.11,10L67,15.14Z" transform="translate(0 0.01)"/><path class="b" d="M90.35,11.2l.05,4.48h-2L80.48,3.45h-.12l0,7.2,0,5H78.64l.07-4.53,0-10.76h2l7.9,12.24h.16l0-12.14L90.48.34Z" transform="translate(0 0.01)"/><path class="c" d="M89.23,15.14,81.31,2.91h-1l0,7.74,0,4.49h-.62l.06-4,0-10.22h1.14l7.9,12.23h1L89.76,1l.7-.06-.11,10.26,0,4Z" transform="translate(0 0.01)"/><path class="b" d="M112,2.18a8.18,8.18,0,0,1,1.68,5.56,9,9,0,0,1-1.79,6,6.28,6.28,0,0,1-5.1,2.11,5.88,5.88,0,0,1-4.78-2,8.62,8.62,0,0,1-1.68-5.7,8.69,8.69,0,0,1,1.78-5.87,6.36,6.36,0,0,1,5.06-2A6.1,6.1,0,0,1,112,2.18ZM102.3,8a8.18,8.18,0,0,0,1.16,4.85A4.07,4.07,0,0,0,107,14.37q4.77,0,4.77-6.27a7.92,7.92,0,0,0-1.16-4.75,4.06,4.06,0,0,0-3.49-1.55Q102.3,1.8,102.3,8Z" transform="translate(0 0.01)"/><path class="c" d="M107.35,15.33A5.35,5.35,0,0,1,103,13.52a8.14,8.14,0,0,1-1.55-5.35,8.23,8.23,0,0,1,1.64-5.51A5.79,5.79,0,0,1,107.73.79a5.5,5.5,0,0,1,4.42,1.75,7.7,7.7,0,0,1,1.55,5.2A8.53,8.53,0,0,1,112,13.41,5.75,5.75,0,0,1,107.35,15.33Zm.26-14.07c-2.42,0-5.31,1.16-5.31,6.7a8.66,8.66,0,0,0,1.26,5.16,4.58,4.58,0,0,0,3.93,1.8c2.43,0,5.32-1.18,5.32-6.81A8.46,8.46,0,0,0,111.54,3a4.58,4.58,0,0,0-3.93-1.78Z" transform="translate(0 0.01)"/><path class="b" d="M129,15.68h-2.22L121.72.39h2L124,1.94l3.89,11.81h.14L132.36,2l.38-1.65h1.91Z" transform="translate(0 0.01)"/><path class="c" d="M127.75,15.14,123,.94h.77L124,2.07l4,12.22H129l4.43-12.1.3-1.26h.7L129.2,15.14Z" transform="translate(0 0.01)"/><path class="b" d="M154.17,2.18a8.23,8.23,0,0,1,1.68,5.56,9,9,0,0,1-1.79,6,6.31,6.31,0,0,1-5.1,2.11,5.88,5.88,0,0,1-4.78-2,8.57,8.57,0,0,1-1.68-5.7,8.74,8.74,0,0,1,1.77-5.87,6.39,6.39,0,0,1,5.07-2A6.1,6.1,0,0,1,154.17,2.18ZM144.45,8a8.18,8.18,0,0,0,1.16,4.85,4.06,4.06,0,0,0,3.49,1.57q4.77,0,4.77-6.27a7.92,7.92,0,0,0-1.16-4.75,4.06,4.06,0,0,0-3.49-1.55q-4.77,0-4.77,6.16Z" transform="translate(0 0.01)"/><path class="c" d="M149.5,15.33a5.33,5.33,0,0,1-4.37-1.81,8.2,8.2,0,0,1-1.56-5.35,8.24,8.24,0,0,1,1.65-5.51A5.78,5.78,0,0,1,149.88.79a5.5,5.5,0,0,1,4.42,1.75,7.7,7.7,0,0,1,1.55,5.2,8.53,8.53,0,0,1-1.66,5.67A5.76,5.76,0,0,1,149.5,15.33Zm.26-14.07c-2.42,0-5.31,1.16-5.31,6.7a8.59,8.59,0,0,0,1.26,5.16,4.57,4.57,0,0,0,3.93,1.8c2.42,0,5.31-1.18,5.31-6.81A8.45,8.45,0,0,0,153.69,3a4.6,4.6,0,0,0-3.93-1.78Z" transform="translate(0 0.01)"/><path class="b" d="M173.67,1l-.31,1.84-.34.09a5.79,5.79,0,0,0-1.46-.81A4.57,4.57,0,0,0,170,1.82a3.26,3.26,0,0,0-1.54.36,2.63,2.63,0,0,0-1,.93,2.4,2.4,0,0,0-.35,1.2,1.79,1.79,0,0,0,.4,1.13,3.69,3.69,0,0,0,1,.85c.4.23.94.52,1.62.85a17.1,17.1,0,0,1,2.07,1.11,5.06,5.06,0,0,1,1.35,1.3,3.17,3.17,0,0,1,.56,1.91,4,4,0,0,1-.64,2.2,4.54,4.54,0,0,1-1.82,1.6,5.71,5.71,0,0,1-2.67.6,8.6,8.6,0,0,1-2.08-.27,8.43,8.43,0,0,1-2-.8l.24-2,.26-.12a5.52,5.52,0,0,0,1.85,1.2,5.21,5.21,0,0,0,1.94.39,3.44,3.44,0,0,0,1.61-.35,2.64,2.64,0,0,0,1.08-1,2.32,2.32,0,0,0,.37-1.26,2,2,0,0,0-.77-1.61,11.75,11.75,0,0,0-2.31-1.33c-.69-.33-1.37-.7-2-1.1a5,5,0,0,1-1.31-1.27,3.2,3.2,0,0,1-.55-1.9,3.87,3.87,0,0,1,.64-2.14A4.23,4.23,0,0,1,167.67.84a5.65,5.65,0,0,1,2.59-.56A8.9,8.9,0,0,1,173.67,1Z" transform="translate(0 0.01)"/><path class="c" d="M169.53,15.31a8.24,8.24,0,0,1-3.52-.84l.11-.89a6.09,6.09,0,0,0,3.6,1.26,4,4,0,0,0,1.86-.42,3.11,3.11,0,0,0,1.29-1.15,2.92,2.92,0,0,0,.45-1.55,2.48,2.48,0,0,0-1-2,12.14,12.14,0,0,0-2.42-1.39,18.84,18.84,0,0,1-2-1.08A4.12,4.12,0,0,1,166.8,6.1a2.67,2.67,0,0,1-.45-1.58,3.37,3.37,0,0,1,.55-1.85,3.75,3.75,0,0,1,1.55-1.35,5.15,5.15,0,0,1,2.35-.5,8.41,8.41,0,0,1,2.8.52l-.15.85a5.55,5.55,0,0,0-1.17-.58,4.81,4.81,0,0,0-1.72-.32,3.62,3.62,0,0,0-1.8.42,3.06,3.06,0,0,0-1.21,1.13,2.82,2.82,0,0,0-.42,1.47,2.27,2.27,0,0,0,.51,1.47,4.19,4.19,0,0,0,1.13,1c.41.25,1,.54,1.67.88a15.55,15.55,0,0,1,2,1.08,4.42,4.42,0,0,1,1.2,1.16,2.66,2.66,0,0,1,.46,1.59,3.36,3.36,0,0,1-.56,1.9,4,4,0,0,1-1.6,1.41A5.32,5.32,0,0,1,169.53,15.31Z" transform="translate(0 0.01)"/><path class="d" d="M71.09,64.3c0,8.64-3.2,12.7-9,12.7s-8.86-4.28-8.86-12.7v-36H42.12V63.43c0,15.61,7.26,22.43,19.6,22.43,12.78,0,20.4-7.19,20.4-22.29V28.29h-11Z" transform="translate(0 0.01)"/><path class="d" d="M17.17,28.29h-15V85.86H17.11c17.26,0,20.44-8.74,20.44-28.92C37.55,36.05,34.37,28.29,17.17,28.29ZM13.3,75.52v-37c13.16.28,13.36,9.09,13.36,18.43C26.66,66.05,26.57,75.23,13.3,75.52Z" transform="translate(0 0.01)"/><path class="d" d="M118.87,63l-18.15-34.7H87.79V85.06H98L97.52,49l.22-.07,19,36.15h11.62V28.29H118.14Z" transform="translate(0 0.01)"/><path class="d" d="M155.16,27.49c-12.78,0-20.4,7.19-20.4,22.29V85.06h11V64.79h17.86V85.06h11.11V49.92C174.76,34.31,167.5,27.49,155.16,27.49Zm8.5,26.19H145.79V49.05c0-8.64,3.2-12.7,9-12.7s8.86,4.28,8.86,12.7Z" transform="translate(0 0.01)"/><path class="e" d="M61.72,87.37c-9.63,0-21.11-4.16-21.11-23.94V26.78H54.74V64.3c0,7.43,2.47,11.2,7.35,11.2,1.85,0,7.49,0,7.49-11.2V26.78h14V63.57C83.63,78.92,75.85,87.37,61.72,87.37Z" transform="translate(0 0.01)"/><path class="f" d="M71.09,64.3c0,8.64-3.2,12.7-9,12.7s-8.86-4.28-8.86-12.7v-36H42.12V63.43c0,15.61,7.26,22.43,19.6,22.43,12.78,0,20.4-7.19,20.4-22.29V28.29h-11Z" transform="translate(0 0.01)"/><path class="e" d="M.68,87.37V26.78H17.17c18.73,0,21.89,9.3,21.89,30.16,0,20.18-3.4,30.43-22,30.43ZM14.8,73.93c10.35-.88,10.35-8.38,10.35-17,0-9.87-.72-16.06-10.35-16.85Z" transform="translate(0 0.01)"/><path class="f" d="M17.17,28.29h-15V85.86H17.11c17.25,0,20.44-8.74,20.44-28.92C37.55,36.05,34.36,28.29,17.17,28.29ZM13.3,75.52v-37c13.16.28,13.36,9.09,13.36,18.43C26.66,66.05,26.57,75.23,13.3,75.52Z" transform="translate(0 0.01)"/><path class="e" d="M115.78,86.57,99.1,54.75l.38,31.82H86.28V26.78h15.35l15.6,29.82-.63-29.82h13.22V86.57Z" transform="translate(0 0.01)"/><path class="f" d="M118.87,63l-18.15-34.7H87.79V85.06H98L97.52,49l.22-.07,19,36.15h11.62V28.29H118.14Z" transform="translate(0 0.01)"/><path class="e" d="M162.14,86.57V66.3H147.3V86.57H133.25V49.78c0-15.35,7.78-23.8,21.91-23.8,9.63,0,21.11,4.15,21.11,23.94V86.56Zm0-34.4V49.05c0-7.43-2.47-11.2-7.35-11.2-1.85,0-7.49,0-7.49,11.2v3.12Z" transform="translate(0 0.01)"/><path class="f" d="M155.16,27.49c-12.78,0-20.4,7.19-20.4,22.29V85.06h11V64.79h17.86V85.06h11.11V49.92C174.76,34.31,167.5,27.49,155.16,27.49Zm8.5,26.19H145.79V49.05c0-8.64,3.2-12.7,9-12.7s8.86,4.28,8.86,12.7Z" transform="translate(0 0.01)"/><path class="g" d="M2.19,79.13v6.73H17.11c9.23,0,14.41-2.53,17.26-8Z" transform="translate(0 0.01)"/><path class="g" d="M64.26,76.78a10.51,10.51,0,0,1-2.17.22,9.36,9.36,0,0,1-1.3-.09l-15.65.59c3.23,5.73,8.92,8.36,16.58,8.36,8.45,0,14.63-3.17,17.86-9.66Z" transform="translate(0 0.01)"/><path class="g" d="M97.84,75.51l-10,.38v9.17H98Z" transform="translate(0 0.01)"/><path class="g" d="M111.41,75l5.28,10.07H128.3V74.35Z" transform="translate(0 0.01)"/><path class="g" d="M145.79,73.69l-11,.42v11h11Z" transform="translate(0 0.01)"/><path class="g" d="M163.65,73v12h11.11V72.59Z" transform="translate(0 0.01)"/><path class="h" d="M42.12,37.34v.47l.07,28s-.52,9.06,4.93,14.5Z" transform="translate(0 0.01)"/><path class="h" d="M87.79,37.34V83.46L92.73,85Z" transform="translate(0 0.01)"/><path class="h" d="M134.75,85.06V49.78L136.84,85Z" transform="translate(0 0.01)"/><path class="h" d="M118.87,63v2.18L100.72,28.29" transform="translate(0 0.01)"/><path class="h" d="M119.86,28.29l-1,36.88-.73-36.88" transform="translate(0 0.01)"/><path class="h" d="M145.79,53.68l17.86,1.12V53.68" transform="translate(0 0.01)"/><path class="h" d="M174.76,85.06V52.17L173.45,85" transform="translate(0 0.01)"/><path class="h" d="M163.65,64.79l-17.86-1.6v1.6" transform="translate(0 0.01)"/><path class="h" d="M82.13,28.29,80.39,65.93l1.74-.76Z" transform="translate(0 0.01)"/><path class="h" d="M71.09,28.29V61.81L72.61,60Z" transform="translate(0 0.01)"/><path class="h" d="M53.23,28.29V57.52l-1.06,1.29Z" transform="translate(0 0.01)"/><path class="h" d="M20.55,28.4S35.19,30.08,36,46.15a125.7,125.7,0,0,1-2,29.36l2.37-3.14S45.27,26.32,20.55,28.4Z" transform="translate(0 0.01)"/><path class="h" d="M155.16,27.49s16.78-1.29,19,15.07C174.11,42.56,171,29,155.16,27.49Z" transform="translate(0 0.01)"/><path class="h" d="M106.66,65.93l10,19.13L119,85Z" transform="translate(0 0.01)"/><path class="h" d="M128.3,49.15,126.62,85l1.68,0" transform="translate(0 0.01)"/><path class="h" d="M93.51,28.34l-5.72,1.28V28.29" transform="translate(0 0.01)"/><path class="h" d="M80.65,73.69s-3.27,10-18.92,12.17C61.72,85.86,77.65,86.69,80.65,73.69Z" transform="translate(0 0.01)"/><path class="h" d="M142.13,31.23a14.65,14.65,0,0,0-5.44,7.22Z" transform="translate(0 0.01)"/><path class="h" d="M156.44,36.49s8.85-1.82,7.21,12.57C163.65,49.05,165,37.41,156.44,36.49Z" transform="translate(0 0.01)"/></svg>