<svg xmlns="http://www.w3.org/2000/svg" width="380.756" height="38.778" viewBox="0 0 380.756 38.778"><g transform="translate(-162.582 2040.678)"><g transform="translate(162.85 -2032.112)"><path d="M174.937-2031.082l-.427,2.529-.46.131a7.808,7.808,0,0,0-2.02-1.117,6.1,6.1,0,0,0-2.118-.395,4.357,4.357,0,0,0-2.118.493,3.537,3.537,0,0,0-1.38,1.281,3.13,3.13,0,0,0-.476,1.642,2.415,2.415,0,0,0,.542,1.561,5.082,5.082,0,0,0,1.363,1.166q.821.493,2.234,1.183a23.341,23.341,0,0,1,2.857,1.527,6.886,6.886,0,0,1,1.855,1.79,4.41,4.41,0,0,1,.772,2.627,5.477,5.477,0,0,1-.887,3.022,6.281,6.281,0,0,1-2.5,2.2,7.983,7.983,0,0,1-3.678.821,11.715,11.715,0,0,1-2.874-.378,11.167,11.167,0,0,1-2.775-1.1l.329-2.693.361-.164a7.561,7.561,0,0,0,2.545,1.659,7.394,7.394,0,0,0,2.677.542,4.813,4.813,0,0,0,2.217-.493,3.611,3.611,0,0,0,1.479-1.314,3.254,3.254,0,0,0,.509-1.74,2.7,2.7,0,0,0-1.051-2.217,16.179,16.179,0,0,0-3.186-1.823,28.958,28.958,0,0,1-2.792-1.527,6.485,6.485,0,0,1-1.806-1.741,4.4,4.4,0,0,1-.755-2.611,5.33,5.33,0,0,1,.87-2.956,5.973,5.973,0,0,1,2.43-2.119,7.948,7.948,0,0,1,3.564-.771A12.478,12.478,0,0,1,174.937-2031.082Z" transform="translate(-162.85 2032.101)" fill="#74f0ff" stroke="#216762" stroke-miterlimit="10" stroke-width="0.5"/><path d="M211.121-2012.83l-.2,2.037H199.1l.164-6.339-.164-14.714h11.856l.132.263-.2,2.037-4.959-.1-4.172.066-.065,6.9,3.941.066,3.482-.1.2.23-.23,2.037-3.678-.066-3.744.033-.034,3.12.1,4.369,4.171.032,5.058-.131Z" transform="translate(-172.069 2032.045)" fill="#74f0ff" stroke="#216762" stroke-miterlimit="10" stroke-width="0.5"/><path d="M254.031-2010.794h-2.365l-.492-6.405-1.117-10.477h-.23l-5.846,14.451h-2.168l-5.55-14.451H236l-1.117,10.28-.558,6.6H232.09l2.2-21.054h2.989l1.083,3.219,4.566,11.988h.2l4.8-12.185,1.084-3.021h2.956Z" transform="translate(-180.46 2032.045)" fill="#74f0ff" stroke="#216762" stroke-miterlimit="10" stroke-width="0.5"/><path d="M284.04-2017.363l.132,6.57h-2.661l.164-6.339-.164-14.714H284.2Z" transform="translate(-193.029 2032.045)" fill="#74f0ff" stroke="#216762" stroke-miterlimit="10" stroke-width="0.5"/><path d="M322.7-2016.991l.066,6.175h-2.759l-10.9-16.849h-.164l-.033,9.919.033,6.93h-2.365l.1-6.241-.066-14.813h2.726L320.2-2015.02h.23l-.033-16.718,2.463-.2Z" transform="translate(-199.403 2032.068)" fill="#74f0ff" stroke="#216762" stroke-miterlimit="10" stroke-width="0.5"/><path d="M362.733-2029.451q2.315,2.66,2.315,7.653,0,5.387-2.463,8.293a8.7,8.7,0,0,1-7.029,2.906,8.116,8.116,0,0,1-6.585-2.759q-2.315-2.758-2.315-7.849,0-5.255,2.447-8.08a8.737,8.737,0,0,1,6.979-2.825A8.345,8.345,0,0,1,362.733-2029.451Zm-13.384,7.948q0,4.5,1.593,6.667a5.583,5.583,0,0,0,4.812,2.168q6.568,0,6.569-8.638,0-4.4-1.593-6.537a5.62,5.62,0,0,0-4.812-2.135Q349.349-2029.978,349.349-2021.5Z" transform="translate(-209.597 2032.112)" fill="#74f0ff" stroke="#216762" stroke-miterlimit="10" stroke-width="0.5"/><path d="M396.205-2010.794h-3.054l-7.029-21.054h2.693l.493,2.135,5.354,16.258h.2l5.912-16.127.525-2.266h2.628Z" transform="translate(-219.634 2032.045)" fill="#74f0ff" stroke="#216762" stroke-miterlimit="10" stroke-width="0.5"/><path d="M440.564-2029.451q2.315,2.66,2.315,7.653,0,5.387-2.463,8.293a8.7,8.7,0,0,1-7.029,2.906,8.116,8.116,0,0,1-6.585-2.759q-2.315-2.758-2.315-7.849,0-5.255,2.447-8.08a8.737,8.737,0,0,1,6.979-2.825A8.344,8.344,0,0,1,440.564-2029.451ZM427.18-2021.5q0,4.5,1.593,6.667a5.583,5.583,0,0,0,4.812,2.168q6.569,0,6.569-8.638,0-4.4-1.593-6.537a5.62,5.62,0,0,0-4.812-2.135Q427.18-2029.978,427.18-2021.5Z" transform="translate(-229.391 2032.112)" fill="#74f0ff" stroke="#216762" stroke-miterlimit="10" stroke-width="0.5"/><path d="M477.934-2031.082l-.427,2.529-.459.131a7.822,7.822,0,0,0-2.02-1.117,6.1,6.1,0,0,0-2.119-.395,4.356,4.356,0,0,0-2.118.493,3.538,3.538,0,0,0-1.38,1.281,3.135,3.135,0,0,0-.476,1.642,2.415,2.415,0,0,0,.542,1.561,5.06,5.06,0,0,0,1.363,1.166q.82.493,2.233,1.183a23.228,23.228,0,0,1,2.857,1.527,6.874,6.874,0,0,1,1.855,1.79,4.41,4.41,0,0,1,.773,2.627,5.483,5.483,0,0,1-.887,3.022,6.285,6.285,0,0,1-2.5,2.2,7.984,7.984,0,0,1-3.678.821,11.717,11.717,0,0,1-2.875-.378,11.173,11.173,0,0,1-2.775-1.1l.328-2.693.361-.164a7.572,7.572,0,0,0,2.546,1.659,7.392,7.392,0,0,0,2.677.542,4.814,4.814,0,0,0,2.217-.493,3.6,3.6,0,0,0,1.478-1.314,3.248,3.248,0,0,0,.509-1.74,2.7,2.7,0,0,0-1.051-2.217,16.172,16.172,0,0,0-3.186-1.823,28.774,28.774,0,0,1-2.792-1.527,6.5,6.5,0,0,1-1.807-1.741,4.4,4.4,0,0,1-.755-2.611,5.33,5.33,0,0,1,.871-2.956,5.968,5.968,0,0,1,2.43-2.119,7.946,7.946,0,0,1,3.563-.771A12.485,12.485,0,0,1,477.934-2031.082Z" transform="translate(-239.91 2032.101)" fill="#74f0ff" stroke="#216762" stroke-miterlimit="10" stroke-width="0.5"/></g><path d="M175.937-2031.082l-.427,2.529-.46.131a7.809,7.809,0,0,0-2.02-1.117,6.1,6.1,0,0,0-2.118-.395,4.357,4.357,0,0,0-2.118.493,3.537,3.537,0,0,0-1.379,1.281,3.129,3.129,0,0,0-.476,1.642,2.415,2.415,0,0,0,.542,1.561,5.082,5.082,0,0,0,1.363,1.166q.821.493,2.234,1.183a23.335,23.335,0,0,1,2.857,1.527,6.885,6.885,0,0,1,1.855,1.79,4.41,4.41,0,0,1,.772,2.627,5.477,5.477,0,0,1-.887,3.022,6.281,6.281,0,0,1-2.5,2.2,7.983,7.983,0,0,1-3.678.821,11.715,11.715,0,0,1-2.874-.378,11.166,11.166,0,0,1-2.775-1.1l.329-2.693.361-.164a7.56,7.56,0,0,0,2.545,1.659,7.4,7.4,0,0,0,2.677.542,4.813,4.813,0,0,0,2.217-.493,3.611,3.611,0,0,0,1.479-1.314,3.254,3.254,0,0,0,.509-1.74,2.7,2.7,0,0,0-1.051-2.217,16.18,16.18,0,0,0-3.186-1.823,28.956,28.956,0,0,1-2.792-1.527,6.486,6.486,0,0,1-1.806-1.741,4.4,4.4,0,0,1-.755-2.611,5.33,5.33,0,0,1,.87-2.956,5.973,5.973,0,0,1,2.43-2.119,7.948,7.948,0,0,1,3.564-.771A12.478,12.478,0,0,1,175.937-2031.082Z" transform="translate(-0.254 -0.011)" fill="#74f0ff"/><path d="M170.773-2011.111a11.045,11.045,0,0,1-2.692-.355,10.679,10.679,0,0,1-2.155-.795l.149-1.228a8.136,8.136,0,0,0,2.014,1.142,8.159,8.159,0,0,0,2.946.592,5.586,5.586,0,0,0,2.555-.573,4.368,4.368,0,0,0,1.773-1.585,4,4,0,0,0,.622-2.134,3.42,3.42,0,0,0-1.333-2.8,16.7,16.7,0,0,0-3.338-1.917,28.071,28.071,0,0,1-2.7-1.478,5.782,5.782,0,0,1-1.6-1.543,3.646,3.646,0,0,1-.618-2.181,4.56,4.56,0,0,1,.751-2.551,5.257,5.257,0,0,1,2.135-1.855,7.23,7.23,0,0,1,3.233-.694,11.439,11.439,0,0,1,3.86.718l-.2,1.171a8.4,8.4,0,0,0-1.614-.806,6.849,6.849,0,0,0-2.376-.441,5.111,5.111,0,0,0-2.476.584,4.3,4.3,0,0,0-1.661,1.551,3.876,3.876,0,0,0-.584,2.027,3.16,3.16,0,0,0,.707,2.028,5.859,5.859,0,0,0,1.561,1.337c.564.339,1.334.746,2.29,1.213a22.708,22.708,0,0,1,2.778,1.482,6.162,6.162,0,0,1,1.655,1.6,3.654,3.654,0,0,1,.634,2.195,4.707,4.707,0,0,1-.768,2.619,5.584,5.584,0,0,1-2.208,1.939A7.28,7.28,0,0,1,170.773-2011.111Z" transform="translate(-0.782 -0.266)" fill="#b8faff"/><path d="M212.121-2012.83l-.2,2.037H200.1l.164-6.339-.164-14.714h11.856l.132.263-.2,2.037-4.959-.1-4.172.066-.065,6.9,3.941.066,3.482-.1.2.23-.23,2.037-3.678-.066-3.744.033-.034,3.12.1,4.369,4.171.032,5.058-.131Z" transform="translate(-9.474 -0.067)" fill="#74f0ff"/><path d="M202.122-2011.285l.144-5.574-.155-13.988h10.438l-.077.794-4.269-.085-4.925.077-.079,8.365,4.682.078,2.88-.081-.084.746-3-.054-4.5.04-.041,3.851.115,5.116,4.895.038,4.431-.114-.076.791Z" transform="translate(-9.985 -0.322)" fill="#b8faff"/><path d="M255.031-2010.794h-2.365l-.492-6.405-1.117-10.477h-.23l-5.846,14.451h-2.168l-5.55-14.451H237l-1.117,10.28-.558,6.6H233.09l2.2-21.054h2.989l1.083,3.219,4.566,11.988h.2l4.8-12.185,1.084-3.021h2.956Z" transform="translate(-17.864 -0.067)" fill="#74f0ff"/><path d="M254.639-2011.285,254.2-2017l-1.19-11.166h-1.4l-5.846,14.452h-1.153l-5.551-14.452h-1.444l-1.189,10.945-.5,5.937H235.2l2.045-19.562h1.782l.913,2.711,4.758,12.5h1.219L250.9-2028.3l.915-2.549h1.755l1.923,19.562Z" transform="translate(-18.401 -0.322)" fill="#b8faff"/><path d="M285.04-2017.363l.132,6.57h-2.661l.164-6.339-.164-14.714H285.2Z" transform="translate(-30.433 -0.067)" fill="#74f0ff"/><path d="M284.533-2011.285l.144-5.574-.156-13.988h1.185l-.156,13.73.117,5.832Z" transform="translate(-30.944 -0.322)" fill="#b8faff"/><path d="M323.7-2016.991l.066,6.175h-2.759l-10.9-16.849h-.164l-.034,9.919.034,6.93h-2.365l.1-6.241-.066-14.813h2.726L321.2-2015.02h.23l-.033-16.718,2.463-.2Z" transform="translate(-36.807 -0.045)" fill="#74f0ff"/><path d="M322.671-2011.287l-10.9-16.849h-1.313l-.036,10.662.029,6.187h-.858l.086-5.483-.062-14.079h1.571L322.056-2014h1.383l-.033-16.775.962-.077-.155,14.128.058,5.438Z" transform="translate(-37.32 -0.32)" fill="#b8faff"/><path d="M363.733-2029.451q2.315,2.66,2.315,7.653,0,5.387-2.463,8.293a8.7,8.7,0,0,1-7.029,2.906,8.116,8.116,0,0,1-6.585-2.759q-2.315-2.758-2.315-7.849,0-5.255,2.447-8.08a8.737,8.737,0,0,1,6.979-2.825A8.345,8.345,0,0,1,363.733-2029.451Zm-13.384,7.948q0,4.5,1.593,6.667a5.583,5.583,0,0,0,4.812,2.168q6.568,0,6.569-8.638,0-4.4-1.593-6.537a5.62,5.62,0,0,0-4.812-2.135Q350.349-2029.978,350.349-2021.5Z" transform="translate(-47.001 0)" fill="#74f0ff"/><path d="M357.811-2011.09a7.348,7.348,0,0,1-6.014-2.493c-1.421-1.693-2.141-4.172-2.141-7.371,0-3.3.762-5.856,2.265-7.592a7.961,7.961,0,0,1,6.416-2.567,7.57,7.57,0,0,1,6.088,2.405c1.415,1.625,2.133,4.035,2.133,7.163,0,3.393-.77,6.021-2.286,7.811A7.929,7.929,0,0,1,357.811-2011.09Zm.362-19.378c-3.337,0-7.314,1.6-7.314,9.22,0,3.193.568,5.519,1.738,7.109a6.312,6.312,0,0,0,5.413,2.472c3.337,0,7.314-1.628,7.314-9.384,0-3.084-.586-5.433-1.74-6.982A6.349,6.349,0,0,0,358.172-2030.468Z" transform="translate(-47.51 -0.254)" fill="#b8faff"/><path d="M397.205-2010.794h-3.054l-7.029-21.054h2.693l.493,2.135,5.354,16.258h.2l5.913-16.127.525-2.266h2.628Z" transform="translate(-57.038 -0.067)" fill="#74f0ff"/><path d="M396.041-2011.285l-6.531-19.562h1.065l.359,1.557,5.541,16.836h1.257l6.107-16.659.4-1.734h.967l-7.172,19.562Z" transform="translate(-57.646 -0.322)" fill="#b8faff"/><path d="M441.564-2029.451q2.315,2.66,2.315,7.653,0,5.387-2.463,8.293a8.7,8.7,0,0,1-7.029,2.906,8.116,8.116,0,0,1-6.585-2.759q-2.315-2.758-2.315-7.849,0-5.255,2.447-8.08a8.737,8.737,0,0,1,6.979-2.825A8.344,8.344,0,0,1,441.564-2029.451ZM428.18-2021.5q0,4.5,1.593,6.667a5.583,5.583,0,0,0,4.812,2.168q6.569,0,6.569-8.638,0-4.4-1.593-6.537a5.62,5.62,0,0,0-4.812-2.135Q428.18-2029.978,428.18-2021.5Z" transform="translate(-66.796 0)" fill="#74f0ff"/><path d="M435.642-2011.09a7.348,7.348,0,0,1-6.014-2.493c-1.421-1.693-2.141-4.172-2.141-7.371,0-3.3.762-5.856,2.265-7.592a7.96,7.96,0,0,1,6.416-2.567,7.57,7.57,0,0,1,6.088,2.405c1.415,1.625,2.133,4.035,2.133,7.163,0,3.393-.77,6.021-2.286,7.811A7.929,7.929,0,0,1,435.642-2011.09Zm.362-19.378c-3.337,0-7.314,1.6-7.314,9.22,0,3.193.568,5.519,1.737,7.109a6.312,6.312,0,0,0,5.413,2.472c3.337,0,7.314-1.628,7.314-9.384,0-3.084-.586-5.433-1.74-6.982A6.349,6.349,0,0,0,436-2030.468Z" transform="translate(-67.304 -0.254)" fill="#b8faff"/><path d="M478.934-2031.082l-.427,2.529-.459.131a7.821,7.821,0,0,0-2.02-1.117,6.1,6.1,0,0,0-2.119-.395,4.357,4.357,0,0,0-2.118.493,3.54,3.54,0,0,0-1.38,1.281,3.135,3.135,0,0,0-.476,1.642,2.416,2.416,0,0,0,.542,1.561,5.061,5.061,0,0,0,1.363,1.166q.82.493,2.233,1.183a23.229,23.229,0,0,1,2.857,1.527,6.872,6.872,0,0,1,1.855,1.79,4.41,4.41,0,0,1,.773,2.627,5.483,5.483,0,0,1-.887,3.022,6.287,6.287,0,0,1-2.5,2.2,7.986,7.986,0,0,1-3.678.821,11.717,11.717,0,0,1-2.875-.378,11.175,11.175,0,0,1-2.775-1.1l.328-2.693.361-.164a7.571,7.571,0,0,0,2.546,1.659,7.391,7.391,0,0,0,2.677.542,4.813,4.813,0,0,0,2.217-.493,3.6,3.6,0,0,0,1.478-1.314,3.248,3.248,0,0,0,.509-1.74,2.7,2.7,0,0,0-1.051-2.217,16.172,16.172,0,0,0-3.186-1.823,28.766,28.766,0,0,1-2.792-1.527,6.5,6.5,0,0,1-1.807-1.741,4.4,4.4,0,0,1-.755-2.611,5.33,5.33,0,0,1,.871-2.956,5.968,5.968,0,0,1,2.43-2.119,7.947,7.947,0,0,1,3.564-.771A12.485,12.485,0,0,1,478.934-2031.082Z" transform="translate(-77.315 -0.011)" fill="#74f0ff"/><path d="M473.77-2011.111a11.04,11.04,0,0,1-2.692-.355,10.687,10.687,0,0,1-2.156-.795l.15-1.228a8.134,8.134,0,0,0,2.013,1.142,8.162,8.162,0,0,0,2.947.592,5.585,5.585,0,0,0,2.555-.573,4.37,4.37,0,0,0,1.774-1.585,4,4,0,0,0,.621-2.134,3.419,3.419,0,0,0-1.332-2.8,16.724,16.724,0,0,0-3.338-1.917,28.079,28.079,0,0,1-2.7-1.478,5.773,5.773,0,0,1-1.6-1.543,3.641,3.641,0,0,1-.619-2.181,4.561,4.561,0,0,1,.752-2.551,5.25,5.25,0,0,1,2.134-1.855,7.235,7.235,0,0,1,3.233-.694,11.435,11.435,0,0,1,3.86.718l-.2,1.171a8.39,8.39,0,0,0-1.614-.806,6.853,6.853,0,0,0-2.377-.441,5.108,5.108,0,0,0-2.475.584,4.3,4.3,0,0,0-1.661,1.551,3.877,3.877,0,0,0-.584,2.027,3.155,3.155,0,0,0,.707,2.028,5.846,5.846,0,0,0,1.56,1.337c.564.339,1.335.746,2.291,1.213a22.829,22.829,0,0,1,2.778,1.482,6.16,6.16,0,0,1,1.655,1.6,3.655,3.655,0,0,1,.634,2.195,4.7,4.7,0,0,1-.769,2.619,5.577,5.577,0,0,1-2.207,1.939A7.281,7.281,0,0,1,473.77-2011.111Z" transform="translate(-77.842 -0.266)" fill="#b8faff"/><g transform="translate(433.37 -2039.725)"><path d="M562.381-2014.319c0,5.458-2.019,8.026-5.687,8.026-3.578,0-5.6-2.706-5.6-8.026v-22.745h-7.017v22.2c0,9.861,4.586,14.172,12.382,14.172,8.072,0,12.889-4.541,12.889-14.081v-22.287h-6.971Z" transform="translate(-518.854 2037.568)" fill="#741d00"/><path d="M527.075-2037.064H517.61v36.367h9.427c10.9,0,12.911-5.518,12.911-18.266C539.949-2032.161,537.937-2037.064,527.075-2037.064Zm-2.448,29.835v-23.38c8.317.178,8.442,5.743,8.442,11.645C533.069-2013.208,533.013-2007.412,524.627-2007.229Z" transform="translate(-517.61 2037.568)" fill="#741d00"/><path d="M593.983-2015.142l-11.466-21.922h-8.164v35.863h6.421L580.5-2024l.138-.046,11.97,22.84h7.338v-35.863h-6.421Z" transform="translate(-520.277 2037.568)" fill="#741d00"/><path d="M618.37-2037.593c-8.072,0-12.888,4.54-12.888,14.08v22.287h6.971v-12.8h11.283v12.8h7.017v-22.2C630.754-2033.283,626.167-2037.593,618.37-2037.593Zm5.367,16.545H612.454v-2.924c0-5.458,2.018-8.026,5.688-8.026,3.578,0,5.6,2.705,5.6,8.026Z" transform="translate(-521.739 2037.593)" fill="#741d00"/></g><path d="M556.416-1999.79c-6.084,0-13.335-2.624-13.335-15.125v-23.148H552v23.7c0,4.694,1.562,7.073,4.642,7.073,1.17,0,4.734,0,4.734-7.073v-23.7h8.877v23.24C570.258-2005.129,565.342-1999.79,556.416-1999.79Z" transform="translate(-85.437 -2.111)" fill="#ba0e0a"/><path d="M562.381-2014.319c0,5.458-2.019,8.026-5.687,8.026-3.578,0-5.6-2.706-5.6-8.026v-22.745h-7.017v22.2c0,9.861,4.586,14.172,12.382,14.172,8.072,0,12.889-4.541,12.889-14.081v-22.287h-6.971Z" transform="translate(-85.484 -2.157)" fill="#d14200"/><path d="M516.61-1999.79v-38.273h10.418c11.831,0,13.826,5.878,13.826,19.054,0,12.746-2.144,19.219-13.864,19.219Zm8.923-8.489c6.537-.56,6.536-5.292,6.536-10.731,0-6.236-.457-10.149-6.536-10.644Z" transform="translate(-84.193 -2.111)" fill="#ba0e0a"/><path d="M527.075-2037.064H517.61v36.367h9.427c10.9,0,12.911-5.518,12.911-18.266C539.949-2032.161,537.937-2037.064,527.075-2037.064Zm-2.448,29.835v-23.38c8.317.178,8.442,5.743,8.442,11.645C533.069-2013.208,533.013-2007.412,524.627-2007.229Z" transform="translate(-84.24 -2.157)" fill="#d14200"/><path d="M591.984-2000.3l-10.534-20.1.242,20.1h-8.338v-37.768h9.693l9.851,18.835-.394-18.835h8.347v37.768Z" transform="translate(-86.86 -2.111)" fill="#ba0e0a"/><path d="M593.983-2015.142l-11.466-21.922h-8.164v35.863h6.421L580.5-2024l.138-.046,11.97,22.84h7.338v-35.863h-6.421Z" transform="translate(-86.907 -2.157)" fill="#d14200"/><path d="M622.737-2000.32v-12.8H613.36v12.8h-8.877v-23.24c0-9.694,4.916-15.033,13.841-15.033,6.084,0,13.336,2.624,13.336,15.124v23.148Zm0-21.728v-1.971c0-4.694-1.562-7.073-4.642-7.073-1.171,0-4.734,0-4.734,7.073v1.971Z" transform="translate(-88.323 -2.085)" fill="#ba0e0a"/><path d="M618.37-2037.593c-8.072,0-12.888,4.54-12.888,14.08v22.287h6.971v-12.8h11.283v12.8h7.017v-22.2C630.754-2033.283,626.167-2037.593,618.37-2037.593Zm5.367,16.545H612.454v-2.924c0-5.458,2.018-8.026,5.688-8.026,3.578,0,5.6,2.705,5.6,8.026Z" transform="translate(-88.37 -2.133)" fill="#d14200"/><path d="M517.61-2003.4v4.25h9.427c5.832,0,9.1-1.6,10.9-5.02Z" transform="translate(-84.24 -3.703)" fill="#aa1c00"/><path d="M558.161-2004.941a6.486,6.486,0,0,1-1.374.141,6.316,6.316,0,0,1-.821-.057l-9.882.374c2.037,3.616,5.635,5.279,10.473,5.279,5.338,0,9.239-2,11.279-6.1Z" transform="translate(-85.578 -3.65)" fill="#aa1c00"/><g transform="translate(487.447 -2010.123)"><path d="M580.7-2005.766l-6.348.241v5.795h6.421Z" transform="translate(-574.354 2006.495)" fill="#aa1c00"/><path d="M590.01-2006.126l3.333,6.36h7.338v-6.764Z" transform="translate(-575.09 2006.53)" fill="#aa1c00"/></g><g transform="translate(517.113 -2011.234)"><path d="M612.454-2006.97l-6.971.264v6.919h6.971Z" transform="translate(-605.483 2007.663)" fill="#aa1c00"/><path d="M624.637-2007.431v7.61h7.017v-7.876Z" transform="translate(-606.383 2007.697)" fill="#aa1c00"/></g><path d="M544.081-2031.067v.3l.04,17.675s-.325,5.726,3.115,9.156Z" transform="translate(-85.484 -2.439)" fill="#ff7f00"/><path d="M574.354-2031.067v29.135l3.12,1Z" transform="translate(-86.907 -2.439)" fill="#ff7f00"/><path d="M605.483-2000.532v-22.287l1.317,22.274Z" transform="translate(-88.37 -2.827)" fill="#ff7f00"/><path d="M594.386-2015.142v1.375l-11.466-23.3" transform="translate(-87.309 -2.157)" fill="#ff7f00"/><path d="M595.555-2037.064l-.627,23.3-.459-23.3" transform="translate(-87.852 -2.157)" fill="#ff7f00"/><path d="M612.8-2020.232l11.283.7v-.7" transform="translate(-88.713 -2.948)" fill="#ff7f00"/><path d="M631.959-2000.457v-20.775l-.825,20.762" transform="translate(-89.575 -2.901)" fill="#ff7f00"/><path d="M624.081-2012.919l-11.283-1.013v1.013" transform="translate(-88.713 -3.245)" fill="#ff7f00"/><path d="M570.544-2037.064l-1.094,23.779,1.094-.482Z" transform="translate(-86.676 -2.157)" fill="#ff7f00"/><path d="M563.283-2037.064v21.177l.962-1.156Z" transform="translate(-86.387 -2.157)" fill="#ff7f00"/><path d="M551.411-2037.064v18.467l-.669.813Z" transform="translate(-85.797 -2.157)" fill="#ff7f00"/><path d="M529.778-2036.99a11.4,11.4,0,0,1,9.763,11.21,79.413,79.413,0,0,1-1.285,18.545l1.5-1.979S545.392-2038.307,529.778-2036.99Z" transform="translate(-84.812 -2.158)" fill="#ff7f00"/><path d="M619.006-2037.594s10.606-.817,11.971,9.517C630.977-2028.077,629.034-2036.628,619.006-2037.594Z" transform="translate(-89.005 -2.132)" fill="#ff7f00"/><path d="M586.862-2012.112c.336.641,6.334,12.083,6.334,12.083l1.459-.013Z" transform="translate(-87.495 -3.33)" fill="#ff7f00"/><path d="M601.155-2023.236l-1.065,22.671,1.065.013" transform="translate(-88.116 -2.807)" fill="#ff7f00"/><path d="M577.968-2037.035l-3.614.813v-.843" transform="translate(-86.907 -2.157)" fill="#ff7f00"/><path d="M569.027-2006.97s-2.062,6.3-11.953,7.687C557.074-1999.283,567.138-1998.76,569.027-2006.97Z" transform="translate(-86.095 -3.571)" fill="#ff7f00"/><path d="M610.2-2035.115a9.249,9.249,0,0,0-3.432,4.558Z" transform="translate(-88.43 -2.249)" fill="#ff7f00"/><path d="M619.854-2031.631s5.593-1.15,4.558,7.938C624.412-2023.694,625.261-2031.053,619.854-2031.631Z" transform="translate(-89.045 -2.41)" fill="#ff7f00"/></g></svg>