<svg xmlns="http://www.w3.org/2000/svg" viewBox="0 0 424.08 287.8"><defs><style>.a{isolation:isolate;}.b{fill:#1a0d06;}.c{fill:#FF3400;}.d{fill:none;}</style></defs><title>title</title><g class="a"><g class="a"><path class="b" d="M65.88,50.4h7.27l-7.77,50.4H53.57L45.79,50.4h8l6,41.11Z" transform="translate(0 0)"/><path class="b" d="M90.58,100.8l-1.37-9.14H79.49l-1.37,9.14H70.85l8.06-50.4H90.5l8.07,50.4Zm-2.45-16L84.31,59.33,80.5,84.82Z" transform="translate(0 0)"/><path class="b" d="M108.07,50.4V93.6h13v7.2H100.15V50.4Z" transform="translate(0 0)"/><path class="b" d="M141.26,71.64v7.2H130.39V93.6h13.68v7.2h-21.6V50.4h21.6v7.2H130.39v14Z" transform="translate(0 0)"/><path class="b" d="M178.13,50.4v7.2h-8.28v43.2h-7.92V57.6h-8.28V50.4Z" transform="translate(0 0)"/><path class="b" d="M187.05,89.28q0,4.91,4.11,4.9t4.1-4.9V50.4h7.49V88.78q0,6.12-3,9.39t-8.79,3.28q-5.76,0-8.78-3.28t-3-9.39V50.4h7.92Z" transform="translate(0 0)"/><path class="b" d="M218.59,50.4q5.9,0,8.86,3.17t3,9.29V88.35q0,6.12-3,9.28t-8.86,3.17H206.06V50.4ZM214,93.6h4.47a3.8,3.8,0,0,0,3-1.15,5.48,5.48,0,0,0,1-3.74V62.5a5.49,5.49,0,0,0-1-3.75,3.83,3.83,0,0,0-3-1.15H214Z" transform="translate(0 0)"/><path class="b" d="M235.8,53.14q3.09-3.31,8.92-3.31t8.93,3.31q3.1,3.31,3.1,9.36V88.71q0,6-3.1,9.36t-8.93,3.31q-5.82,0-8.92-3.31t-3.1-9.36V62.5Q232.7,56.46,235.8,53.14Zm8.92,41q4.11,0,4.11-5V62q0-5-4.11-5t-4.1,5V89.21Q240.62,94.18,244.72,94.18Z" transform="translate(0 0)"/><path class="b" d="M289.36,53.57q3,3.16,3,9.29v6.55q0,6.12-3,9.29c-2,2.11-4.92,3.17-8.85,3.17h-3.75V100.8h-7.92V50.4h11.67C284.44,50.4,287.4,51.46,289.36,53.57Zm-12.6,21.1h3.75a3.71,3.71,0,0,0,2.91-1.08,5.48,5.48,0,0,0,1-3.68V62.35a5.47,5.47,0,0,0-1-3.67,3.71,3.71,0,0,0-2.91-1.08h-3.75Z" transform="translate(0 0)"/><path class="b" d="M310.61,100.8l-1.37-9.14h-9.72l-1.37,9.14h-7.27l8.06-50.4h11.59l8.07,50.4Zm-2.45-16-3.82-25.49-3.81,25.49Z" transform="translate(0 0)"/><path class="b" d="M336.17,98.5a33.35,33.35,0,0,1-.15-3.89V86.69c0-2.3-.41-4-1.22-4.93a4.86,4.86,0,0,0-4-1.48H328.1V100.8h-7.92V50.4h11.95q6.12,0,8.93,2.85c1.87,1.89,2.81,4.81,2.81,8.74v4q0,7.78-5.18,10.23a7.32,7.32,0,0,1,4,3.85,16.82,16.82,0,0,1,1.22,6.88v7.77a32.37,32.37,0,0,0,.15,3.49,8.65,8.65,0,0,0,.71,2.63h-8.06A10.86,10.86,0,0,1,336.17,98.5ZM328.1,73.08h3.1a4.77,4.77,0,0,0,3.56-1.22A5.82,5.82,0,0,0,336,67.75v-5a6.36,6.36,0,0,0-1-4,3.67,3.67,0,0,0-3.06-1.23H328.1Z" transform="translate(0 0)"/><path class="b" d="M364.68,100.8l-1.37-9.14h-9.72l-1.37,9.14H345L353,50.4h11.6l8.06,50.4Zm-2.45-16-3.82-25.49L354.6,84.82Z" transform="translate(0 0)"/></g><g class="a"><path class="c" d="M84.17,139.79V147H73.94V167.8H66V117.4H87v7.2h-13v15.19Z" transform="translate(0 0)"/><path class="c" d="M107.5,138.64v7.2H96.62V160.6H110.3v7.2H88.7V117.4h21.6v7.2H96.62v14Z" transform="translate(0 0)"/><path class="c" d="M136.08,155.71q0,6.12-3,9.39t-8.79,3.28q-5.76,0-8.78-3.28t-3-9.39V129.5q0-6.12,3-9.4t8.78-3.27q5.76,0,8.79,3.27t3,9.4v4.89h-7.49V129q0-5-4.1-5t-4.11,5v27.22c0,3.26,1.37,4.9,4.11,4.9s4.1-1.64,4.1-4.9V149h7.49Z" transform="translate(0 0)"/><path class="c" d="M138.81,167.8V117.4h7.92V139h9V117.4h8.07v50.4h-8.07V146.2h-9v21.6Z" transform="translate(0 0)"/><path class="c" d="M185.11,167.8l-1.37-9.14H174l-1.37,9.14h-7.27l8.07-50.4H185l8.06,50.4Zm-2.45-16-3.81-25.49L175,151.82Z" transform="translate(0 0)"/><path class="c" d="M210.67,165.5a34,34,0,0,1-.14-3.89v-7.92c0-2.3-.41-3.95-1.23-4.93a4.84,4.84,0,0,0-4-1.48H202.6V167.8h-7.91V117.4h11.95q6.12,0,8.92,2.85c1.88,1.89,2.81,4.81,2.81,8.74v4q0,7.78-5.18,10.23a7.32,7.32,0,0,1,4,3.85,16.65,16.65,0,0,1,1.23,6.88v7.77a32.78,32.78,0,0,0,.14,3.49,8.39,8.39,0,0,0,.72,2.63h-8.06A10.92,10.92,0,0,1,210.67,165.5Zm-8.07-25.42h3.1a4.79,4.79,0,0,0,3.57-1.22c.79-.82,1.18-2.19,1.18-4.11v-5a6.36,6.36,0,0,0-1-4,3.67,3.67,0,0,0-3.06-1.23H202.6Z" transform="translate(0 0)"/><path class="c" d="M237.67,167.8h-7.13V117.4h9.94l8.13,30.17V117.4h7.06v50.4h-8.14l-9.86-36.5Z" transform="translate(0 0)"/><path class="c" d="M278.06,138.64v7.2H267.19V160.6h13.68v7.2h-21.6V117.4h21.6v7.2H267.19v14Z" transform="translate(0 0)"/><path class="c" d="M306.64,139.72v16q0,6.12-3,9.39t-8.78,3.28c-3.85,0-6.77-1.09-8.79-3.28s-3-5.31-3-9.39V129.5q0-6.12,3-9.4c2-2.18,4.94-3.27,8.79-3.27s6.76,1.09,8.78,3.27,3,5.32,3,9.4v4.89h-7.48V129q0-5-4.11-5t-4.1,5v27.22c0,3.26,1.37,4.9,4.1,4.9s4.11-1.64,4.11-4.9v-9.29h-3.61v-7.2Z" transform="translate(0 0)"/><path class="c" d="M312.12,120.14q3.09-3.31,8.92-3.31t8.93,3.31q3.09,3.31,3.1,9.36v26.21q0,6-3.1,9.36T321,168.38q-5.82,0-8.92-3.31t-3.1-9.36V129.5Q309,123.46,312.12,120.14Zm10.08-5.4h-5.33l4.89-8h7.78ZM321,161.18q4.11,0,4.11-5V129q0-5-4.11-5t-4.1,5v27.22Q316.94,161.18,321,161.18Z" transform="translate(0 0)"/><path class="c" d="M359.06,155.71q0,6.12-3,9.39t-8.79,3.28q-5.76,0-8.78-3.28t-3-9.39V129.5q0-6.12,3-9.4t8.78-3.27q5.76,0,8.79,3.27t3,9.4v4.89h-7.49V129q0-5-4.1-5t-4.11,5v27.22c0,3.26,1.37,4.9,4.11,4.9s4.1-1.64,4.1-4.9V149h7.49Z" transform="translate(0 0)"/><path class="c" d="M369.71,117.4v50.4h-7.92V117.4Z" transform="translate(0 0)"/><path class="c" d="M375.83,120.14q3.1-3.31,8.93-3.31t8.93,3.31q3.09,3.31,3.1,9.36v26.21q0,6-3.1,9.36t-8.93,3.31q-5.83,0-8.93-3.31t-3.09-9.36V129.5Q372.74,123.46,375.83,120.14Zm8.93,41q4.11,0,4.11-5V129q0-5-4.11-5t-4.1,5v27.22Q380.66,161.18,384.76,161.18Z" transform="translate(0 0)"/></g><g class="a"><path class="b" d="M70.85,222.71q0,6.12-3,9.39T59,235.38q-5.76,0-8.78-3.28t-3-9.39V196.5q0-6.12,3-9.4T59,183.83q5.76,0,8.78,3.27t3,9.4v4.89H63.36V196q0-5-4.1-5t-4.11,5v27.22c0,3.26,1.37,4.9,4.11,4.9s4.1-1.64,4.1-4.9V216h7.49Z" transform="translate(0 0)"/><path class="b" d="M76,187.14q3.09-3.31,8.93-3.31t8.93,3.31Q97,190.46,97,196.5v26.21q0,6-3.09,9.36T85,235.38q-5.83,0-8.93-3.31t-3.09-9.36V196.5Q72.94,190.46,76,187.14Zm8.93,41c2.74,0,4.1-1.66,4.1-5V196c0-3.31-1.36-5-4.1-5s-4.11,1.65-4.11,5v27.22Q80.85,228.18,85,228.18Z" transform="translate(0 0)"/><path class="b" d="M122.18,184.4h11v50.4h-7.49V198.66l-5.47,36.14h-7.49l-5.9-35.64V234.8H99.94V184.4h11l5.83,35.79Z" transform="translate(0 0)"/><path class="b" d="M163.94,184.4h7.27l-7.77,50.4H151.63l-7.78-50.4h8l6,41.11Z" transform="translate(0 0)"/><path class="b" d="M175.17,187.14q3.11-3.31,8.93-3.31t8.93,3.31q3.09,3.31,3.1,9.36v26.21q0,6-3.1,9.36t-8.93,3.31q-5.83,0-8.93-3.31t-3.09-9.36V196.5Q172.08,190.46,175.17,187.14Zm8.93,41q4.11,0,4.11-5V196q0-5-4.11-5t-4.1,5v27.22Q180,228.18,184.1,228.18Z" transform="translate(0 0)"/><path class="b" d="M222.12,222.71q0,6.12-3,9.39t-8.78,3.28q-5.76,0-8.78-3.28t-3-9.39V196.5q0-6.12,3-9.4t8.78-3.27q5.76,0,8.78,3.27t3,9.4v4.89h-7.49V196q0-5-4.1-5t-4.11,5v27.22c0,3.26,1.37,4.9,4.11,4.9s4.1-1.64,4.1-4.9V216h7.49Z" transform="translate(0 0)"/><path class="b" d="M243.64,205.64v7.2H232.77V227.6h13.68v7.2h-21.6V184.4h21.6v7.2H232.77v14ZM232,173.75h7.13l6.41,8h-6.77l-3.24-4-3.17,4h-6.77Z" transform="translate(0 0)"/><path class="b" d="M249.26,205.43v-21h7.92v21l-1,18.21h-5.9ZM257,234.8H249.4v-7.63H257Z" transform="translate(0 0)"/></g></g><path class="d" d="M10.08,265h10L10,287.8H0Z" transform="translate(0 0)"/><path class="c" d="M10.73,266,1.54,286.8H9.35L18.54,266H10.73m-.65-1h10L10,287.8H0Z" transform="translate(0 0)"/><path class="d" d="M219.08,265h10L219,287.8H209Z" transform="translate(0 0)"/><path class="c" d="M219.73,266l-9.19,20.8h7.81l9.19-20.8h-7.81m-.65-1h10L219,287.8H209Z" transform="translate(0 0)"/><path class="d" d="M114.08,265h10L114,287.8H104Z" transform="translate(0 0)"/><path class="c" d="M114.73,266l-9.19,20.8h7.81l9.19-20.8h-7.81m-.65-1h10L114,287.8H104Z" transform="translate(0 0)"/><path class="d" d="M323.08,265h10L323,287.8H313Z" transform="translate(0 0)"/><path class="c" d="M323.73,266l-9.19,20.8h7.81l9.19-20.8h-7.81m-.65-1h10L323,287.8H313Z" transform="translate(0 0)"/><path class="d" d="M62.08,265h10L62,287.8H52Z" transform="translate(0 0)"/><path class="c" d="M62.73,266l-9.19,20.8h7.81L70.54,266H62.73m-.65-1h10L62,287.8H52Z" transform="translate(0 0)"/><path class="d" d="M271.08,265h10L271,287.8H261Z" transform="translate(0 0)"/><path class="c" d="M271.73,266l-9.19,20.8h7.81l9.19-20.8h-7.81m-.65-1h10L271,287.8H261Z" transform="translate(0 0)"/><path class="d" d="M166.08,265h10L166,287.8H156Z" transform="translate(0 0)"/><path class="c" d="M166.73,266l-9.19,20.8h7.81l9.19-20.8h-7.81m-.65-1h10L166,287.8H156Z" transform="translate(0 0)"/><path class="d" d="M375.08,265h10L375,287.8H365Z" transform="translate(0 0)"/><path class="c" d="M375.73,266l-9.19,20.8h7.81l9.19-20.8h-7.81m-.65-1h10L375,287.8H365Z" transform="translate(0 0)"/><path class="d" d="M36.08,265h10L36,287.8H26Z" transform="translate(0 0)"/><path class="c" d="M36.73,266l-9.19,20.8h7.81L44.54,266H36.73m-.65-1h10L36,287.8H26Z" transform="translate(0 0)"/><path class="d" d="M245.08,265h10L245,287.8H235Z" transform="translate(0 0)"/><path class="c" d="M245.73,266l-9.19,20.8h7.81l9.19-20.8h-7.81m-.65-1h10L245,287.8H235Z" transform="translate(0 0)"/><path class="d" d="M140.08,265h10L140,287.8H130Z" transform="translate(0 0)"/><path class="c" d="M140.73,266l-9.19,20.8h7.81l9.19-20.8h-7.81m-.65-1h10L140,287.8H130Z" transform="translate(0 0)"/><path class="d" d="M349.08,265h10L349,287.8H339Z" transform="translate(0 0)"/><path class="c" d="M349.73,266l-9.19,20.8h7.81l9.19-20.8h-7.81m-.65-1h10L349,287.8H339Z" transform="translate(0 0)"/><path class="d" d="M88.08,265h10L88,287.8H78Z" transform="translate(0 0)"/><path class="c" d="M88.73,266l-9.19,20.8h7.81L96.54,266H88.73m-.65-1h10L88,287.8H78Z" transform="translate(0 0)"/><path class="d" d="M297.08,265h10L297,287.8H287Z" transform="translate(0 0)"/><path class="c" d="M297.73,266l-9.19,20.8h7.81l9.19-20.8h-7.81m-.65-1h10L297,287.8H287Z" transform="translate(0 0)"/><path class="d" d="M192.08,265h10L192,287.8H182Z" transform="translate(0 0)"/><path class="c" d="M192.73,266l-9.19,20.8h7.81l9.19-20.8h-7.81m-.65-1h10L192,287.8H182Z" transform="translate(0 0)"/><path class="d" d="M401.08,265h10L401,287.8H391Z" transform="translate(0 0)"/><path class="c" d="M401.73,266l-9.19,20.8h7.81l9.19-20.8h-7.81m-.65-1h10L401,287.8H391Z" transform="translate(0 0)"/><path class="d" d="M23.08,265h10L23,287.8H13Z" transform="translate(0 0)"/><path class="c" d="M23.73,266l-9.19,20.8h7.81L31.54,266H23.73m-.65-1h10L23,287.8H13Z" transform="translate(0 0)"/><path class="d" d="M232.08,265h10L232,287.8H222Z" transform="translate(0 0)"/><path class="c" d="M232.73,266l-9.19,20.8h7.81l9.19-20.8h-7.81m-.65-1h10L232,287.8H222Z" transform="translate(0 0)"/><path class="d" d="M127.08,265h10L127,287.8H117Z" transform="translate(0 0)"/><path class="c" d="M127.73,266l-9.19,20.8h7.81l9.19-20.8h-7.81m-.65-1h10L127,287.8H117Z" transform="translate(0 0)"/><path class="d" d="M336.08,265h10L336,287.8H326Z" transform="translate(0 0)"/><path class="c" d="M336.73,266l-9.19,20.8h7.81l9.19-20.8h-7.81m-.65-1h10L336,287.8H326Z" transform="translate(0 0)"/><path class="d" d="M75.08,265h10L75,287.8H65Z" transform="translate(0 0)"/><path class="c" d="M75.73,266l-9.19,20.8h7.81L83.54,266H75.73m-.65-1h10L75,287.8H65Z" transform="translate(0 0)"/><path class="d" d="M284.08,265h10L284,287.8H274Z" transform="translate(0 0)"/><path class="c" d="M284.73,266l-9.19,20.8h7.81l9.19-20.8h-7.81m-.65-1h10L284,287.8H274Z" transform="translate(0 0)"/><path class="d" d="M179.08,265h10L179,287.8H169Z" transform="translate(0 0)"/><path class="c" d="M179.73,266l-9.19,20.8h7.81l9.19-20.8h-7.81m-.65-1h10L179,287.8H169Z" transform="translate(0 0)"/><path class="d" d="M388.08,265h10L388,287.8H378Z" transform="translate(0 0)"/><path class="c" d="M388.73,266l-9.19,20.8h7.81l9.19-20.8h-7.81m-.65-1h10L388,287.8H378Z" transform="translate(0 0)"/><path class="d" d="M49.08,265h10L49,287.8H39Z" transform="translate(0 0)"/><path class="c" d="M49.73,266l-9.19,20.8h7.81L57.54,266H49.73m-.65-1h10L49,287.8H39Z" transform="translate(0 0)"/><path class="d" d="M258.08,265h10L258,287.8H248Z" transform="translate(0 0)"/><path class="c" d="M258.73,266l-9.19,20.8h7.81l9.19-20.8h-7.81m-.65-1h10L258,287.8H248Z" transform="translate(0 0)"/><path class="d" d="M153.08,265h10L153,287.8H143Z" transform="translate(0 0)"/><path class="c" d="M153.73,266l-9.19,20.8h7.81l9.19-20.8h-7.81m-.65-1h10L153,287.8H143Z" transform="translate(0 0)"/><path class="d" d="M362.08,265h10L362,287.8H352Z" transform="translate(0 0)"/><path class="c" d="M362.73,266l-9.19,20.8h7.81l9.19-20.8h-7.81m-.65-1h10L362,287.8H352Z" transform="translate(0 0)"/><path class="d" d="M101.08,265h10L101,287.8H91Z" transform="translate(0 0)"/><path class="c" d="M101.73,266l-9.19,20.8h7.81l9.19-20.8h-7.81m-.65-1h10L101,287.8H91Z" transform="translate(0 0)"/><path class="d" d="M310.08,265h10L310,287.8H300Z" transform="translate(0 0)"/><path class="c" d="M310.73,266l-9.19,20.8h7.81l9.19-20.8h-7.81m-.65-1h10L310,287.8H300Z" transform="translate(0 0)"/><path class="d" d="M205.08,265h10L205,287.8H195Z" transform="translate(0 0)"/><path class="c" d="M205.73,266l-9.19,20.8h7.81l9.19-20.8h-7.81m-.65-1h10L205,287.8H195Z" transform="translate(0 0)"/><path class="d" d="M414.08,265h10L414,287.8H404Z" transform="translate(0 0)"/><path class="c" d="M414.73,266l-9.19,20.8h7.81l9.19-20.8h-7.81m-.65-1h10L414,287.8H404Z" transform="translate(0 0)"/><path class="d" d="M10.08,23h10L10,0H0Z" transform="translate(0 0)"/><path class="c" d="M18.55,22,9.35,1H1.53l9.2,21h7.82m1.53,1h-10L0,0H10Z" transform="translate(0 0)"/><path class="d" d="M219.08,23h10L219,0H209Z" transform="translate(0 0)"/><path class="c" d="M227.55,22l-9.2-21h-7.82l9.2,21h7.82m1.53,1h-10L209,0h10Z" transform="translate(0 0)"/><path class="d" d="M114.08,23h10L114,0H104Z" transform="translate(0 0)"/><path class="c" d="M122.55,22l-9.2-21h-7.82l9.2,21h7.82m1.53,1h-10L104,0h10Z" transform="translate(0 0)"/><path class="d" d="M323.08,23h10L323,0H313Z" transform="translate(0 0)"/><path class="c" d="M331.55,22l-9.2-21h-7.82l9.2,21h7.82m1.53,1h-10L313,0h10Z" transform="translate(0 0)"/><path class="d" d="M62.08,23h10L62,0H52Z" transform="translate(0 0)"/><path class="c" d="M70.55,22,61.35,1H53.53l9.2,21h7.82m1.53,1h-10L52,0H62Z" transform="translate(0 0)"/><path class="d" d="M271.08,23h10L271,0H261Z" transform="translate(0 0)"/><path class="c" d="M279.55,22l-9.2-21h-7.82l9.2,21h7.82m1.53,1h-10L261,0h10Z" transform="translate(0 0)"/><path class="d" d="M166.08,23h10L166,0H156Z" transform="translate(0 0)"/><path class="c" d="M174.55,22l-9.2-21h-7.82l9.2,21h7.82m1.53,1h-10L156,0h10Z" transform="translate(0 0)"/><path class="d" d="M375.08,23h10L375,0H365Z" transform="translate(0 0)"/><path class="c" d="M383.55,22l-9.2-21h-7.82l9.2,21h7.82m1.53,1h-10L365,0h10Z" transform="translate(0 0)"/><path class="d" d="M36.08,23h10L36,0H26Z" transform="translate(0 0)"/><path class="c" d="M44.55,22,35.35,1H27.53l9.2,21h7.82m1.53,1h-10L26,0H36Z" transform="translate(0 0)"/><path class="d" d="M245.08,23h10L245,0H235Z" transform="translate(0 0)"/><path class="c" d="M253.55,22l-9.2-21h-7.82l9.2,21h7.82m1.53,1h-10L235,0h10Z" transform="translate(0 0)"/><path class="d" d="M140.08,23h10L140,0H130Z" transform="translate(0 0)"/><path class="c" d="M148.55,22l-9.2-21h-7.82l9.2,21h7.82m1.53,1h-10L130,0h10Z" transform="translate(0 0)"/><path class="d" d="M349.08,23h10L349,0H339Z" transform="translate(0 0)"/><path class="c" d="M357.55,22l-9.2-21h-7.82l9.2,21h7.82m1.53,1h-10L339,0h10Z" transform="translate(0 0)"/><path class="d" d="M88.08,23h10L88,0H78Z" transform="translate(0 0)"/><path class="c" d="M96.55,22,87.35,1H79.53l9.2,21h7.82m1.53,1h-10L78,0H88Z" transform="translate(0 0)"/><path class="d" d="M297.08,23h10L297,0H287Z" transform="translate(0 0)"/><path class="c" d="M305.55,22l-9.2-21h-7.82l9.2,21h7.82m1.53,1h-10L287,0h10Z" transform="translate(0 0)"/><path class="d" d="M192.08,23h10L192,0H182Z" transform="translate(0 0)"/><path class="c" d="M200.55,22l-9.2-21h-7.82l9.2,21h7.82m1.53,1h-10L182,0h10Z" transform="translate(0 0)"/><path class="d" d="M401.08,23h10L401,0H391Z" transform="translate(0 0)"/><path class="c" d="M409.55,22l-9.2-21h-7.82l9.2,21h7.82m1.53,1h-10L391,0h10Z" transform="translate(0 0)"/><path class="d" d="M23.08,23h10L23,0H13Z" transform="translate(0 0)"/><path class="c" d="M31.55,22,22.35,1H14.53l9.2,21h7.82m1.53,1h-10L13,0H23Z" transform="translate(0 0)"/><path class="d" d="M232.08,23h10L232,0H222Z" transform="translate(0 0)"/><path class="c" d="M240.55,22l-9.2-21h-7.82l9.2,21h7.82m1.53,1h-10L222,0h10Z" transform="translate(0 0)"/><path class="d" d="M127.08,23h10L127,0H117Z" transform="translate(0 0)"/><path class="c" d="M135.55,22l-9.2-21h-7.82l9.2,21h7.82m1.53,1h-10L117,0h10Z" transform="translate(0 0)"/><path class="d" d="M336.08,23h10L336,0H326Z" transform="translate(0 0)"/><path class="c" d="M344.55,22l-9.2-21h-7.82l9.2,21h7.82m1.53,1h-10L326,0h10Z" transform="translate(0 0)"/><path class="d" d="M75.08,23h10L75,0H65Z" transform="translate(0 0)"/><path class="c" d="M83.55,22,74.35,1H66.53l9.2,21h7.82m1.53,1h-10L65,0H75Z" transform="translate(0 0)"/><path class="d" d="M284.08,23h10L284,0H274Z" transform="translate(0 0)"/><path class="c" d="M292.55,22l-9.2-21h-7.82l9.2,21h7.82m1.53,1h-10L274,0h10Z" transform="translate(0 0)"/><path class="d" d="M179.08,23h10L179,0H169Z" transform="translate(0 0)"/><path class="c" d="M187.55,22l-9.2-21h-7.82l9.2,21h7.82m1.53,1h-10L169,0h10Z" transform="translate(0 0)"/><path class="d" d="M388.08,23h10L388,0H378Z" transform="translate(0 0)"/><path class="c" d="M396.55,22l-9.2-21h-7.82l9.2,21h7.82m1.53,1h-10L378,0h10Z" transform="translate(0 0)"/><path class="d" d="M49.08,23h10L49,0H39Z" transform="translate(0 0)"/><path class="c" d="M57.55,22,48.35,1H40.53l9.2,21h7.82m1.53,1h-10L39,0H49Z" transform="translate(0 0)"/><path class="d" d="M258.08,23h10L258,0H248Z" transform="translate(0 0)"/><path class="c" d="M266.55,22l-9.2-21h-7.82l9.2,21h7.82m1.53,1h-10L248,0h10Z" transform="translate(0 0)"/><path class="d" d="M153.08,23h10L153,0H143Z" transform="translate(0 0)"/><path class="c" d="M161.55,22l-9.2-21h-7.82l9.2,21h7.82m1.53,1h-10L143,0h10Z" transform="translate(0 0)"/><path class="d" d="M362.08,23h10L362,0H352Z" transform="translate(0 0)"/><path class="c" d="M370.55,22l-9.2-21h-7.82l9.2,21h7.82m1.53,1h-10L352,0h10Z" transform="translate(0 0)"/><path class="d" d="M101.08,23h10L101,0H91Z" transform="translate(0 0)"/><path class="c" d="M109.55,22l-9.2-21H92.53l9.2,21h7.82m1.53,1h-10L91,0h10Z" transform="translate(0 0)"/><path class="d" d="M310.08,23h10L310,0H300Z" transform="translate(0 0)"/><path class="c" d="M318.55,22l-9.2-21h-7.82l9.2,21h7.82m1.53,1h-10L300,0h10Z" transform="translate(0 0)"/><path class="d" d="M205.08,23h10L205,0H195Z" transform="translate(0 0)"/><path class="c" d="M213.55,22l-9.2-21h-7.82l9.2,21h7.82m1.53,1h-10L195,0h10Z" transform="translate(0 0)"/><path class="d" d="M414.08,23h10L414,0H404Z" transform="translate(0 0)"/><path class="c" d="M422.55,22l-9.2-21h-7.82l9.2,21h7.82m1.53,1h-10L404,0h10Z" transform="translate(0 0)"/></svg>